<?xml version="1.0" encoding="UTF-8"?>
<svg width="14px" height="14px" viewBox="0 0 14 14" version="1.1" xmlns="http://www.w3.org/2000/svg" xmlns:xlink="http://www.w3.org/1999/xlink">
    <title>切片</title>
    <g id="-----API设计页面优化-2.8" stroke="none" stroke-width="1" fill="none" fill-rule="evenodd">
        <g id="API展开" transform="translate(-1370.000000, -91.000000)" fill-rule="nonzero">
            <g id="关闭" transform="translate(1370.000000, 91.000000)">
                <rect id="矩形" fill="#000000" opacity="0" x="0" y="0" width="13.7142857" height="13.7142857"></rect>
                <path d="M5.81626571,6.8410806 L9.76711389,2.91072139 C9.95394036,2.72485426 9.954886,2.42365962 9.76901889,2.23683315 C9.58267209,2.0495407 9.28195712,2.04906103 9.09513064,2.23492815 L5.14332311,6.16576704 L4.46754358,6.83822996 L5.14047246,7.51306386 L9.09370532,11.4782201 C9.18663888,11.5716333 9.30864074,11.6183399 9.43112227,11.6183399 C9.55312413,11.6183399 9.67466001,11.5716333 9.76759357,11.4791794 C9.95394036,11.2933123 9.95442004,10.9921176 9.76855291,10.8052912 L5.81626571,6.8410806 Z" id="路径" fill="#5F6269" transform="translate(7.187686, 6.857142) scale(-1, 1) translate(-7.187686, -6.857142) "></path>
            </g>
        </g>
    </g>
</svg>