<?xml version="1.0" encoding="UTF-8"?>
<svg width="28px" height="28px" viewBox="0 0 28 28" version="1.1" xmlns="http://www.w3.org/2000/svg" xmlns:xlink="http://www.w3.org/1999/xlink">
    <title>GraphQL</title>
    <defs>
        <circle id="path-1" cx="14" cy="14" r="14"></circle>
        <filter x="-25.0%" y="-17.9%" width="150.0%" height="150.0%" filterUnits="objectBoundingBox" id="filter-2">
            <feOffset dx="0" dy="2" in="SourceAlpha" result="shadowOffsetOuter1"></feOffset>
            <feGaussianBlur stdDeviation="2" in="shadowOffsetOuter1" result="shadowBlurOuter1"></feGaussianBlur>
            <feColorMatrix values="0 0 0 0 0.37254902   0 0 0 0 0.384313725   0 0 0 0 0.411764706  0 0 0 0.1 0" type="matrix" in="shadowBlurOuter1"></feColorMatrix>
        </filter>
    </defs>
    <g id="GraphQL" stroke="none" stroke-width="1" fill="none" fill-rule="evenodd">
        <g id="椭圆形备份">
            <use fill="black" fill-opacity="1" filter="url(#filter-2)" xlink:href="#path-1"></use>
            <use fill="#FFFFFF" fill-rule="evenodd" xlink:href="#path-1"></use>
        </g>
        <g id="编组-5" transform="translate(7.000000, 6.000000)">
            <g id="编组-4">
                <path d="M6.75349792,1.58316797 L12.5771865,5.16390374 L12.5771865,11.0056197 L6.75366718,14.7885587 L1.15341133,11.0103939 L1.15341133,5.15917271 L6.75349792,1.58316797 Z" id="路径-17" stroke="#DE34A6" stroke-width="0.851110198"></path>
                <path d="M6.75611268,1.90377834 L12.2409356,10.8110855 L1.47490322,10.8110855 L6.75611268,1.90377834 Z" id="路径-18" stroke="#DE34A6" stroke-width="0.851110198"></path>
                <path d="M6.67533163,2.28502373 C7.29886469,2.28502373 7.8043381,1.77350375 7.8043381,1.14251187 C7.8043381,0.511519986 7.29886469,0 6.67533163,0 C6.05179857,0 5.54632516,0.511519986 5.54632516,1.14251187 C5.54632516,1.77350375 6.05179857,2.28502373 6.67533163,2.28502373 Z" id="椭圆形" fill="#DE34A6"></path>
                <path d="M1.12900647,6.11409042 C1.75253953,6.11409042 2.25801294,5.60257043 2.25801294,4.97157855 C2.25801294,4.34058667 1.75253953,3.82906669 1.12900647,3.82906669 C0.505473415,3.82906669 0,4.34058667 0,4.97157855 C0,5.60257043 0.505473415,6.11409042 1.12900647,6.11409042 Z" id="椭圆形" fill="#DE34A6"></path>
                <path d="M12.8709935,6.11409042 C13.4945266,6.11409042 14,5.60257043 14,4.97157855 C14,4.34058667 13.4945266,3.82906669 12.8709935,3.82906669 C12.2474605,3.82906669 11.7419871,4.34058667 11.7419871,4.97157855 C11.7419871,5.60257043 12.2474605,6.11409042 12.8709935,6.11409042 Z" id="椭圆形" fill="#DE34A6"></path>
                <path d="M12.8709935,12.1916271 C13.4945266,12.1916271 14,11.6801071 14,11.0491152 C14,10.4181234 13.4945266,9.90660338 12.8709935,9.90660338 C12.2474605,9.90660338 11.7419871,10.4181234 11.7419871,11.0491152 C11.7419871,11.6801071 12.2474605,12.1916271 12.8709935,12.1916271 Z" id="椭圆形" fill="#DE34A6"></path>
                <path d="M6.78533512,16 C7.40886818,16 7.9143416,15.48848 7.9143416,14.8574881 C7.9143416,14.2264963 7.40886818,13.7149763 6.78533512,13.7149763 C6.16180207,13.7149763 5.65632865,14.2264963 5.65632865,14.8574881 C5.65632865,15.48848 6.16180207,16 6.78533512,16 Z" id="椭圆形" fill="#DE34A6"></path>
            </g>
            <path d="M1.12900647,12.3791525 C1.75253953,12.3791525 2.25801294,11.8676325 2.25801294,11.2366406 C2.25801294,10.6056488 1.75253953,10.0941288 1.12900647,10.0941288 C0.505473415,10.0941288 0,10.6056488 0,11.2366406 C0,11.8676325 0.505473415,12.3791525 1.12900647,12.3791525 Z" id="椭圆形" fill="#DE34A6"></path>
        </g>
    </g>
</svg>