<?xml version="1.0" encoding="utf-8"?><svg xmlns="http://www.w3.org/2000/svg" xmlns:xlink="http://www.w3.org/1999/xlink" width="1024px" height="1024px" viewBox="0 0 1024 1024" version="1.1">
    <g>
        <path d="M270.272 64v58.496H218.24c-38.144 0-58.432 19.456-60.992 59.776l-0.256 8.96v193.28c0 55.68-26.048 93.76-76.16 113.28 46.784 19.072 72.576 53.568 75.776 102.592l0.384 10.752v194.112c0 41.6 17.792 64.64 53.376 67.52l7.872 0.32h52.032v58.496H206.208c-38.08 0-67.84-12.032-88.256-36.224-18.176-19.84-27.52-46.208-29.376-79.232l-0.32-12.736v-189.44c0-27.904-6.528-48.32-17.664-61.312-11.52-13.248-31.936-21.312-59.776-23.616L0 528.448V467.2c33.408-1.856 57.6-9.28 70.592-24.128 9.6-11.136 15.68-27.776 17.28-49.856l0.384-11.52V193.216c0-39.04 9.28-70.656 29.696-92.928 18.176-21.44 43.648-33.408 75.84-35.776L206.208 64h64.064z m547.52 0c37.12 0 66.88 12.096 88.256 36.224 17.28 19.84 27.328 46.976 29.312 80.192l0.384 12.736v188.544c0 27.84 5.568 48.32 17.664 62.208 11.392 12.16 30.592 19.456 58.24 22.272L1024 467.2v61.312c-34.368 0.96-57.6 9.28-70.592 24.192-10.56 11.328-16.128 28.416-17.408 51.2l-0.256 10.112v189.44c0 39.04-10.24 69.696-29.696 91.968-19.008 21.504-44.608 33.408-76.16 35.84l-12.096 0.384h-64.064v-58.496h52.032c38.144 0 58.432-20.224 60.992-59.2l0.256-8.64V611.2c0-54.784 25.088-92.864 76.16-113.28-47.68-18.24-72.704-52.672-75.776-102.464l-0.384-10.88v-193.28c0-43.328-17.792-65.6-53.376-68.416l-7.872-0.32h-52.032V64h64.064z m-63.552 487.872c12.8 12.8 12.544 34.368 0.064 50.176l-3.712 4.16-106.24 106.24 92.928 92.992c14.08 14.016 12.416 38.336-3.584 54.336-14.72 14.72-36.352 17.28-50.624 6.784l-3.712-3.2-92.992-92.928-106.24 106.24c-16 16-40.32 17.664-54.336 3.648-12.8-12.8-12.544-34.368 0-50.176l3.648-4.16 106.24-106.24-92.928-92.992c-14.08-14.016-12.416-38.336 3.584-54.336 14.72-14.656 36.352-17.28 50.624-6.784l3.712 3.2 92.928 92.928 106.24-106.24c16.064-16 40.384-17.6 54.4-3.648z m-69.888-483.2a41.6 41.6 0 0 1 13.312 52.16l-3.456 5.76-259.584 365.44a76.16 76.16 0 0 1-120.512 4.736l-4.992-6.656-89.792-135.104a41.6 41.6 0 0 1 65.088-51.392l4.16 5.312 84.096 126.592 253.696-357.12a41.6 41.6 0 0 1 57.984-9.792z" fill="#5F6269"/>
    </g>
</svg>