<?xml version="1.0" encoding="utf-8"?><svg xmlns="http://www.w3.org/2000/svg" xmlns:xlink="http://www.w3.org/1999/xlink" width="1024px" height="1024px" viewBox="0 0 1024 1024" version="1.1">
    <g>
        <path d="M0 0m102.4 0l819.2 0q102.4 0 102.4 102.4l0 819.2q0 102.4-102.4 102.4l-819.2 0q-102.4 0-102.4-102.4l0-819.2q0-102.4 102.4-102.4Z" fill="#363B35" fill-opacity="0"/>
        <path d="M281.1904 418.304v75.264h153.3952v108.9536H281.1904v75.264h196.4032v111.104H153.6V307.2h323.9936v111.104z" fill="#E92E5E"/>
        <path d="M563.2 307.2h192.8192c60.2112 0 105.472 14.08 135.8336 42.2912 30.3616 28.16 45.5168 69.7856 45.5168 124.7232s-19.6096 101.0688-58.7776 138.3424l52.3264 176.3328h-139.776l-35.1232-145.5104h-65.2288v145.5104H563.2V307.2z" fill="#787D8B"/>
        <path d="M732.9792 528.5888c15.3088 0 27.136-5.8368 35.4816-17.5616 8.3456-11.7248 12.544-25.9072 12.544-42.6496 0-16.2304-4.6592-30.1056-13.9776-41.5744A44.4928 44.4928 0 0 0 730.8288 409.6H665.6v118.9888h67.3792z" fill="#FFFFFF"/>
    </g>
</svg>