<?xml version="1.0" encoding="utf-8"?><svg xmlns="http://www.w3.org/2000/svg" xmlns:xlink="http://www.w3.org/1999/xlink" width="1024px" height="1024px" viewBox="0 0 1024 1024" version="1.1">
    <g>
        <path d="M368 216c0-14.4 9.6-24 24-24h240c14.4 0 24 9.6 24 24s-9.6 24-24 24h-240c-14.4 0-24-9.6-24-24z m528 96c0 14.4-9.6 24-24 24H800v408c0 67.2-52.8 120-120 120h-336A118.848 118.848 0 0 1 224 744V336H152C137.6 336 128 326.4 128 312s9.6-24 24-24h720c14.4 0 24 9.6 24 24z m-144 24h-480v408c0 38.4 33.6 72 72 72h336c38.4 0 72-33.6 72-72V336z m-120 384c14.4 0 24-9.6 24-24v-240c0-14.4-9.6-24-24-24s-24 9.6-24 24v240c0 14.4 9.6 24 24 24z" fill="#5F6269" fill-opacity=".6"/>
    </g>
</svg>