<?xml version="1.0" encoding="utf-8"?><svg xmlns="http://www.w3.org/2000/svg" xmlns:xlink="http://www.w3.org/1999/xlink" width="1024px" height="1024px" viewBox="0 0 1024 1024" version="1.1">
    <g>
        <path d="M0 0h1024v1024H0z" fill="#D8D8D8" fill-opacity="0"/>
        <path d="M744.1408 677.4272a204.8 204.8 0 1 0 0-409.6 204.8 204.8 0 0 0 0 409.6z" fill="#5F6269"/>
        <path d="M805.5808 458.9568a296.8064 296.8064 0 0 0-296.3456-288.256 295.7312 295.7312 0 0 0-199.168 76.9024A295.8848 295.8848 0 0 0 218.7264 408.064a222.6176 222.6176 0 0 0-116.5312 66.4576 222.5152 222.5152 0 0 0-59.5456 151.7568 223.488 223.488 0 0 0 223.232 223.232H785.5616a195.9936 195.9936 0 0 0 195.7888-195.7888 196.096 196.096 0 0 0-175.7696-194.7648z" fill="#C3C7CF"/>
        <path d="M410.112 485.2224l-57.5488 146.2272h18.0224l15.5648-40.96h67.1744l15.5648 40.96h18.2272L429.568 485.2224h-19.456z m-18.6368 91.136l28.0576-73.1136h0.8192l27.648 73.1136H391.4752zM501.8624 485.2224v146.2272h16.7936v-59.8016h42.8032c33.5872 0 50.5856-14.5408 50.5856-43.4176 0-28.672-16.7936-43.008-50.3808-43.008H501.8624z m16.7936 14.5408h41.984c11.6736 0 20.2752 2.2528 26.0096 7.168 5.7344 4.3008 8.6016 11.4688 8.6016 21.2992 0 9.8304-2.8672 16.9984-8.3968 21.7088-5.7344 4.7104-14.336 7.168-26.2144 7.168h-41.984v-57.344zM634.5728 485.2224v146.2272h16.5888V485.2224z" fill="#E92E5E"/>
    </g>
</svg>