<?xml version="1.0" encoding="utf-8"?><svg xmlns="http://www.w3.org/2000/svg" xmlns:xlink="http://www.w3.org/1999/xlink" width="1024px" height="1024px" viewBox="0 0 1024 1024" version="1.1">
    <g>
        <path d="M964.980364 722.385455c-58.647273 95.232-141.498182 153.786182-241.570909 190.370909-75.589818 29.230545-158.533818 39.098182-239.057455 34.164363-82.850909-4.933818-168.308364-26.903273-241.477818-73.262545A384.744727 384.744727 0 0 1 86.760727 678.632727c-24.389818-85.364364-21.969455-178.082909 0-261.026909a509.765818 509.765818 0 0 1 126.789818-212.247273A470.481455 470.481455 0 0 1 455.214545 80.989091 552.494545 552.494545 0 0 1 691.665455 88.157091c65.815273 17.128727 119.528727 46.359273 163.467636 97.559273 41.425455 46.359273 70.749091 102.493091 78.010182 165.888a361.658182 361.658182 0 0 1-34.164364 195.211636A436.130909 436.130909 0 0 1 699.112727 744.448c-12.101818 4.840727-26.810182 7.261091-36.584727 2.420364a25.041455 25.041455 0 0 1-7.261091-24.389819c21.969455-163.467636 70.749091-297.611636 129.303273-458.658909 4.840727-12.194909-7.354182-36.584727-31.744-43.938909-24.389818-9.774545-41.518545 4.933818-43.938909 9.774546-2.420364 9.774545-21.969455 58.647273-29.230546 85.364363a187.950545 187.950545 0 0 0-78.103272-90.298181 182.737455 182.737455 0 0 0-129.303273-17.035637 248.832 248.832 0 0 0-126.789818 68.328727c-80.523636 82.944-134.237091 192.698182-129.396364 307.386182 2.513455 68.328727 24.482909 134.144 75.682909 180.596364 43.938909 41.425455 99.979636 53.620364 158.533818 39.005091 53.713455-14.708364 97.652364-46.359273 134.237091-87.877818v39.098181c0 24.296727 9.774545 46.266182 29.230546 63.301819 17.128727 14.708364 41.518545 19.549091 75.682909 12.288 117.015273-29.323636 234.123636-146.432 290.257454-258.606546 31.650909-65.908364 41.518545-143.918545 34.164364-214.667636a386.234182 386.234182 0 0 0-75.589818-195.211637C884.363636 88.157091 816.221091 46.731636 728.343273 22.341818A627.991273 627.991273 0 0 0 450.187636 10.146909a527.825455 527.825455 0 0 0-290.257454 153.6A538.996364 538.996364 0 0 0 20.852364 402.990545C-8.378182 502.877091-8.378182 612.538182 30.72 712.704c34.164364 85.364364 92.718545 163.467636 170.728727 217.088 82.944 56.133818 185.437091 80.523636 285.416728 87.877818a674.071273 674.071273 0 0 0 302.545454-46.359273 527.266909 527.266909 0 0 0 214.667636-163.467636c9.774545-14.615273 26.810182-46.359273 21.969455-63.394909-14.615273-39.098182-51.2-36.677818-60.974545-21.969455z m-334.196364-265.867637c-12.194909 78.103273-51.2 161.047273-107.333818 209.826909a228.538182 228.538182 0 0 1-82.944 53.713455c-31.744 9.681455-63.488 7.261091-87.877818-7.447273-24.389818-14.522182-43.938909-43.752727-56.133819-90.205091-19.549091-80.523636 7.354182-173.149091 48.872728-239.057454 29.230545-43.938909 73.169455-85.364364 124.369454-102.4 53.713455-17.128727 107.333818-2.513455 141.498182 41.425454 24.389818 36.584727 26.810182 92.718545 19.549091 134.144z" fill="#5F6269" fill-opacity=".6"/>
    </g>
</svg>