<?xml version="1.0" encoding="utf-8"?><svg xmlns="http://www.w3.org/2000/svg" xmlns:xlink="http://www.w3.org/1999/xlink" width="1024px" height="1024px" viewBox="0 0 1024 1024" version="1.1">
    <g>
        <path d="M93.090909 93.090909m93.090909 0l605.090909 0q93.090909 0 93.090909 93.090909l0 605.090909q0 93.090909-93.090909 93.090909l-605.090909 0q-93.090909 0-93.090909-93.090909l0-605.090909q0-93.090909 93.090909-93.090909Z" fill="#FF9393" fill-opacity="0"/>
        <path d="M682.449455 137.169455c18.245818 0 33.140364 14.894545 33.140363 33.140363v348.020364l65.722182-30.347637a32.954182 32.954182 0 0 1 31.744 2.187637 32.954182 32.954182 0 0 1 15.266909 27.927273v277.643636c0 8.843636-3.444364 17.175273-9.728 23.412364a32.907636 32.907636 0 0 1-23.412364 9.681454L176.267636 828.043636a33.186909 33.186909 0 0 1-33.047272-33.093818v-277.643636a32.954182 32.954182 0 0 1 47.104-30.068364l65.629091 30.440727V170.356364c0-18.245818 14.801455-33.140364 33.047272-33.140364h393.402182z m-500.968728 388.18909v264.424728l608.581818 0.791272v-264.471272l-74.472727 34.443636-229.841454 106.123636-304.267637-141.312zM677.329455 175.476364h-383.069091v360.029091l191.534545 88.948363 191.534546-88.436363V175.476364z m-195.304728 315.671272a24.808727 24.808727 0 1 1 0 49.570909 24.808727 24.808727 0 0 1 0-49.570909z m0.884364-265.495272c45.707636 0 82.897455 37.189818 82.897454 82.897454 0 39.470545-27.694545 72.610909-64.698181 80.896l0.046545 37.236364a19.130182 19.130182 0 1 1-38.260364 0V373.061818c0-5.585455 2.420364-10.705455 6.237091-14.149818a19.409455 19.409455 0 0 1 13.777455-5.771636 44.683636 44.683636 0 0 0 0-89.274182 44.683636 44.683636 0 0 0-44.683636 44.683636 19.130182 19.130182 0 1 1-38.260364 0c0-45.754182 37.236364-82.944 82.944-82.944z" fill="#5F6269"/>
    </g>
</svg>