<?xml version="1.0" encoding="utf-8"?><svg xmlns="http://www.w3.org/2000/svg" xmlns:xlink="http://www.w3.org/1999/xlink" width="1024px" height="1024px" viewBox="0 0 1024 1024" version="1.1">
    <g>
        <path d="M185.984 89.984H130.56a40.64 40.64 0 0 0-40.576 40.576v760.896c0 22.336 18.24 40.512 40.576 40.512h760.896a40.64 40.64 0 0 0 40.512-40.512V342.656l-252.544-252.672h-29.44V442.24c0 38.464-31.36 69.76-69.76 69.76h-324.48c-38.4 0-69.76-31.296-69.76-69.76V89.984zM891.52 1019.968H130.496A128.64 128.64 0 0 1 2.048 891.52V130.496C1.984 59.712 59.584 2.048 130.56 2.048h567.04c11.712 0 22.912 4.672 31.168 12.928l278.4 278.4a43.968 43.968 0 0 1 12.8 31.104v567.04a128.64 128.64 0 0 1-128.512 128.512zM278.784 419.328h278.4v-324.48h-278.4v324.48z" fill="#5F6269"/>
    </g>
</svg>