<?xml version="1.0" encoding="utf-8"?><svg xmlns="http://www.w3.org/2000/svg" xmlns:xlink="http://www.w3.org/1999/xlink" width="1024px" height="1024px" viewBox="0 0 1024 1024" version="1.1">
    <g>
        <path d="M1014.69978 112.203679a125.531981 125.531981 0 0 1 9.215235 47.100091 73.926664 73.926664 0 0 1-5.119575 26.62179 81.196461 81.196461 0 0 1-16.38264 25.597876c-8.088929 8.19132-15.358725 15.358725-21.80939 21.502215a881.590828 881.590828 0 0 0-16.894598 16.38264c-5.42675 5.324358-10.546325 10.23915-15.358725 14.33481L757.697111 72.168602c8.19132-7.47458 17.918513-16.485032 29.079187-27.133748 11.263065-10.546325 20.580692-18.942428 28.055271-25.085918A89.490172 89.490172 0 0 1 874.525814 0.084985c9.829584 0.409566 19.454385 1.945439 28.567229 4.607618 9.215235 2.764571 17.099381 5.836316 23.959612 9.215235 14.33481 7.576971 30.103101 20.683083 47.407265 39.420728 17.406555 18.737645 30.71745 38.396813 40.23986 58.875113zM220.24412 611.567032l28.66962-29.181578c14.846768-15.358725 33.584412-34.198762 56.008151-56.724892l74.438622-74.745796 82.629942-82.937116 219.220205-219.936945 190.755367 192.393631-219.220205 219.936945-81.606027 82.937116c-27.236139 26.62179-51.707708 50.990968-73.414706 73.209924l-54.062713 54.677062a441.819329 441.819329 0 0 1-48.943138 44.028345c-8.908061 6.860231-18.020904 12.28698-27.645705 16.382641a444.379117 444.379117 0 0 1-41.775733 17.406555 1410.442933 1410.442933 0 0 1-114.678481 36.86094 431.273004 431.273004 0 0 1-40.342252 9.215236c-18.328079 2.04783-30.512667-0.716741-36.656158-8.191321-6.14349-7.576971-7.884146-20.171126-5.119575-37.884855 1.33109-9.52241 4.607618-23.345262 9.727193-41.468558 5.119575-18.020904 10.546325-36.860941 16.280249-56.315326 5.733924-19.454385 11.365457-37.270507 16.792206-53.653147 5.42675-16.38264 9.931976-27.645705 13.310895-33.789195 4.09566-9.52241 8.600886-18.225687 13.720461-26.109833 5.119575-7.884146 12.389372-16.587423 21.911782-26.109833z" fill="#787D8B"/>
    </g>
</svg>