<?xml version="1.0" encoding="utf-8"?><svg xmlns="http://www.w3.org/2000/svg" xmlns:xlink="http://www.w3.org/1999/xlink" width="1024px" height="1024px" viewBox="0 0 1024 1024" version="1.1">
    <g>
        <path d="M0 0m93.090909 0l837.818182 0q93.090909 0 93.090909 93.090909l0 837.818182q0 93.090909-93.090909 93.090909l-837.818182 0q-93.090909 0-93.090909-93.090909l0-837.818182q0-93.090909 93.090909-93.090909Z" fill="#F8F8F9"/>
        <path d="M618.263273 615.796364c0-14.801455 16.011636-24.017455 28.811636-16.663273l145.780364 83.828364a19.223273 19.223273 0 0 1 0 33.326545l-145.780364 83.874909a19.223273 19.223273 0 0 1-28.858182-16.663273v-59.904H243.665455a21.783273 21.783273 0 1 1 0-43.613091h374.644363z m-238.312728-388.654546a19.223273 19.223273 0 0 1 28.765091 16.616727V305.803636l372.363637 0.046546a21.783273 21.783273 0 1 1 0 43.659636h-372.363637V411.461818c0 13.498182-13.451636 22.388364-25.553454 18.152727l-3.258182-1.536L234.123636 344.296727a19.269818 19.269818 0 0 1 0-33.326545z" fill="#787D8B"/>
    </g>
</svg>