<?xml version="1.0" encoding="utf-8"?><svg xmlns="http://www.w3.org/2000/svg" xmlns:xlink="http://www.w3.org/1999/xlink" width="1024px" height="1024px" viewBox="0 0 1024 1024" version="1.1">
    <g>
        <path d="M135.68 973.677714a86.016 86.016 0 0 1-85.357714-85.357714V135.68c0-39.789714 32.841143-85.357714 83.602285-85.357714h754.395429a86.308571 86.308571 0 0 1 85.430857 85.357714v752.64c0 46.153143-35.108571 85.357714-85.430857 85.357714H135.68zM682.422857 889.417143h205.824V689.371429H682.422857v199.972571z m-258.852571 0h173.714285V689.371429H423.570286v199.972571z m-289.645715 0h204.507429V689.371429H133.924571v199.972571zM682.422857 598.601143h205.824V393.362286H682.422857v205.238857z m-258.852571 0h173.714285V393.362286H423.570286v205.238857z m-289.645715 0h204.507429V393.362286H133.924571v205.238857z m0-464.896v169.984l754.468572 2.56V134.144L133.851429 133.705143z" fill="#5F6269"/>
    </g>
</svg>