<?xml version="1.0" encoding="utf-8"?><svg xmlns="http://www.w3.org/2000/svg" xmlns:xlink="http://www.w3.org/1999/xlink" width="1024px" height="1024px" viewBox="0 0 1024 1024" version="1.1">
    <g>
        <path d="M841.152 0A182.848 182.848 0 0 1 1024 182.848v658.304A182.848 182.848 0 0 1 841.152 1024H182.848A182.848 182.848 0 0 1 0 841.152V182.848A182.848 182.848 0 0 1 182.848 0h658.304z m0 73.152H182.848c-60.608 0-109.696 49.088-109.696 109.696v658.304c0 60.608 49.088 109.696 109.696 109.696h658.304c60.608 0 109.696-49.088 109.696-109.696V182.848c0-60.608-49.088-109.696-109.696-109.696z" fill="#5F6269"/>
        <path d="M533.76 208.896c-92.16 0-166.656 28.416-223.488 86.784-53.76 53.76-79.872 121.344-79.872 201.216 0 86.016 26.88 155.136 81.408 205.824 54.528 50.688 130.56 76.032 227.328 76.032 58.368 0 112.128-11.52 159.744-33.024a259.2 259.2 0 0 0 118.272-109.056H748.8c-19.968 27.648-46.08 49.92-79.104 66.048-36.096 16.128-79.872 24.576-130.56 24.576-75.264 0-132.864-18.432-173.568-54.528C321.024 632.832 299.52 575.232 299.52 499.2c0-69.12 20.736-125.184 62.976-168.96 42.24-44.544 98.304-66.816 167.424-66.816 64.512 0 115.968 18.432 154.368 55.296 34.56 33.792 52.224 76.032 52.224 125.184 0 46.848-13.056 86.784-38.4 119.808-21.504 28.416-43.776 43.008-66.048 43.008-12.288 0-17.664-5.376-17.664-16.128 0-7.68 3.072-24.576 10.752-50.688l52.992-190.464H613.632l-10.752 39.168c-13.056-36.096-36.864-53.76-70.656-53.76-46.08 0-86.016 20.736-119.04 62.976a219.712 219.712 0 0 0-50.688 142.848c0 34.56 9.984 62.976 31.488 86.016 21.504 23.04 49.152 34.56 82.944 34.56 36.864 0 67.584-16.896 90.624-49.92 4.608 32.256 23.04 48.384 55.296 48.384 43.008 0 82.176-22.272 116.736-66.816 33.792-46.08 51.456-96 51.456-149.76 0-63.744-20.736-117.504-62.208-160.512-47.616-49.152-112.128-73.728-195.072-73.728z m10.752 188.16c11.52 0 21.504 3.84 29.952 13.056 7.68 7.68 12.288 16.896 12.288 29.184 0 4.608-3.072 18.432-9.216 39.936l-15.36 56.832a95.232 95.232 0 0 1-33.792 49.152c-15.36 12.288-30.72 18.432-46.08 18.432-16.896 0-29.952-5.376-37.632-16.128-8.448-10.752-12.288-25.344-12.288-43.776 0-38.4 10.752-72.192 33.792-102.144 22.272-29.952 48.384-44.544 78.336-44.544z" fill="#5F6269"/>
    </g>
</svg>