<?xml version="1.0" encoding="utf-8"?><svg xmlns="http://www.w3.org/2000/svg" xmlns:xlink="http://www.w3.org/1999/xlink" width="1024px" height="1024px" viewBox="0 0 1024 1024" version="1.1">
    <g>
        <path d="M215.04 163.84v677.12h517.12v-34.56h61.44v44.8a51.2 51.2 0 0 1-51.2 51.2H204.8a51.2 51.2 0 0 1-51.2-51.2V153.6a51.2 51.2 0 0 1 51.2-51.2h347.9552a102.4 102.4 0 0 1 67.072 25.0368l138.4448 120.064a102.4 102.4 0 0 1 35.328 77.312v225.5872h-61.44V365.2096h-179.2V163.84H215.04z" fill="#787D8B"/>
        <path d="M836.3008 576.9728a10.24 10.24 0 0 0-2.4064 6.5536v65.28h-182.7328a25.6 25.6 0 0 0-25.6 25.6v12.8a25.6 25.6 0 0 0 25.6 25.6h182.784L833.8432 768a10.24 10.24 0 0 0 16.8448 7.8336l109.6192-92.672a10.24 10.24 0 0 0 1.2288-14.4384l-1.28-1.2288-109.568-91.7504a10.24 10.24 0 0 0-14.4384 1.28z" fill="#E92E5E"/>
    </g>
</svg>