<?xml version="1.0" encoding="utf-8"?><svg xmlns="http://www.w3.org/2000/svg" xmlns:xlink="http://www.w3.org/1999/xlink" width="1024px" height="1024px" viewBox="0 0 1024 1024" version="1.1">
    <g>
        <path d="M782.887385 35.84a118.153846 118.153846 0 0 1 117.602461 106.811077l0.551385 11.342769V315.076923a39.384615 39.384615 0 0 1-78.139077 7.089231L822.272 315.076923V153.993846a39.384615 39.384615 0 0 0-32.295385-38.754461l-7.08923-0.630154h-578.166154a39.384615 39.384615 0 0 0-38.833231 32.295384l-0.630154 7.089231v681.275077a39.384615 39.384615 0 0 0 32.295385 38.754462l7.089231 0.630153h578.166153a39.384615 39.384615 0 0 0 38.833231-32.295384l0.630154-7.089231V630.153846a39.384615 39.384615 0 0 1 78.139077-7.089231l0.630154 7.089231v205.115077a118.153846 118.153846 0 0 1-106.811077 117.602462l-11.342769 0.551384h-578.166154a118.153846 118.153846 0 0 1-117.681231-106.811077l-0.551385-11.342769V153.993846A118.153846 118.153846 0 0 1 193.299692 36.391385l11.34277-0.551385h578.166153z" fill="#5F6269"/>
        <path d="M818.648615 433.230769a39.384615 39.384615 0 0 1 7.089231 78.139077l-7.089231 0.630154h-405.661538a39.384615 39.384615 0 0 1-7.089231-78.139077l7.089231-0.630154h405.661538z" fill="#5F6269"/>
        <path d="M656.699077 287.192615a39.384615 39.384615 0 0 1 50.333538-4.489846l5.435077 4.568616L896.787692 472.615385l-184.32 185.344a39.384615 39.384615 0 0 1-60.416-50.097231l4.568616-5.513846L785.644308 472.615385 656.620308 342.882462a39.384615 39.384615 0 0 1-4.489846-50.25477l4.568615-5.513846z" fill="#5F6269"/>
    </g>
</svg>