<?xml version="1.0" encoding="utf-8"?><svg xmlns="http://www.w3.org/2000/svg" xmlns:xlink="http://www.w3.org/1999/xlink" width="1024px" height="1024px" viewBox="0 0 1024 1024" version="1.1">
    <g>
        <path d="M354.461538 0h551.384616c50.727385 0 91.923692 41.117538 91.923692 91.923692v551.384616c0 50.727385-41.196308 91.844923-91.923692 91.844923h-551.384616a91.923692 91.923692 0 0 1-91.923692-91.844923v-551.384616C262.537846 41.117538 303.734154 0 354.461538 0z m0 78.769231a13.154462 13.154462 0 0 0-13.154461 13.154461v551.384616c0 7.246769 5.907692 13.075692 13.154461 13.075692h551.384616a13.154462 13.154462 0 0 0 13.154461-13.075692v-551.384616A13.154462 13.154462 0 0 0 905.846154 78.769231h-551.384616z m301.922462 735.153231a39.384615 39.384615 0 0 1 78.769231 0V905.846154c0 50.727385-41.117538 91.923692-91.844923 91.923692h-551.384616A91.923692 91.923692 0 0 1 0 905.846154v-551.384616c0-50.727385 41.117538-91.923692 91.923692-91.923692h91.844923a39.384615 39.384615 0 1 1 0 78.769231H91.923692A13.154462 13.154462 0 0 0 78.769231 354.461538v551.384616c0 7.246769 5.907692 13.154462 13.154461 13.154461h551.384616a13.154462 13.154462 0 0 0 13.075692-13.154461v-91.923692z"/>
    </g>
</svg>