<?xml version="1.0" encoding="utf-8"?><svg xmlns="http://www.w3.org/2000/svg" xmlns:xlink="http://www.w3.org/1999/xlink" width="1024px" height="1024px" viewBox="0 0 1024 1024" version="1.1">
    <g>
        <path d="M512 512m0-512a512 512 0 1 0 0 1024 512 512 0 1 0 0-1024Z" fill="#FFFFFF"/>
        <path d="M512 256m0-64a64 64 0 1 0 0 128 64 64 0 1 0 0-128Z" fill="#5F6269" fill-opacity=".6"/>
        <path d="M512 512m0-64a64 64 0 1 0 0 128 64 64 0 1 0 0-128Z" fill="#5F6269" fill-opacity=".6"/>
        <path d="M512 768m0-64a64 64 0 1 0 0 128 64 64 0 1 0 0-128Z" fill="#5F6269" fill-opacity=".6"/>
    </g>
</svg>