<?xml version="1.0" encoding="utf-8"?><svg xmlns="http://www.w3.org/2000/svg" xmlns:xlink="http://www.w3.org/1999/xlink" width="1024px" height="1024px" viewBox="0 0 1024 1024" version="1.1">
    <g>
        <path d="M817.664 475.008a29.376 29.376 0 0 1-24.96-29.504c0-108.352-69.888-209.28-174.72-241.28-144.704-44.288-281.984 36.928-324.416 160-2.496 9.856-12.48 17.28-22.4 19.712C153.856 406.08 64 509.504 64 632.576v2.496C64 745.792 158.848 832 268.672 832h511.552c99.84-2.432 179.712-81.28 179.712-179.712 2.496-86.144-59.904-157.568-142.272-177.28zM667.904 576l-117.248 115.648a43.84 43.84 0 0 1-44.928 9.856h-2.496c-4.992-2.432-9.984-4.928-14.976-9.856L370.944 576a41.28 41.28 0 0 1 0-56.64 42.688 42.688 0 0 1 57.408 0l49.92 49.28v-130.56c0-22.144 17.472-39.36 39.936-39.36 22.4 0 39.936 17.28 39.936 39.36v130.56l49.92-49.28a41.152 41.152 0 0 1 59.904 0c17.472 14.72 17.472 39.36 0 56.64z" fill="#AFB0B4" fill-opacity=".8"/>
    </g>
</svg>