<?xml version="1.0" encoding="utf-8"?><svg xmlns="http://www.w3.org/2000/svg" xmlns:xlink="http://www.w3.org/1999/xlink" width="1024px" height="1024px" viewBox="0 0 1024 1024" version="1.1">
    <g>
        <path d="M507.904 112.384a35.136 35.136 0 0 0-35.2 35.136v728.96a35.136 35.136 0 0 0 70.336 0V147.52a35.2 35.2 0 0 0-35.2-35.2zM332.928 245.248a47.232 47.232 0 1 0 94.464 0 47.232 47.232 0 0 0-94.464 0z m0 255.744a47.232 47.232 0 1 0 94.464 0 47.232 47.232 0 0 0-94.464 0z m0 274.496a47.232 47.232 0 1 0 94.464 0 47.232 47.232 0 0 0-94.464 0zM207.808 374.784a47.232 47.232 0 1 0 94.4 0 47.232 47.232 0 0 0-94.4 0z m0 274.432a47.232 47.232 0 1 0 94.4 0 47.232 47.232 0 0 0-94.4 0zM97.92 500.992a47.232 47.232 0 1 0 94.464 0 47.232 47.232 0 0 0-94.464 0z m500.672-254.08a47.232 47.232 0 1 0 94.4 0 47.232 47.232 0 0 0-94.4 0z m0 255.744a47.232 47.232 0 1 0 94.4 0 47.232 47.232 0 0 0-94.4 0z m0 274.496a47.232 47.232 0 1 0 94.4 0 47.232 47.232 0 0 0-94.4 0z m133.888-400.768a47.232 47.232 0 1 0 94.464 0 47.232 47.232 0 0 0-94.464 0z m0 274.496a47.232 47.232 0 1 0 94.464 0 47.232 47.232 0 0 0-94.464 0z m101.056-148.224a47.232 47.232 0 1 0 94.4 0 47.232 47.232 0 0 0-94.4 0z" fill="#5F6269"/>
    </g>
</svg>