<?xml version="1.0" encoding="utf-8"?><svg xmlns="http://www.w3.org/2000/svg" xmlns:xlink="http://www.w3.org/1999/xlink" width="1024px" height="1024px" viewBox="0 0 1024 1024" version="1.1">
    <g>
        <path d="M674.909091 162.909091H186.181818A69.818182 69.818182 0 0 0 116.363636 232.727273v395.636363l0.139637 4.096A69.818182 69.818182 0 0 0 186.181818 698.181818h46.545455v69.818182l0.139636 2.699636a23.272727 23.272727 0 0 0 33.512727 18.152728L447.720727 698.181818H674.909091a69.818182 69.818182 0 0 0 69.818182-69.818182V232.727273a69.818182 69.818182 0 0 0-69.818182-69.818182zM186.181818 209.454545h488.727273a23.272727 23.272727 0 0 1 23.272727 23.272728v395.636363a23.272727 23.272727 0 0 1-23.272727 23.272728h-232.727273l-2.699636 0.139636a23.272727 23.272727 0 0 0-7.726546 2.327273L279.272727 730.298182V674.909091a23.272727 23.272727 0 0 0-23.272727-23.272727H186.181818a23.272727 23.272727 0 0 1-23.272727-23.272728V232.727273a23.272727 23.272727 0 0 1 23.272727-23.272728z" fill="#5F6269"/>
        <path d="M837.818182 302.545455a23.272727 23.272727 0 0 0-23.133091 20.57309L814.545455 325.818182v395.636363a23.272727 23.272727 0 0 1-20.573091 23.133091L791.272727 744.727273h-69.818182a23.272727 23.272727 0 0 0-23.13309 20.573091L698.181818 768v49.570909l-103.470545-68.933818a23.272727 23.272727 0 0 0-10.146909-3.723636L581.818182 744.727273h-139.636364a23.272727 23.272727 0 0 0-2.699636 46.405818L442.181818 791.272727h132.608l133.771637 89.181091a23.272727 23.272727 0 0 0 36.026181-16.756363L744.727273 861.090909V791.272727h46.545454a69.818182 69.818182 0 0 0 69.678546-65.722182l0.139636-4.096V325.818182a23.272727 23.272727 0 0 0-23.272727-23.272727z" fill="#5F6269"/>
    </g>
</svg>