<?xml version="1.0" encoding="utf-8"?><svg xmlns="http://www.w3.org/2000/svg" xmlns:xlink="http://www.w3.org/1999/xlink" width="1024px" height="1024px" viewBox="0 0 1024 1024" version="1.1">
    <g>
        <path d="M9.142857 0m128 0l768 0q128 0 128 128l0 768q0 128-128 128l-768 0q-128 0-128-128l0-768q0-128 128-128Z" fill="#FF9393" fill-opacity="0"/>
        <path d="M876.022857 741.056c-16.64 0-32.064 4.352-45.504 11.904l-69.12-59.2V433.088L548.854857 320.384V255.616a97.728 97.728 0 1 0-126.528-93.312c0 42.688 27.52 79.104 65.728 92.352v67.2L278.582857 433.088v260.864l-61.76 61.76a92.8 92.8 0 0 0-142.784 78.08c0 51.072 41.6 92.736 92.736 92.736a92.8 92.8 0 0 0 87.744-122.752l79.872-79.936 185.6 98.624 184.256-97.792 86.08 73.856a92.8 92.8 0 0 0 85.76 128.128c51.072 0 92.736-41.664 92.736-92.8 0-51.008-41.6-92.8-92.8-92.8z m-360.96-213.12l-131.2-70.528 136.192-72.32 128 67.968-132.992 74.88z m33.792 50.56l141.696-79.872v153.024l-141.696 75.264V578.56z m-28.736-453.184a37.056 37.056 0 1 1 0 74.048 37.056 37.056 0 0 1 0-74.048zM166.710857 865.92a32.064 32.064 0 1 1 0-64.128 32.064 32.064 0 0 1 0 64.128z m182.592-358.08L488.182857 582.4v142.976l-138.88-73.6V507.84z m526.72 358.08a32.064 32.064 0 1 1 0-64.128 32.064 32.064 0 0 1 0 64.128z" fill="#5F6269"/>
    </g>
</svg>