<?xml version="1.0" encoding="utf-8"?><svg xmlns="http://www.w3.org/2000/svg" xmlns:xlink="http://www.w3.org/1999/xlink" width="1024px" height="1024px" viewBox="0 0 1024 1024" version="1.1">
    <g>
        <path d="M18.417259 1.052357m127.868455 0l767.210732 0q127.868455 0 127.868456 127.868456l0 767.210732q0 127.868455-127.868456 127.868455l-767.210732 0q-127.868455 0-127.868455-127.868455l0-767.210732q0-127.868455 127.868455-127.868456Z" fill="#FF9393" fill-opacity="0"/>
        <path d="M535.517292 120.8651c13.681925 0 27.172047 3.708185 38.999879 10.677016l273.127021 158.109345c24.167138 14.06553 38.999879 40.150695 38.999879 68.409624v316.21869c0 28.194994-14.832741 54.280159-38.999879 68.409623l-273.127021 158.045411c-24.103204 14.129464-53.896554 14.129464-77.999758 0L223.326459 742.689398a79.278442 79.278442 0 0 1-38.999879-68.409623V358.125019c0-28.258929 14.896675-54.344094 38.999879-68.409624l273.190954-158.109345c11.827832-6.968831 25.25402-10.677016 38.999879-10.677016zM262.326337 391.11508v283.164695l234.127142 135.476628V528.253999l-231.441904-135.34876-2.685238-1.790159z m546.317976 0.255737L574.517171 528.317933v281.374536l234.127142-135.412694V391.370817zM535.517292 196.755028v3.196712L312.131101 329.162814l223.450126 130.617627 226.007494-132.152049-226.071429-130.873364z" fill="#5F6269"/>
    </g>
</svg>