<?xml version="1.0" encoding="utf-8"?><svg xmlns="http://www.w3.org/2000/svg" xmlns:xlink="http://www.w3.org/1999/xlink" width="1024px" height="1024px" viewBox="0 0 1024 1024" version="1.1">
    <g>
        <path d="M498.944 0a128 128 0 0 1 83.84 31.296l173.056 150.08a128 128 0 0 1 44.16 96.64V560h-76.8V328.512H499.2V76.8H76.8v846.4h646.4v-43.2h76.8v56a64 64 0 0 1-64 64H64a64 64 0 0 1-64-64V64a64 64 0 0 1 64-64h434.944z" fill="#787D8B"/>
        <path d="M853.376 593.216a12.8 12.8 0 0 0-3.008 8.192v81.6H621.952a32 32 0 0 0-32 32v16a32 32 0 0 0 32 32h228.48L850.304 832a12.8 12.8 0 0 0 21.056 9.792l137.024-115.84a12.8 12.8 0 0 0 1.536-18.048l-1.6-1.536-136.96-114.688a12.8 12.8 0 0 0-18.048 1.6z" fill="#E92E5E"/>
    </g>
</svg>