<?xml version="1.0" encoding="utf-8"?><svg xmlns="http://www.w3.org/2000/svg" xmlns:xlink="http://www.w3.org/1999/xlink" width="1024px" height="1024px" viewBox="0 0 1024 1024" version="1.1">
    <g>
        <path d="M0 0h1024v1024H0z" fill="#D8D8D8" fill-opacity="0"/>
        <path d="M864.768 358.912l-326.656-217.7536L209.92 339.456v395.6736l327.9872 184.576 343.04-204.4416-16.1792-356.2496zM537.088 189.696l287.744 191.7952 14.1312 311.0912-301.6192 179.7632L250.88 711.1168V362.496l286.1568-172.8512z" fill="#5F6269"/>
        <path d="M889.2416 733.9008L536.9344 127.0272 205.4656 733.9008h683.776z m-351.0272-502.5792l262.0928 451.3792H291.7376l246.4768-451.3792z" fill="#C3C7CF"/>
        <path d="M537.6 179.2m-76.8 0a76.8 76.8 0 1 0 153.6 0 76.8 76.8 0 1 0-153.6 0Z" fill="#E92E5E"/>
        <path d="M537.6 896m-76.8 0a76.8 76.8 0 1 0 153.6 0 76.8 76.8 0 1 0-153.6 0Z" fill="#E92E5E"/>
        <path d="M230.4 691.2m-76.8 0a76.8 76.8 0 1 0 153.6 0 76.8 76.8 0 1 0-153.6 0Z" fill="#5F6269"/>
        <path d="M844.8 691.2m-76.8 0a76.8 76.8 0 1 0 153.6 0 76.8 76.8 0 1 0-153.6 0Z" fill="#5F6269"/>
        <path d="M844.8 384m-76.8 0a76.8 76.8 0 1 0 153.6 0 76.8 76.8 0 1 0-153.6 0Z" fill="#5F6269"/>
        <path d="M230.4 384m-76.8 0a76.8 76.8 0 1 0 153.6 0 76.8 76.8 0 1 0-153.6 0Z" fill="#5F6269"/>
    </g>
</svg>