<?xml version="1.0" encoding="utf-8"?><svg xmlns="http://www.w3.org/2000/svg" xmlns:xlink="http://www.w3.org/1999/xlink" width="1024px" height="1024px" viewBox="0 0 1024 1024" version="1.1">
    <g>
        <path d="M0 0h1024v1024H0z" fill="#D8D8D8" fill-opacity="0"/>
        <path d="M869.76 356.096L538.24 135.104 204.8 336.512v401.536l333.184 187.52 348.224-207.488-16.448-361.984zM536.96 195.712l282.88 188.544 13.824 305.472-296.384 176.64L256 708.096V365.376l280.896-169.664z" fill="#5F6269"/>
        <path d="M883.712 730.688L536.96 133.568l-326.144 597.12h672.832zM538.176 224.832l267.712 461.056H286.4l251.776-461.056z" fill="#5F6269"/>
        <path d="M537.6 179.2m-76.8 0a76.8 76.8 0 1 0 153.6 0 76.8 76.8 0 1 0-153.6 0Z" fill="#5F6269"/>
        <path d="M537.6 896m-76.8 0a76.8 76.8 0 1 0 153.6 0 76.8 76.8 0 1 0-153.6 0Z" fill="#5F6269"/>
        <path d="M230.4 691.2m-76.8 0a76.8 76.8 0 1 0 153.6 0 76.8 76.8 0 1 0-153.6 0Z" fill="#5F6269"/>
        <path d="M844.8 691.2m-76.8 0a76.8 76.8 0 1 0 153.6 0 76.8 76.8 0 1 0-153.6 0Z" fill="#5F6269"/>
        <path d="M844.8 384m-76.8 0a76.8 76.8 0 1 0 153.6 0 76.8 76.8 0 1 0-153.6 0Z" fill="#5F6269"/>
        <path d="M230.4 384m-76.8 0a76.8 76.8 0 1 0 153.6 0 76.8 76.8 0 1 0-153.6 0Z" fill="#5F6269"/>
    </g>
</svg>