<?xml version="1.0" encoding="utf-8"?><svg xmlns="http://www.w3.org/2000/svg" xmlns:xlink="http://www.w3.org/1999/xlink" width="1024px" height="1024px" viewBox="0 0 1024 1024" version="1.1">
    <g>
        <path d="M952.32 121.929143H94.134857c-32.182857 0-58.514286 26.331429-58.514286 58.514286v760.685714c0 32.182857 26.331429 58.514286 58.514286 58.514286H952.32c32.182857 0 58.514286-26.331429 58.514286-58.514286v-760.685714c0-32.182857-25.819429-58.514286-58.514286-58.514286zM932.790857 921.6h-819.2V199.899429h819.2V921.6z" fill="#4C4C4C"/>
        <path d="M778.24 726.528H307.712a37.595429 37.595429 0 0 1-37.595429-37.522286v-2.413714c0-20.992 17.115429-37.595429 37.595429-37.595429h470.528c20.992 0 37.522286 17.115429 37.522286 37.595429v2.413714c0 20.48-16.530286 37.522286-37.522286 37.522286z m-1.462857-175.542857H523.190857A39.131429 39.131429 0 0 1 484.205714 512c0-21.430857 17.554286-38.985143 38.985143-38.985143h253.586286c21.430857 0 38.985143 17.554286 38.985143 38.985143a38.765714 38.765714 0 0 1-38.985143 38.985143z m-29.257143-273.042286a39.131429 39.131429 0 0 1-38.985143-38.985143v-175.542857c0-21.504 17.554286-39.058286 38.985143-39.058286 21.430857 0 38.985143 17.554286 38.985143 39.058286v175.542857a38.765714 38.765714 0 0 1-38.985143 38.985143z m-448.585143 0a39.131429 39.131429 0 0 1-39.058286-38.985143v-175.542857a39.131429 39.131429 0 0 1 78.043429 0v175.542857a38.765714 38.765714 0 0 1-38.985143 38.985143z" fill="#4C4C4C"/>
    </g>
</svg>