<?xml version="1.0" encoding="utf-8"?><svg xmlns="http://www.w3.org/2000/svg" xmlns:xlink="http://www.w3.org/1999/xlink" width="1024px" height="1024px" viewBox="0 0 1024 1024" version="1.1">
    <g>
        <path d="M601.560615 64.039385c49.545846 0 89.639385 40.093538 89.639385 89.560615h229.376a39.384615 39.384615 0 0 1 39.384615 39.384615v10.870154a39.384615 39.384615 0 0 1-39.384615 39.384616h-50.176v614.4a102.4 102.4 0 0 1-102.4 102.4h-512a102.4 102.4 0 0 1-102.4-102.4v-614.4h-50.176a39.384615 39.384615 0 0 1-39.384615-39.384616V192.984615a39.384615 39.384615 0 0 1 39.384615-39.384615h229.376c0-49.467077 40.172308-89.560615 89.639385-89.560615h179.12123z m190.070154 179.2h-559.261538v614.4a23.630769 23.630769 0 0 0 18.195692 23.000615l5.435077 0.630154h512a23.630769 23.630769 0 0 0 23.000615-18.274462l0.630154-5.435077v-614.4z m-365.174154 143.36a39.384615 39.384615 0 0 1 39.384616 39.384615v279.630769a39.384615 39.384615 0 0 1-39.384616 39.384616h-10.791384a39.384615 39.384615 0 0 1-39.384616-39.384616v-279.630769a39.384615 39.384615 0 0 1 39.384616-39.384615h10.791384z m179.2 0a39.384615 39.384615 0 0 1 39.384616 39.384615v279.630769a39.384615 39.384615 0 0 1-39.384616 39.384616h-10.791384a39.384615 39.384615 0 0 1-39.384616-39.384616v-279.630769a39.384615 39.384615 0 0 1 39.384616-39.384615h10.791384z"/>
    </g>
</svg>