<?xml version="1.0" encoding="utf-8"?><svg xmlns="http://www.w3.org/2000/svg" xmlns:xlink="http://www.w3.org/1999/xlink" width="1024px" height="1024px" viewBox="0 0 1024 1024" version="1.1">
    <g>
        <path d="M0 0h1024v1024H0z" fill="#D8D8D8" fill-opacity="0"/>
        <path d="M384.9216 597.3504h254.1568A197.0176 197.0176 0 0 1 834.304 768l15.2064 112.64a51.2 51.2 0 0 1-50.7392 58.0096H225.2288a51.2 51.2 0 0 1-50.688-58.0096l15.1552-112.64a197.0176 197.0176 0 0 1 195.2256-170.6496z" fill="#C3C7CF"/>
        <path d="M512 341.3504m-213.3504 0a213.3504 213.3504 0 1 0 426.7008 0 213.3504 213.3504 0 1 0-426.7008 0Z" fill="#5F6269"/>
        <path d="M643.7888 743.5264h89.9584a20.48 20.48 0 0 1 20.1728 16.9984l7.9872 46.6944a10.24 10.24 0 0 1-10.0864 11.9808H623.104a10.24 10.24 0 0 1-9.984-12.4928l10.752-47.2576a20.48 20.48 0 0 1 19.968-15.9232z" fill="#E92E5E"/>
    </g>
</svg>