<?xml version="1.0" encoding="utf-8"?><svg xmlns="http://www.w3.org/2000/svg" xmlns:xlink="http://www.w3.org/1999/xlink" width="1024px" height="1024px" viewBox="0 0 1024 1024" version="1.1">
    <g>
        <path d="M643.0208 102.4h120.5248a3.584 3.584 0 0 1 3.584 3.584v243.0464a3.584 3.584 0 0 1-3.584 3.584h-120.5248a3.584 3.584 0 0 1-3.584-3.584V105.984a3.584 3.584 0 0 1 3.584-3.584z m-125.1328 561.664h120.5248a3.584 3.584 0 0 1 3.584 3.584v243.0464a3.584 3.584 0 0 1-3.584 3.584h-120.5248a3.584 3.584 0 0 1-3.584-3.584V667.648a3.584 3.584 0 0 1 3.584-3.584z m-367.2576 82.0736H494.592a3.584 3.584 0 0 1 3.584 3.584v78.848a3.584 3.584 0 0 1-3.584 3.584H150.6304a3.584 3.584 0 0 1-3.584-3.584v-78.848a3.584 3.584 0 0 1 3.584-3.584z m511.1808 0h221.8496a3.584 3.584 0 0 1 3.584 3.584v78.848a3.584 3.584 0 0 1-3.584 3.584h-221.8496a3.584 3.584 0 0 1-3.584-3.584v-78.848a3.584 3.584 0 0 1 3.584-3.584zM150.6304 184.4736h468.992a3.584 3.584 0 0 1 3.584 3.584v78.848a3.584 3.584 0 0 1-3.584 3.584h-468.992a3.584 3.584 0 0 1-3.584-3.584v-78.848a3.584 3.584 0 0 1 3.584-3.584z m636.2624 0h96.768a3.584 3.584 0 0 1 3.584 3.584v78.848a3.584 3.584 0 0 1-3.584 3.584h-96.768a3.584 3.584 0 0 1-3.584-3.584v-78.848a3.584 3.584 0 0 1 3.584-3.584z" fill="#787D8B"/>
        <path d="M362.5984 387.7888H242.0736a3.584 3.584 0 0 0-3.584 3.584v243.0464c0 1.9456 1.6384 3.584 3.584 3.584h120.5248a3.584 3.584 0 0 0 3.584-3.584V391.3728a3.584 3.584 0 0 0-3.584-3.584zM883.6608 469.9136h-497.664a3.584 3.584 0 0 0-3.584 3.584v78.848c0 1.9456 1.536 3.584 3.584 3.584h497.664a3.584 3.584 0 0 0 3.584-3.584v-78.848a3.584 3.584 0 0 0-3.584-3.584zM218.7264 469.9136H151.296a3.584 3.584 0 0 0-3.584 3.584v78.848c0 1.9456 1.5872 3.584 3.584 3.584h67.4304a3.584 3.584 0 0 0 3.584-3.584v-78.848a3.584 3.584 0 0 0-3.584-3.584z" fill="#E92E5E"/>
    </g>
</svg>