<?xml version="1.0" encoding="utf-8"?><svg xmlns="http://www.w3.org/2000/svg" xmlns:xlink="http://www.w3.org/1999/xlink" width="1024px" height="1024px" viewBox="0 0 1024 1024" version="1.1">
    <g>
        <path d="M0 0m128 0l768 0q128 0 128 128l0 768q0 128-128 128l-768 0q-128 0-128-128l0-768q0-128 128-128Z" fill="#FF6666" fill-opacity="0"/>
        <path d="M528.064 334.272a189.12 189.12 0 0 0-189.12 188.736 189.12 189.12 0 0 0 378.24 0 189.12 189.12 0 0 0-189.12-188.736z m0 311.488c-67.84 0-123.008-55.04-123.008-122.752a123.072 123.072 0 0 1 246.08 0A123.072 123.072 0 0 1 528 645.76z" fill="#5F6269"/>
        <path d="M983.232 598.784l-61.248-35.264a399.552 399.552 0 0 0 0-81.024l61.248-35.264a48.512 48.512 0 0 0 17.792-66.304l-113.152-195.52a48.768 48.768 0 0 0-66.432-17.792l-61.248 35.264a395.84 395.84 0 0 0-70.336-40.576V91.84a48.64 48.64 0 0 0-48.64-48.576H414.912a48.64 48.64 0 0 0-48.64 48.576v70.464a395.84 395.84 0 0 0-70.272 40.576l-61.248-35.2a48.768 48.768 0 0 0-66.496 17.728L55.104 380.928a48.512 48.512 0 0 0 17.856 66.304l61.248 35.264a399.552 399.552 0 0 0 0 81.024l-61.248 35.264a48.512 48.512 0 0 0-17.856 66.304l113.152 195.52a48.768 48.768 0 0 0 66.496 17.792l61.248-35.264c22.016 15.872 45.568 29.44 70.272 40.576v70.464a48.64 48.64 0 0 0 48.64 48.576h226.304c26.88 0 48.64-21.76 48.64-48.576v-70.464a395.776 395.776 0 0 0 70.336-40.576l61.248 35.264a48.768 48.768 0 0 0 66.432-17.792l113.152-195.52a48.512 48.512 0 0 0-17.792-66.304z m-143.872 213.824l-56.128-32.32a48.512 48.512 0 0 0-53.952 3.52 329.728 329.728 0 0 1-75.52 43.584 48.32 48.32 0 0 0-29.952 44.8v64.64H432.384v-64.64a48.32 48.32 0 0 0-30.08-44.8 329.792 329.792 0 0 1-75.456-43.52 48.512 48.512 0 0 0-53.952-3.584l-56.128 32.32-95.68-165.376 56.064-32.32a48.32 48.32 0 0 0 23.936-48.32 332.8 332.8 0 0 1 0-87.168 48.32 48.32 0 0 0-23.936-48.32l-56.064-32.256 95.68-165.44 56.128 32.32a48.512 48.512 0 0 0 53.952-3.52 329.792 329.792 0 0 1 75.52-43.584 48.32 48.32 0 0 0 30.016-44.8v-64.64h191.36v64.64c0 19.712 11.84 37.312 30.08 44.8 26.88 11.072 52.288 25.728 75.52 43.52 15.616 12.096 36.8 13.44 53.952 3.584l56.064-32.32 95.744 165.44-56.128 32.256a48.32 48.32 0 0 0-23.872 48.32 332.672 332.672 0 0 1 0 87.168 48.32 48.32 0 0 0 23.872 48.32l56.128 32.32-95.744 165.376z" fill="#5F6269"/>
    </g>
</svg>