<?xml version="1.0" encoding="utf-8"?><svg xmlns="http://www.w3.org/2000/svg" xmlns:xlink="http://www.w3.org/1999/xlink" width="1024px" height="1024px" viewBox="0 0 1024 1024" version="1.1">
    <g>
        <path d="M0 0h1024v1024H0z" fill="#D8D8D8" fill-opacity="0"/>
        <path d="M37.952 105.408h211.2v57.728H101.76v689.92h147.456v57.728H37.952V105.408z m750.208 0h211.264V910.72h-211.264v-57.792h147.456V163.2h-147.456V105.408zM526.016 190.72c55.168 0 100.032 14.656 132.8 45.696 31.872 29.312 48.256 69.824 48.256 121.6 0 38.784-11.2 72.384-31.872 100.864-8.64 10.368-32.768 32.768-70.72 66.368a173.12 173.12 0 0 0-39.68 46.592 123.52 123.52 0 0 0-16.384 63.808v19.84H478.592v-19.84c0-28.48 5.12-53.44 16.384-75.008 11.2-25.856 40.512-58.624 87.04-100.032 13.824-13.824 23.36-24.128 29.376-31.04 16.384-21.568 24.96-43.968 24.96-68.16 0-34.496-9.472-61.184-28.416-80.192-20.672-20.672-49.152-30.144-85.376-30.144-42.24 0-74.176 13.76-95.744 42.24-18.048 24.128-27.52 56.96-27.52 99.2H330.24c0-60.416 17.28-108.672 50.88-144.896 35.392-37.952 83.648-56.96 144.896-56.96z m-12.096 525.12c14.72 0 26.752 4.288 37.12 14.72 9.472 9.408 14.656 21.504 14.656 36.16 0 15.552-5.184 27.584-14.72 37.12a54.4 54.4 0 0 1-37.056 14.592 49.984 49.984 0 0 1-37.12-14.656 50.176 50.176 0 0 1-15.488-37.056c0-14.656 5.184-26.752 15.552-36.224 9.472-10.368 21.568-14.656 37.12-14.656z" fill="#000000" fill-opacity=".451"/>
    </g>
</svg>