<?xml version="1.0" encoding="utf-8"?><svg xmlns="http://www.w3.org/2000/svg" xmlns:xlink="http://www.w3.org/1999/xlink" width="1024px" height="1024px" viewBox="0 0 1024 1024" version="1.1">
    <g>
        <path d="M511.36 127.36a382.336 382.336 0 0 1 271.616 112.512A382.336 382.336 0 0 1 895.36 511.36a382.336 382.336 0 0 1-112.512 271.616 382.336 382.336 0 0 1-271.616 112.448 382.336 382.336 0 0 1-271.616-112.512 382.336 382.336 0 0 1-112.448-271.552 382.336 382.336 0 0 1 112.512-271.616 382.336 382.336 0 0 1 271.552-112.512m0-64A448 448 0 1 0 511.36 959.36a448 448 0 0 0 0-896z" fill="#AFB0B4" fill-opacity=".8"/>
        <path d="M510.976 181.184a329.92 329.92 0 0 0-329.984 329.984 329.92 329.92 0 0 0 329.984 330.048 329.92 329.92 0 0 0 330.048-330.048 329.92 329.92 0 0 0-330.048-329.984z m199.04 305.024a33.024 33.024 0 0 1-33.024 33.024H479.68a33.024 33.024 0 0 1-32.96-33.024V289.024a33.024 33.024 0 0 1 65.92 0V453.12h164.352c18.24 0 33.024 14.784 33.024 33.024z" fill="#AFB0B4" fill-opacity=".8"/>
    </g>
</svg>