<?xml version="1.0" encoding="utf-8"?><svg xmlns="http://www.w3.org/2000/svg" xmlns:xlink="http://www.w3.org/1999/xlink" width="1024px" height="1024px" viewBox="0 0 1024 1024" version="1.1">
    <g>
        <path d="M202.496 525.312L490.496 295.2192a46.08 46.08 0 0 1 57.4976 0l288.9728 230.0928a46.08 46.08 0 0 1 17.3568 36.0448V926.72a46.08 46.08 0 0 1-46.08 46.08H231.2192a46.08 46.08 0 0 1-46.08-46.08v-365.4144a46.08 46.08 0 0 1 17.3568-35.9936z" fill="#C3C7CF"/>
        <path d="M58.4192 472.2688l455.8336-365.1584a9.216 9.216 0 0 1 11.6736 0.1024l439.7568 365.312a9.216 9.216 0 0 1 1.1776 13.0048l-32 38.2464a9.216 9.216 0 0 1-12.9536 1.1776l-396.8-329.6256a9.216 9.216 0 0 0-11.6736-0.1024l-412.16 330.24a9.216 9.216 0 0 1-12.9536-1.3824l-31.3344-38.8096a9.216 9.216 0 0 1 1.4336-13.0048z" fill="#5F6269"/>
        <path d="M489.2672 743.424h59.904a46.08 46.08 0 0 1 46.08 46.08v181.1968h-152.064v-181.248a46.08 46.08 0 0 1 46.08-46.08z" fill="#E92E5E"/>
    </g>
</svg>