<?xml version="1.0" encoding="utf-8"?><svg xmlns="http://www.w3.org/2000/svg" xmlns:xlink="http://www.w3.org/1999/xlink" width="1024px" height="1024px" viewBox="0 0 1024 1024" version="1.1">
    <g>
        <path d="M986.592813 129.925512a35.742919 35.742919 0 0 0-35.742919 35.664191v85.814498A511.895291 511.895291 0 0 0 393.055656 13.642931a509.690881 509.690881 0 0 0-392.857198 460.564049 35.585462 35.585462 0 0 0 33.066137 38.419702 35.742919 35.742919 0 0 0 35.742919-32.908679 438.3625 438.3625 0 0 1 351.130883-396.24254 440.094536 440.094536 0 0 1 478.120593 229.101091h-95.025779a35.979106 35.979106 0 1 0 0 71.879483h183.438331a35.742919 35.742919 0 0 0 35.742919-35.585461V165.589703a35.742919 35.742919 0 0 0-35.742919-35.664191z m0 382.150068a35.900377 35.900377 0 0 0-38.57716 32.82995 438.3625 438.3625 0 0 1-351.130882 396.24254 440.094536 440.094536 0 0 1-478.120593-229.101091h101.245362a35.979106 35.979106 0 1 0 0-71.879483H36.571209a35.821648 35.821648 0 0 0-35.74292 35.66419v182.651042a35.979106 35.979106 0 0 0 72.11567 0V772.117128a511.895291 511.895291 0 0 0 557.794238 237.76127A509.690881 509.690881 0 0 0 1023.595395 549.393077a35.585462 35.585462 0 0 0-35.270546-37.238768h-1.653307z" fill="#5F6269"/>
    </g>
</svg>