<?xml version="1.0" encoding="utf-8"?><svg xmlns="http://www.w3.org/2000/svg" xmlns:xlink="http://www.w3.org/1999/xlink" width="1024px" height="1024px" viewBox="0 0 1024 1024" version="1.1">
    <g>
        <path d="M877.568 21.777067c-43.2128-38.365867-95.505067-23.210667-146.773333 23.210666-8.055467 7.031467-15.018667 14.062933-23.1424 22.186667a490.496 490.496 0 0 0-35.157334 42.325333 100.898133 100.898133 0 0 0-39.253333-8.055466H204.936533A103.082667 103.082667 0 0 0 102.4 204.322133v429.602134a103.082667 103.082667 0 0 0 102.536533 102.877866h301.6704c4.027733 20.206933 6.007467 34.269867 6.007467 34.269867s0 4.096 1.024 9.079467c-2.048 38.365867-1.024 78.711467 2.048 115.029333 3.959467 48.401067 10.990933 89.7024 21.0944 111.957333l6.007467-3.072c-14.062933-43.349333-20.138667-100.829867-17.066667-166.434133 3.959467-100.829867 27.101867-221.866667 69.358933-348.910933 72.362667-191.624533 171.895467-344.951467 264.3968-417.518934C775.031467 146.773333 662.459733 391.850667 628.258133 482.645333a1704.072533 1704.072533 0 0 0-81.442133 288.426667c28.125867-85.674667 118.647467-121.992533 118.647467-121.992533s44.2368-54.4768 96.529066-133.12c-31.197867 7.031467-81.442133 19.114667-98.577066 26.2144l-32.1536 14.1312S712.704 506.88 783.018667 483.669333c94.481067-152.234667 200.021333-368.093867 94.481066-461.892266z m-365.909333 445.781333c10.0352 20.138667 18.0224 46.421333 23.074133 65.536 1.024 5.051733 2.048 10.103467 3.003733 14.1312 2.048 9.079467 3.003733 16.110933 3.003734 16.110933l-3.959467-12.0832c-1.024-2.048-1.024-4.096-2.048-6.075733 0-1.024-1.024-2.048-1.024-3.003733-6.007467-13.1072-22.1184-41.3696-29.149867-54.4768-6.007467 18.158933-11.0592 34.269867-16.042666 49.425066 20.0704 37.341867 32.085333 100.829867 32.085333 100.829867s-0.955733-4.027733-6.007467-18.158933c-3.959467-13.1072-27.101867-52.4288-32.085333-61.44-9.079467 33.245867-13.1072 56.456533-9.079467 62.464 4.983467 8.055467 9.0112 21.162667 14.062934 35.293866H204.936533a21.2992 21.2992 0 0 1-21.0944-21.162666V204.322133c0-11.127467 9.079467-21.162667 21.162667-21.162666h417.1776c-52.224 89.7024-93.525333 196.608-110.592 284.398933z" fill="#AFB0B4"/>
    </g>
</svg>