<?xml version="1.0" encoding="utf-8"?><svg xmlns="http://www.w3.org/2000/svg" xmlns:xlink="http://www.w3.org/1999/xlink" width="1024px" height="1024px" viewBox="0 0 1024 1024" version="1.1">
    <g>
        <path d="M0 0h1024v1024H0z" fill="#D8D8D8" fill-opacity="0"/>
        <path d="M192 156.4672m102.4 0l470.7328 0q102.4 0 102.4 102.4l0 506.3168q0 102.4-102.4 102.4l-470.7328 0q-102.4 0-102.4-102.4l0-506.3168q0-102.4 102.4-102.4Z" fill="#C3C7CF"/>
        <path d="M830.1056 375.9616v64H230.4v-64zM830.0544 593.664v64H230.2976v-64z" fill="#584E4E"/>
        <path d="M336.384 301.6192m-51.2 0a51.2 51.2 0 1 0 102.4 0 51.2 51.2 0 1 0-102.4 0Z" fill="#E92E5E"/>
        <path d="M336.5888 520.1408m-51.2 0a51.2 51.2 0 1 0 102.4 0 51.2 51.2 0 1 0-102.4 0Z" fill="#E92E5E"/>
        <path d="M336.2816 731.2896m-51.2 0a51.2 51.2 0 1 0 102.4 0 51.2 51.2 0 1 0-102.4 0Z" fill="#E92E5E"/>
    </g>
</svg>