<?xml version="1.0" encoding="utf-8"?><svg xmlns="http://www.w3.org/2000/svg" xmlns:xlink="http://www.w3.org/1999/xlink" width="1024px" height="1024px" viewBox="0 0 1024 1024" version="1.1">
    <g>
        <path d="M711.509333 0a429.824 429.824 0 0 0-117.162666 17.237333l-2.730667 0.853334a463.189333 463.189333 0 0 0-72.704-7.082667A242.346667 242.346667 0 0 0 391.082667 42.666667C356.864 30.72 285.866667 10.24 211.114667 14.336c-52.053333 2.901333-108.885333 18.773333-151.04 63.317333-41.898667 44.629333-64.170667 113.578667-59.477334 207.445334 1.28 25.941333 8.618667 68.181333 20.821334 122.88 12.288 54.613333 29.354667 118.698667 50.773333 177.152 21.333333 58.453333 44.885333 110.933333 81.493333 146.602666 18.261333 17.92 43.52 32.853333 73.130667 31.573334 20.821333-0.853333 39.68-9.984 55.978667-23.466667 7.850667 10.410667 16.298667 15.018667 24.064 19.2 9.642667 5.376 19.114667 8.96 28.928 11.349333 17.578667 4.437333 47.616 10.24 82.773333 4.266667 12.032-1.962667 24.746667-5.973333 37.290667-11.52 0.426667 14.08 1.024 27.904 1.536 41.813333 1.706667 44.202667 2.901333 85.077333 16.128 120.832 2.133333 5.888 7.936 36.010667 30.890666 62.549334 23.04 26.624 68.010667 43.264 119.210667 32.256 36.181333-7.765333 82.176-21.76 112.64-65.365334 30.293333-43.093333 43.861333-104.96 46.592-205.226666 0.597333-4.778667 1.365333-9.557333 2.304-14.336l7.168 0.682666h0.853333c38.570667 1.706667 80.469333-3.754667 115.456-20.053333 30.890667-14.421333 54.357333-29.013333 71.424-54.784a54.869333 54.869333 0 0 0 10.24-27.392 55.808 55.808 0 0 0-19.029333-43.776c-25.258667-19.285333-41.216-11.946667-58.282667-8.362667a265.898667 265.898667 0 0 1-51.114666 6.229334c49.152-83.114667 84.48-171.349333 104.533333-249.429334a545.28 545.28 0 0 0 19.2-125.696c0.512-37.205333-2.56-70.058667-24.746667-98.56C891.648 25.6 794.112 1.024 718.506667 0.170667h-6.997334V0z m-1.962666 27.306667c71.338667-0.682667 162.56 19.456 228.010666 103.338666 14.677333 18.858667 19.114667 46.421333 18.602667 80.384a526.506667 526.506667 0 0 1-18.261333 119.04 958.122667 958.122667 0 0 1-123.221334 276.821334c2.048 1.450667 4.266667 2.730667 6.741334 3.669333 12.288 5.12 40.448 9.557333 96.512-2.048 14.165333-2.986667 24.490667-4.949333 35.157333 3.242667a22.186667 22.186667 0 0 1 7.850667 18.090666 30.122667 30.122667 0 0 1-5.546667 14.336c-10.837333 16.384-32.256 31.829333-59.733333 44.629334-24.234667 11.349333-59.050667 17.237333-89.941334 17.578666a137.472 137.472 0 0 1-41.898666-4.778666l-0.853334-0.341334c-4.608 45.226667-15.36 134.570667-22.357333 175.274667-5.632 32.853333-15.445333 58.965333-34.218667 78.506667-18.773333 19.626667-45.226667 31.317333-80.896 38.997333-44.117333 9.557333-76.373333-0.682667-97.109333-18.261333-20.736-17.493333-30.208-40.704-35.84-54.869334a160.853333 160.853333 0 0 1-7.936-39.509333c-1.962667-17.066667-3.413333-37.802667-4.437333-61.184-1.28-35.84-1.706667-71.765333-1.194667-107.690667-18.517333 16.981333-41.386667 28.16-66.048 32.426667-29.354667 5.034667-55.466667 0.085333-71.082667-3.84a96.597333 96.597333 0 0 1-22.186666-8.533333 40.96 40.96 0 0 1-18.688-16.981334 23.893333 23.893333 0 0 1-2.389334-16.213333 26.026667 26.026667 0 0 1 9.301334-14.165333c8.362667-6.826667 19.541333-10.666667 36.352-14.165334 30.549333-6.314667 41.216-10.666667 47.786666-15.786666 5.461333-4.437333 11.776-13.397333 22.784-26.538667a49.664 49.664 0 0 1-0.085333-1.706667 125.610667 125.610667 0 0 1-56.576-15.36 1871.36 1871.36 0 0 0-78.677333 89.258667c-16.725333 20.053333-35.242667 31.573333-54.613334 32.426667-19.626667 0.853333-37.205333-9.045333-52.138666-23.552-29.866667-29.184-53.76-79.36-74.581334-135.936A1424.554667 1424.554667 0 0 1 48.469333 400.213333c-11.946667-53.76-19.114667-97.109333-20.138666-118.016C23.893333 193.450667 44.544 133.632 80.213333 95.829333c35.584-37.717333 84.309333-52.053333 131.84-54.784 85.248-4.864 166.229333 24.917333 182.613334 31.317334 31.573333-21.504 72.192-34.901333 123.050666-34.048 24.064 0.341333 48.042667 3.413333 71.509334 9.301333l0.853333-0.341333c10.24-3.669333 20.736-6.741333 31.402667-9.130667 28.842667-6.826667 58.453333-10.410667 88.064-10.752V27.306667z m6.4 28.586666h-6.144c-24.405333 0.341333-48.64 3.072-72.533334 8.192 52.992 23.552 93.013333 59.818667 121.258667 96 19.626667 25.088 35.84 52.565333 48.128 81.92 4.693333 11.264 7.850667 20.821333 9.642667 28.16 0.853333 3.754667 1.450667 6.826667 1.706666 10.069334a18.773333 18.773333 0 0 1-0.512 6.144l-0.256 0.597333c1.28 37.376-7.936 62.72-9.045333 98.389333-0.853333 25.856 5.717333 56.234667 7.338667 89.344 1.536 31.146667-2.218667 65.365333-22.357334 98.986667l4.864 6.144a933.717333 933.717333 0 0 0 112.298667-257.024c10.922667-42.752 16.725333-81.578667 17.237333-112.298667 0.426667-30.72-5.205333-52.992-12.544-62.293333C857.941333 75.008 780.8 56.405333 715.946667 55.893333zM512.256 66.816c-50.346667 0.170667-86.357333 15.36-113.749333 38.229333-28.16 23.552-47.104 55.893333-59.477334 88.917334-14.762667 39.253333-19.882667 77.226667-21.845333 102.997333l0.512-0.341333c15.189333-8.533333 35.157333-17.066667 56.490667-22.016 21.333333-4.864 44.373333-6.4 65.194666 1.706666 20.906667 8.106667 38.144 27.136 44.373334 56.064 29.866667 139.008-9.386667 190.634667-23.808 229.632-5.461333 14.165333-10.24 28.586667-14.08 43.264 1.877333-0.426667 3.669333-0.938667 5.546666-1.109333 10.24-0.853333 18.176 2.56 22.954667 4.608 14.506667 5.973333 24.490667 18.773333 29.866667 33.28a58.709333 58.709333 0 0 1 3.072 12.117333c0.597333 1.706667 0.853333 3.498667 0.853333 5.376-1.621333 53.162667-1.450667 106.325333 0.512 159.573334 1.024 22.869333 2.474667 43.093333 4.266667 59.050666 1.877333 15.957333 4.437333 28.074667 6.144 32.170667 5.376 13.653333 13.397333 31.573333 27.733333 43.690667 14.421333 12.117333 34.986667 20.224 72.704 12.117333 32.682667-7.082667 52.906667-16.810667 66.304-30.890667 13.482667-13.994667 21.504-33.536 26.624-63.488 7.68-44.8 23.210667-174.677333 25.088-199.168-0.853333-18.432 1.877333-32.597333 7.68-43.349333a50.346667 50.346667 0 0 1 23.552-21.589333 79.701333 79.701333 0 0 1 10.922667-3.925334 254.037333 254.037333 0 0 0-10.325334-13.909333 190.293333 190.293333 0 0 1-28.330666-46.933333 354.304 354.304 0 0 0-11.008-20.48c-5.632-10.24-12.8-23.04-20.224-37.546667-15.018667-28.757333-31.317333-63.658667-39.765334-97.621333-8.448-33.962667-9.642667-69.12 11.946667-93.952 19.2-22.016 52.736-31.146667 103.253333-26.026667-1.536-4.437333-2.389333-8.192-4.949333-14.165333a333.738667 333.738667 0 0 0-44.288-75.264c-42.666667-54.784-111.957333-109.226667-218.88-110.933334h-4.864V66.816zM229.717333 69.034667c-5.376 0-10.837333 0.170667-16.213333 0.512-42.922667 2.474667-83.541333 14.933333-112.64 45.824-29.013333 30.890667-48.213333 81.578667-44.032 165.376 0.853333 15.872 7.68 60.330667 19.541333 113.152 11.776 52.821333 28.501333 115.029333 48.64 169.898666 20.053333 54.954667 44.373333 102.741333 67.584 125.354667 11.605333 11.264 21.76 15.872 30.976 15.445333 9.216-0.426667 20.309333-5.717333 33.877334-22.101333 24.746667-29.866667 50.346667-59.050667 76.970666-87.381333A149.418667 149.418667 0 0 1 284.757333 460.8c4.437333-31.573333 5.034667-61.013333 4.522667-84.309333-0.512-22.698667-2.133333-37.802667-2.133333-47.189334v-1.365333c0-49.152 8.448-97.877333 25.173333-144.042667 11.946667-31.744 29.610667-64 56.149333-90.112A480.682667 480.682667 0 0 0 245.845333 69.461333a322.389333 322.389333 0 0 0-16.213333-0.426666h0.085333z m527.36 225.365333c-28.842667 0.426667-45.056 7.850667-53.589333 17.664-12.032 13.824-13.226667 38.144-5.717333 68.096 7.424 30.037333 22.869333 63.573333 37.290666 91.392 7.253333 13.994667 14.250667 26.453333 19.968 36.693333 5.632 10.24 9.813333 17.493333 12.373334 23.722667 2.389333 5.717333 4.949333 10.752 7.594666 15.36 11.178667-23.637333 13.141333-46.933333 11.946667-71.082667-1.450667-30.037333-8.362667-60.672-7.338667-91.733333 1.194667-36.352 8.277333-59.989333 8.96-88.064a245.674667 245.674667 0 0 0-31.488-2.048z m-350.208 4.949333a119.637333 119.637333 0 0 0-26.197333 3.157334c-17.152 4.096-33.621333 10.581333-49.066667 19.114666-5.205333 2.816-10.24 6.058667-14.848 9.728l-0.938666 0.853334c0.256 6.229333 1.450667 21.333333 1.962666 43.52 0.512 24.405333 0 55.381333-4.778666 89.002666-10.154667 72.96 42.666667 133.376 104.704 133.461334 3.584-15.018667 9.557333-30.208 15.530666-46.165334 17.237333-46.677333 51.2-80.725333 22.613334-213.589333-4.693333-21.76-13.994667-30.549333-26.709334-35.498667a62.549333 62.549333 0 0 0-22.272-3.584z m336.725334 8.704h2.133333c2.56 0 5.12 0.341333 7.68 0.853334 2.304 0.597333 4.266667 1.365333 5.802667 2.389333 1.706667 1.024 2.901333 2.730667 3.242666 4.693333v0.341334a10.24 10.24 0 0 1-1.536 5.802666 28.501333 28.501333 0 0 1-4.693333 6.4 28.757333 28.757333 0 0 1-16.384 9.045334 25.002667 25.002667 0 0 1-17.493333-4.437334 25.856 25.856 0 0 1-5.546667-5.034666 11.093333 11.093333 0 0 1-2.56-5.376 7.253333 7.253333 0 0 1 1.706667-5.461334 16.298667 16.298667 0 0 1 4.949333-3.84 47.36 47.36 0 0 1 22.698667-5.546666v0.170666z m-332.629334 7.168a51.2 51.2 0 0 1 7.082667 0.512c6.485333 0.853333 12.288 2.645333 16.725333 5.205334a18.944 18.944 0 0 1 5.632 4.522666c1.706667 1.962667 2.56 4.608 2.304 7.253334a12.885333 12.885333 0 0 1-3.242666 6.570666 27.648 27.648 0 0 1-5.973334 5.546667 27.136 27.136 0 0 1-19.114666 4.864 30.976 30.976 0 0 1-17.92-9.728 30.293333 30.293333 0 0 1-4.949334-6.997333 11.946667 11.946667 0 0 1-1.706666-7.594667c0.597333-4.608 4.352-6.997333 8.021333-8.277333a36.693333 36.693333 0 0 1 13.056-1.706667l0.085333-0.170667z m385.365334 313.258667h-0.085334c-6.314667 2.304-11.434667 3.242667-15.786666 5.12a19.285333 19.285333 0 0 0-10.154667 9.216c-2.645333 4.864-4.949333 13.653333-4.266667 28.416a21.674667 21.674667 0 0 0 6.229334 2.986667c7.338667 2.218667 19.541333 3.669333 33.109333 3.413333 27.136-0.256 60.586667-6.656 78.250667-14.933333 14.592-6.826667 28.16-15.616 40.106666-26.197334-59.221333 12.288-92.757333 8.96-113.237333 0.512a55.893333 55.893333 0 0 1-14.165333-8.533333z m-341.589334 4.010667h-0.853333c-2.304 0.256-5.546667 1.024-11.946667 8.021333-14.762667 16.64-19.968 27.136-32.170666 36.864-12.202667 9.728-28.074667 14.933333-59.733334 21.504a81.408 81.408 0 0 0-19.626666 6.144c1.194667 1.024 1.109333 1.28 2.986666 2.218667a70.826667 70.826667 0 0 0 15.36 6.058666c13.653333 3.413333 36.010667 7.424 59.392 3.413334 23.296-4.010667 47.616-15.189333 68.266667-44.373334 3.584-5.034667 4.010667-12.458667 1.109333-20.48a31.573333 31.573333 0 0 0-14.08-16.725333 27.733333 27.733333 0 0 0-8.704-2.56z" fill="#45B991"/>
    </g>
</svg>