<?xml version="1.0" encoding="utf-8"?><svg xmlns="http://www.w3.org/2000/svg" xmlns:xlink="http://www.w3.org/1999/xlink" width="1024px" height="1024px" viewBox="0 0 1024 1024" version="1.1">
    <g>
        <path d="M1101.265455 470.109091c32.023273-41.890909 83.409455-61.160727 154.065454-54.644364l9.774546 0.651637a41.890909 41.890909 0 0 1 35.095272 57.250909c-3.165091 35.374545-22.434909 67.677091-48.128 80.523636-12.846545 6.516364-22.434909 28.951273-25.693091 70.842182v6.516364c-3.165091 45.056-12.846545 74.007273-25.693091 99.793454a179.293091 179.293091 0 0 1-12.846545 25.693091 59.857455 59.857455 0 0 0-6.423273 22.621091c-3.165091 25.693091 3.258182 45.056 22.528 61.160727a25.134545 25.134545 0 0 1 6.423273 25.786182c-3.258182 22.528-22.528 35.374545-51.386182 38.632727-19.269818 3.165091-38.539636-3.258182-57.716363-19.362909-19.362909 41.890909-54.644364 70.842182-96.349091 90.205091-22.528 9.681455-44.962909 16.104727-61.067637 16.104727-12.846545 0-25.693091-3.258182-32.116363-12.939636-12.846545-16.104727-6.423273-32.209455 6.516363-45.056a74.938182 74.938182 0 0 0 22.341818-41.890909v-3.165091c-35.281455 3.165091-121.949091 12.846545-141.218909 19.269818-3.165091 0-9.588364 3.258182-19.269818 9.681455a277.690182 277.690182 0 0 1-32.023273 22.528c-38.539636 25.786182-70.749091 38.632727-112.360727 41.890909-51.386182 3.258182-80.337455-28.951273-73.914182-74.100364 6.516364-38.632727 35.374545-70.749091 73.914182-70.749091 12.753455 0 12.753455 0 19.176727-9.681454 3.258182 0 12.846545-22.621091 19.269819-32.209455 9.681455-16.104727 22.528-32.209455 38.539636-48.407273 28.858182-28.858182 64.232727-48.221091 102.772364-61.160727 35.374545-9.588364 57.716364-12.846545 112.360727-19.269818 35.374545-3.258182 57.716364-16.104727 86.667636-45.056l9.588364-9.681455a93.090909 93.090909 0 0 0 19.269818-32.209454c3.258182-3.258182 12.846545-29.044364 16.104727-35.374546a525.032727 525.032727 0 0 1 19.269819-41.890909c6.423273-12.939636 16.011636-22.621091 22.434909-32.209454zM703.022545 0l160.488728 270.522182-67.397818 112.64H908.567273l109.195636 186.833454c-6.516364 9.681455-9.681455 16.104727-9.681454 16.104728l-9.588364 9.681454c-12.846545 9.681455-19.269818 16.104727-28.858182 22.528L866.769455 447.581091H677.422545l105.937455-177.058909L661.410909 64.418909h-250.414545L288.861091 270.522182l105.937454 177.058909H195.863273L73.914182 653.684364l125.114182 206.103272h247.249454l86.574546-144.849454 61.067636 103.051636c-19.269818 12.846545-32.116364 28.951273-44.962909 51.479273l-16.011636-25.693091-48.128 80.430545H160.488727L0 653.684364l160.488727-270.429091h121.949091l-67.304727-112.733091L375.621818 0h327.493818z" fill="#AFB0B4"/>
    </g>
</svg>