<?xml version="1.0" encoding="utf-8"?><svg xmlns="http://www.w3.org/2000/svg" xmlns:xlink="http://www.w3.org/1999/xlink" width="1024px" height="1024px" viewBox="0 0 1024 1024" version="1.1">
    <g>
        <path d="M58.305707 0.597333c46.762667-4.693333 128.256 19.626667 161.536 48.298667 15.36 13.141333 30.293333 26.965333 44.629333 41.216 131.84-25.429333 249.856 38.826667 351.402667 191.146667 94.378667 141.568 159.061333 259.072 192.426666 349.781333 47.274667 23.893333 93.013333 51.114667 136.618667 81.152 73.301333 50.005333 93.098667 75.946667 101.717333 91.136a35.157333 35.157333 0 0 1-30.464 52.309333H896.02304c17.92 20.48 36.096 40.704 54.613333 60.586667a35.157333 35.157333 0 0 1-16.981333 58.88 34.901333 34.901333 0 0 1-33.792-10.837333 3389.952 3389.952 0 0 1-106.837333-121.002667 35.157333 35.157333 0 0 1 26.624-57.685333h107.861333A1095.850667 1095.850667 0 0 0 765.036373 687.786667a34.986667 34.986667 0 0 1-17.92-20.224c-29.696-86.698667-93.44-203.52-189.269333-347.306667-89.685333-134.570667-186.538667-186.026667-295.936-157.696a34.730667 34.730667 0 0 1-34.133333-9.813333 722.346667 722.346667 0 0 0-53.504-50.688C156.18304 86.357333 102.93504 71.253333 74.945707 69.888l1.706666 3.925333 4.864 9.557334c11.434667 21.674667 34.645333 58.538667 81.664 119.978666a34.133333 34.133333 0 0 1 5.205334 9.728c20.821333 59.989333 30.890667 104.789333 30.890666 137.045334 0 8.96 4.949333 35.669333 50.346667 91.733333a34.986667 34.986667 0 0 1 6.485333 32l-40.021333 137.216c-22.784 78.336 22.698667 182.954667 51.626667 216.234667 6.656-18.176 16.725333-61.269333 20.906666-160.938667a34.986667 34.986667 0 0 1 27.306667-32.768c15.445333-3.413333 31.232 4.010667 38.570667 18.005333 16.981333 32.682667 41.813333 90.624 75.776 177.322667 40.362667 102.656 68.608 124.16 78.933333 128.597333a35.157333 35.157333 0 0 1-27.818667 64.341334c-41.472-18.090667-78.336-71.168-116.053333-167.253334-6.997333-17.92-13.653333-34.56-19.882667-50.005333-12.202667 65.706667-31.146667 88.746667-54.613333 98.048-11.776 4.608-35.413333 8.448-63.573333-17.322667-52.650667-48.298667-109.312-186.88-78.165334-293.888l34.986667-119.978666c-37.205333-48.64-54.613333-87.381333-54.613333-121.173334 0-16.128-4.437333-47.872-25.173334-108.8C-4.84096 98.133333-12.77696 54.186667 10.945707 23.637333 21.185707 10.496 37.057707 2.730667 58.305707 0.597333z m244.138666 250.453334c13.653333-3.072 56.32-3.669333 69.376 16.213333 25.344 28.501333 12.885333 71.850667-2.986666 82.773333l-2.218667 2.133334c-8.96-17.92-23.04-32.085333-32.085333-49.92a656.725333 656.725333 0 0 1-32.085334-51.2z" fill="#45B991"/>
    </g>
</svg>