<?xml version="1.0" encoding="utf-8"?><svg xmlns="http://www.w3.org/2000/svg" xmlns:xlink="http://www.w3.org/1999/xlink" width="1024px" height="1024px" viewBox="0 0 1024 1024" version="1.1">
    <g>
        <path d="M197.182099 16.582718m125.927161 0l755.562961 0q125.92716 0 125.92716 125.92716l0 755.562962q0 125.92716-125.92716 125.92716l-755.562961 0q-125.92716 0-125.927161-125.92716l0-755.562962q0-125.92716 125.927161-125.92716Z" fill="#FF9393" fill-opacity="0"/>
        <path d="M827.132718 255.97025c-28.14472 0-49.300483 20.148346-49.300483 46.844903 0 26.822485 23.485415 46.844904 49.300483 46.844904 28.207684 0 49.300483-20.022418 49.300484-46.844904 2.392616-26.759522-21.092799-46.844904-49.300484-46.844903z m0 236.491207c-28.14472 0-49.300483 20.085382-49.300483 46.844903s23.485415 46.844904 49.300483 46.844904c28.207684 0 49.300483-20.085382 49.300484-46.844904 2.392616-26.759522-21.092799-46.844904-49.300484-46.844903z m0 236.491207c-28.14472 0-49.300483 20.085382-49.300483 46.844903s23.485415 46.844904 49.300483 46.844904c28.207684 0 49.300483-20.085382 49.300484-46.844904 2.392616-26.759522-21.092799-46.844904-49.300484-46.844903-25.815068 0 0 0 0 0z m-215.965079-472.982414c-25.878031 0-49.363447 20.148346-49.363447 46.844903 0 26.822485 23.485415 46.844904 49.300483 46.844904 28.207684 0 49.300483-20.022418 49.300483-46.844904 2.392616-26.759522-21.092799-46.844904-49.300483-46.844903z m0 236.491207c-28.207684 0-49.363447 20.085382-49.363447 46.844903s23.485415 46.844904 49.300483 46.844904c28.207684 0 49.300483-20.085382 49.300483-46.844904 2.392616-26.759522-21.092799-46.844904-49.300483-46.844903z m0 236.491207c-28.207684 0-49.363447 20.085382-49.363447 46.844903s23.485415 46.844904 49.300483 46.844904c28.207684 0 49.300483-20.085382 49.300483-46.844904 2.392616-26.759522-21.092799-46.844904-49.300483-46.844903z" fill="#5F6269" opacity=".497"/>
    </g>
</svg>