<?xml version="1.0" encoding="utf-8"?><svg xmlns="http://www.w3.org/2000/svg" xmlns:xlink="http://www.w3.org/1999/xlink" width="1024px" height="1024px" viewBox="0 0 1024 1024" version="1.1">
    <g>
        <path d="M512 88.064A423.936 423.936 0 0 1 935.936 512v4.096l-0.064 2.048-0.064 4.352-0.192 4.416-0.192 4.544-0.192 4.672-0.32 4.8-0.576 7.424-0.384 5.056-0.512 5.12-0.576 5.12-0.64 5.312-0.32 2.624-0.704 5.376a398.08 398.08 0 0 1-0.832 5.376l-0.832 5.376-0.96 5.44-1.024 5.504-0.512 2.688-1.152 5.504a381.056 381.056 0 0 1-1.6 7.04l-1.152 4.672-0.576 2.368-1.28 4.672a320.448 320.448 0 0 1-2.56 9.216l-1.472 4.608c-14.144 43.968-37.952 82.112-76.48 91.968-25.216 6.464-56.32 4.224-89.216-1.28l-6.592-1.088-6.656-1.28-6.72-1.28-6.72-1.28-6.72-1.408-6.72-1.472-12.416-2.688-26.752-5.952-11.392-2.432-5.632-1.216-8.32-1.728-5.568-1.088-5.44-1.024-5.44-0.96-5.376-0.896-5.312-0.832-5.184-0.768a341.952 341.952 0 0 0-10.24-1.28l-4.992-0.512c-27.264-2.496-50.56-0.448-66.688 10.688-11.2 7.744-11.264 20.416-6.08 35.392l0.96 2.624 0.512 1.344 1.152 2.752 0.576 1.344 1.28 2.816 1.92 4.224 1.472 2.88 1.472 2.944 3.2 5.824 3.2 5.952 10.624 18.688 2.368 4.352 2.368 4.288 1.088 2.048 2.112 4.032c6.848 13.568 11.84 26.368 11.84 37.12v1.664l-0.064 3.392a143.872 143.872 0 0 1-0.704 10.176l-0.384 3.328c-4.608 35.2-22.784 67.136-59.584 67.136A423.936 423.936 0 1 1 512 88.064zM512 154.24a357.824 357.824 0 0 0-11.84 715.52h3.904l0.192-0.512a63.04 63.04 0 0 0 2.24-13.568l0.128-2.24-0.256-0.64-0.576-1.472-0.704-1.728-0.768-1.728-1.28-2.624-1.472-2.944-2.368-4.48-2.048-3.84-4.288-7.616-6.848-12.096-2.752-4.928-3.84-6.912-2.24-4.288a181.376 181.376 0 0 1-16-39.104c-10.24-38.208-1.792-76.992 33.92-101.76 30.08-20.736 65.472-25.92 108.672-22.208l6.656 0.64 6.464 0.64 4.864 0.64 4.864 0.64 4.992 0.768 3.392 0.64 5.312 0.832 5.504 1.024 5.76 1.088 6.208 1.216 6.464 1.28 9.344 1.92 7.552 1.664 19.84 4.352 17.28 3.84 9.92 2.176 5.696 1.152 8.192 1.664 5.248 1.024 5.056 0.96 4.864 0.896 4.736 0.768 4.544 0.768 4.416 0.64 6.272 0.896 4.032 0.512 3.84 0.448 5.44 0.512 3.52 0.32 3.328 0.192 1.6 0.064 3.072 0.128h7.232l5.12-0.32 2.432-0.256 2.304-0.256a49.92 49.92 0 0 0 5.184-1.088c8.384-2.112 20.16-17.408 30.08-48.32 10.112-31.552 15.424-72.384 15.424-107.072A357.824 357.824 0 0 0 512 154.176zM258.752 462.464a55.04 55.04 0 1 1 0 110.08 55.04 55.04 0 0 1 0-110.08z m467.968-126.656a55.04 55.04 0 1 1 0 110.08 55.04 55.04 0 0 1 0-110.08zM335.808 269.76a55.04 55.04 0 1 1 0 110.08 55.04 55.04 0 0 1 0-110.08z m209.28-71.552a55.04 55.04 0 1 1 0 110.08 55.04 55.04 0 0 1 0-110.08z" fill="#5F6269"/>
    </g>
</svg>