<?xml version="1.0" encoding="utf-8"?><svg xmlns="http://www.w3.org/2000/svg" xmlns:xlink="http://www.w3.org/1999/xlink" width="1024px" height="1024px" viewBox="0 0 1024 1024" version="1.1">
    <g>
        <path d="M669.090909 139.636364H290.909091C256 139.636364 232.727273 162.909091 232.727273 197.818182v581.818182C232.727273 814.545455 256 837.818182 290.909091 837.818182h465.454545c34.909091 0 58.181818-23.272727 58.181819-58.181818V285.090909L669.090909 139.636364z m116.363636 628.363636c0 23.272727-17.454545 46.545455-46.545454 46.545455H302.545455c-23.272727 0-46.545455-17.454545-46.545455-46.545455v-558.545455c0-23.272727 17.454545-46.545455 46.545455-46.545454h337.454545v93.090909c0 34.909091 23.272727 58.181818 58.181818 58.181818h87.272727v453.818182zM709.818182 285.090909c-23.272727 0-46.545455-17.454545-46.545455-46.545454v-69.818182l116.363637 116.363636h-69.818182z" fill="#5F6269"/>
        <path d="M686.545455 401.454545h-325.818182a12.520727 12.520727 0 0 1-11.636364-11.636363c0-11.636364 5.818182-17.454545 11.636364-17.454546h320c11.636364 0 17.454545 5.818182 17.454545 17.454546 0 5.818182-5.818182 11.636364-11.636363 11.636363zM686.545455 535.272727h-325.818182c-5.818182 0-11.636364-11.636364-11.636364-17.454545s5.818182-11.636364 11.636364-11.636364h320c5.818182 0 11.636364 5.818182 11.636363 11.636364 5.818182 5.818182 0 17.454545-5.818181 17.454545zM512 663.272727H360.727273c-5.818182 0-11.636364-5.818182-11.636364-17.454545 0-5.818182 5.818182-11.636364 11.636364-11.636364h145.454545c5.818182 0 11.636364 5.818182 11.636364 11.636364 5.818182 11.636364 0 17.454545-5.818182 17.454545z" fill="#5F6269"/>
    </g>
</svg>