<?xml version="1.0" encoding="utf-8"?><svg xmlns="http://www.w3.org/2000/svg" xmlns:xlink="http://www.w3.org/1999/xlink" width="1024px" height="1024px" viewBox="0 0 1024 1024" version="1.1">
    <g>
        <path d="M488.727273 0a489.285818 489.285818 0 0 1 488.727272 488.727273 489.285818 489.285818 0 0 1-488.727272 488.727272A489.285818 489.285818 0 0 1 0 488.727273 489.285818 489.285818 0 0 1 488.727273 0z m0 733.556364a52.410182 52.410182 0 1 0 0 104.634181 52.410182 52.410182 0 0 0 0-104.727272z m0-557.707637a173.986909 173.986909 0 0 0-174.545455 172.962909 34.909091 34.909091 0 0 0 69.818182 0c0-57.809455 45.986909-103.144727 104.727273-103.144727 57.716364 0 104.727273 47.290182 104.727272 105.472 0 23.272727-29.230545 52.503273-57.43709 80.802909-38.539636 38.446545-82.199273 82.106182-82.199273 139.264v59.019637a34.909091 34.909091 0 1 0 69.818182 0v-59.112728c0-28.113455 31.371636-59.485091 61.719272-89.832727 38.260364-38.167273 77.917091-77.824 77.917091-130.141091A175.104 175.104 0 0 0 488.727273 175.941818z" fill="#AFB0B4" fill-opacity=".6"/>
    </g>
</svg>