<?xml version="1.0" encoding="utf-8"?><svg xmlns="http://www.w3.org/2000/svg" xmlns:xlink="http://www.w3.org/1999/xlink" width="1024px" height="1024px" viewBox="0 0 1024 1024" version="1.1">
    <g>
        <path d="M807.36 246.144H441.088l-53.12-100.48c0-11.776-11.84-17.664-23.68-17.664H216.64C169.344 128 128 169.344 128 216.64v590.72C128 854.656 169.344 896 216.64 896h590.72c47.296 0 88.64-41.344 88.64-88.64V334.784c0-47.296-41.344-88.64-88.64-88.64z m29.568 561.28c0 17.664-11.84 29.44-29.568 29.44h-590.72c-17.728 0-29.568-11.776-29.568-29.44V216.576c0-17.728 11.84-29.568 29.568-29.568h129.92l53.184 100.48c0 11.776 11.84 17.664 23.68 17.664h384c17.664 0 29.44 11.84 29.44 29.568v472.576z" fill="#5F6269"/>
        <path d="M512 384a32 32 0 0 1 32 32v128h128a32 32 0 1 1 0 64h-128v128a32 32 0 1 1-64 0v-128h-128a32 32 0 0 1 0-64h128v-128A32 32 0 0 1 512 384z" fill="#5F6269"/>
    </g>
</svg>