<?xml version="1.0" encoding="utf-8"?><svg xmlns="http://www.w3.org/2000/svg" xmlns:xlink="http://www.w3.org/1999/xlink" width="1024px" height="1024px" viewBox="0 0 1024 1024" version="1.1">
    <g>
        <path d="M638.912 128L832 329.664V832a64 64 0 0 1-64 64H256a64 64 0 0 1-64-64V192a64 64 0 0 1 64-64h382.912zM573.248 192H256v640h512V379.648H637.312a64 64 0 0 1-63.616-56.448l-0.384-7.488L573.248 192z m98.752 462.336a32 32 0 0 1 5.76 63.488l-5.76 0.512H362.496a32 32 0 0 1-5.76-63.488l5.76-0.512H672zM605.312 497.664a32 32 0 0 1 5.76 63.488l-5.76 0.512H362.496a32 32 0 0 1-5.76-63.488l5.76-0.512h242.816z m31.936-278.848v96.896l92.736-0.064-92.736-96.832z" fill="#AFB0B4"/>
    </g>
</svg>