<?xml version="1.0" encoding="utf-8"?><svg xmlns="http://www.w3.org/2000/svg" xmlns:xlink="http://www.w3.org/1999/xlink" width="1024px" height="1024px" viewBox="0 0 1024 1024" version="1.1">
    <g>
        <path d="M905.813333 157.525333H417.450667l-70.826667-133.973333c0-15.701333-15.786667-23.552-31.573333-23.552H118.186667C55.125333 0 0 55.125333 0 118.186667v787.626666C0 968.874667 55.125333 1024 118.186667 1024h787.626666c63.061333 0 118.186667-55.125333 118.186667-118.186667V275.712c0-63.061333-55.125333-118.186667-118.186667-118.186667z m39.424 748.373334c0 23.552-15.786667 39.253333-39.424 39.253333h-787.626666c-23.637333 0-39.424-15.701333-39.424-39.253333V118.101333c0-23.637333 15.786667-39.424 39.424-39.424h173.226666l70.912 133.973334c0 15.701333 15.786667 23.552 31.573334 23.552h512c23.552 0 39.253333 15.786667 39.253333 39.424v630.101333z" fill="#5F6269"/>
    </g>
</svg>