<?xml version="1.0" encoding="utf-8"?><svg xmlns="http://www.w3.org/2000/svg" xmlns:xlink="http://www.w3.org/1999/xlink" width="1024px" height="1024px" viewBox="0 0 1024 1024" version="1.1">
    <g>
        <path d="M1228.6976 511.5904h-0.6144C1123.328 265.8304 909.6192 90.112 615.8336 89.088h-1.024C319.7952 89.088 104.96 265.5232 0 512.2048l0.1024 0.2048h0.6144c104.7552 245.76 318.464 421.4784 612.2496 422.5024h1.024c295.1168 0 509.952-176.4352 614.8096-423.1168l-0.1024-0.2048zM614.4 794.624A282.4192 282.4192 0 1 1 614.4 229.6832 282.4192 282.4192 0 0 1 614.4 794.5216z" fill="#5F6269"/>
        <path d="M1228.6976 511.5904h-0.6144C1123.328 265.8304 909.6192 90.112 615.8336 89.088h-1.024C319.7952 89.088 104.96 265.5232 0 512.2048l0.1024 0.2048h0.6144c104.7552 245.76 318.464 421.4784 612.2496 422.5024h1.024c295.1168 0 509.952-176.4352 614.8096-423.1168l-0.1024-0.2048zM614.4 794.624A282.4192 282.4192 0 1 1 614.4 229.6832 282.4192 282.4192 0 0 1 614.4 794.5216z" fill="#787D8B"/>
        <path d="M447.0784 512a167.2192 167.2192 0 1 0 334.5408 0 167.2192 167.2192 0 0 0-334.5408 0z" fill="#787D8B"/>
    </g>
</svg>