<?xml version="1.0" encoding="utf-8"?><svg xmlns="http://www.w3.org/2000/svg" xmlns:xlink="http://www.w3.org/1999/xlink" width="1024px" height="1024px" viewBox="0 0 1024 1024" version="1.1">
    <g>
        <path d="M760.917333 39.509333l55.552 31.744-512 896-55.552-31.744 512-896z m61.013334 215.722667c83.029333 58.538667 148.224 140.714667 192.768 236.8l8.704 19.626667h0.512c-84.48 199.082667-254.890667 343.210667-488.704 352.256l-23.637334 0.512h-0.853333c-12.202667 0-24.32-0.512-36.266667-1.194667l67.328-117.76A235.52 235.52 0 0 0 728.405333 418.986667l93.525334-163.669334zM513.194667 159.573333c22.698667 0 44.885333 1.365333 66.389333 3.84l-64.768 113.152h-2.730667a235.434667 235.434667 0 0 0-201.386666 357.376L224.938667 784.042667C130.901333 724.906667 57.856 636.757333 9.386667 531.968l-8.704-19.626667L0 512.170667l8.704-19.626667C96 303.786667 262.826667 168.789333 488.789333 160l23.637334-0.512h0.853333z m-60.842667 226.304l-79.189333 138.666667a139.434667 139.434667 0 0 1 79.189333-138.666667z" fill="#787D8B"/>
    </g>
</svg>