<?xml version="1.0" encoding="utf-8"?><svg xmlns="http://www.w3.org/2000/svg" xmlns:xlink="http://www.w3.org/1999/xlink" width="1024px" height="1024px" viewBox="0 0 1024 1024" version="1.1">
    <g>
        <path d="M883.456 509.184c107.52 10.6496 191.744 98.816 191.744 205.6704C1075.2 828.928 979.4048 921.6 861.5936 921.6H295.168C160.4608 921.6 51.2 815.872 51.2 685.8752a230.912 230.912 0 0 1 64.9216-160.256 244.8896 244.8896 0 0 1 127.1296-70.144A308.224 308.224 0 0 1 317.1328 311.296l37.8368 43.6736A255.1808 255.1808 0 0 0 303.104 475.392l-1.4336 11.52-3.584 34.9696-35.328 2.816C172.8 531.8656 102.4 607.6416 102.4 697.2416c0 92.2112 73.0624 167.8336 164.7616 172.9024l9.5232 0.256h604.7744C960 870.4 1024 806.912 1024 728.9344c0-75.1104-59.3408-136.704-133.9392-141.2096l-8.704-0.256H819.712v-73.8816c0-123.5456-88.1152-227.072-205.312-251.904V209.2032c149.8112 24.576 264.8576 149.1456 269.1072 300.032z" fill="#787D8B"/>
        <path d="M389.12 632.832c-19.456 0-35.584 4.352-48.384 13.056a43.264 43.264 0 0 0-20.224 37.888c0 15.872 6.912 28.16 20.992 36.608 5.632 3.072 19.456 7.936 41.984 15.104 20.224 6.144 32.256 10.24 36.352 12.288 11.52 5.888 17.408 13.824 17.408 24.064 0 8.192-4.096 14.592-12.288 19.2-8.192 4.608-19.2 7.168-33.024 7.168-15.36 0-26.624-2.816-34.048-8.448-8.192-6.144-13.312-16.64-15.36-30.976h-27.648c1.536 23.04 9.728 39.936 24.832 50.688 12.544 8.704 29.952 13.312 52.224 13.312 23.04 0 40.96-4.608 53.76-13.824a45.4144 45.4144 0 0 0 19.2-38.656c0-16.896-7.936-29.952-23.552-39.424-7.168-4.352-23.296-10.24-47.872-17.92-17.152-5.12-27.648-8.96-31.744-11.264-9.216-4.864-13.568-11.264-13.568-19.456 0-9.216 3.84-15.872 11.776-19.968 6.4-3.584 15.616-5.376 27.648-5.376 13.824 0 24.064 2.56 31.232 7.936 7.168 5.12 11.776 13.824 14.336 25.6H460.8c-1.792-19.968-8.96-34.56-21.76-44.032-12.032-9.216-28.672-13.568-49.92-13.568zM490.752 636.416V819.2h66.048c29.44 0 51.712-8.192 67.072-24.576 14.592-15.872 22.016-38.144 22.016-66.816 0-28.928-7.168-51.2-21.504-66.56-15.36-16.64-37.632-24.832-67.072-24.832h-66.56z m27.904 23.808h33.536c23.04 0 39.936 5.376 50.688 16.384 10.24 10.752 15.616 27.648 15.616 51.2 0 23.04-5.376 39.936-15.872 50.944-10.752 11.008-27.904 16.64-50.944 16.64h-33.024v-135.168zM790.528 636.416l-88.32 88.32V636.416h-27.904V819.2h27.904v-63.232l23.808-22.784L800.256 819.2h37.376l-92.672-104.192 80.896-78.592z" fill="#787D8B"/>
        <path d="M350.9248 174.3872c0-13.1584 10.7008-23.808 23.8592-23.808h149.1968l-0.0512 206.592h55.1936a10.24 10.24 0 0 1 7.7824 16.8448l-92.672 109.568a10.24 10.24 0 0 1-15.6672 0L386.816 373.9648a10.24 10.24 0 0 1 7.8848-16.8448l65.2288 0.0512 0.0512-157.3376-85.1968-1.2288a24.2176 24.2176 0 0 1-23.8592-24.2176z" fill="#E92E5E"/>
    </g>
</svg>