<?xml version="1.0" encoding="utf-8"?><svg xmlns="http://www.w3.org/2000/svg" xmlns:xlink="http://www.w3.org/1999/xlink" width="1024px" height="1024px" viewBox="0 0 1024 1024" version="1.1">
    <g>
        <path d="M21.333333 0h1024v1024H21.333333z" fill="#363B35" fill-opacity="0"/>
        <path d="M547.349333 573.632a32 32 0 0 1 32 32v117.376h64.832a12.8 12.8 0 0 1 9.792 20.992L555.093333 862.272l-1.6 1.536a12.8 12.8 0 0 1-17.984-1.536L435.413333 744.064a12.8 12.8 0 0 1 9.792-21.12l62.976 0.064V605.632a32 32 0 0 1 32-32zM538.069333 128a288 288 0 0 1 287.488 279.68 190.208 190.208 0 0 1 170.56 188.992 190.208 190.208 0 0 1-178.816 189.696l-11.136 0.32-94.72-0.064v-71.04h93.76l0.96 0.064a119.04 119.04 0 0 0 118.912-118.976c0-62.464-48.384-113.792-109.632-118.592l-9.28-0.32h-51.52v-62.144A216.832 216.832 0 0 0 538.069333 199.04 215.872 215.872 0 0 0 324.053333 381.44l-1.536 11.776-3.008 29.44-29.44 2.304a146.24 146.24 0 0 0-133.76 145.088c0 76.864 59.84 140.032 135.424 145.28l9.92 0.32h0.64l67.584-0.064v71.04H301.909333A216.832 216.832 0 0 1 85.333333 570.112c0-54.784 20.48-107.072 57.728-147.2A216 216 0 0 1 256.213333 358.272a287.104 287.104 0 0 1 88.64-155.712A286.976 286.976 0 0 1 538.069333 128z" fill="#5F6269"/>
    </g>
</svg>