<?xml version="1.0" encoding="utf-8"?><svg xmlns="http://www.w3.org/2000/svg" xmlns:xlink="http://www.w3.org/1999/xlink" width="1024px" height="1024px" viewBox="0 0 1024 1024" version="1.1">
    <g>
        <path d="M512 0a512 512 0 1 1 0 1024A512 512 0 0 1 512 0z m215.04 294.985143a42.642286 42.642286 0 0 0-60.342857 0L520.045714 441.417143 373.76 295.058286a42.788571 42.788571 0 0 0-60.489143 60.489143l146.432 146.432-146.358857 146.432a42.642286 42.642286 0 1 0 60.342857 60.342857l146.358857-146.432L666.404571 708.754286a42.788571 42.788571 0 0 0 60.489143-60.562286L580.461714 501.76 727.04 355.328a42.642286 42.642286 0 0 0 0-60.342857z" fill="#5F6269"/>
    </g>
</svg>