<?xml version="1.0" encoding="utf-8"?><svg xmlns="http://www.w3.org/2000/svg" xmlns:xlink="http://www.w3.org/1999/xlink" width="1024px" height="1024px" viewBox="0 0 1024 1024" version="1.1">
    <g>
        <path d="M9.142857 0h1024v1024H9.142857z" fill="#D8D8D8" fill-opacity="0"/>
        <path d="M521.142857 64a448 448 0 1 1 0 896A448 448 0 0 1 521.142857 64z m0 64a384 384 0 1 0 0 768A384 384 0 0 0 521.142857 128z m7.104 119.104c20.608 0 37.312 16.704 37.312 37.312v181.312h181.248a37.44 37.44 0 1 1 0 74.88H565.558857v181.12a37.312 37.312 0 0 1-74.624 0l-0.064-181.12h-181.12a37.44 37.44 0 1 1 0-74.88h181.12V284.416c0-20.608 16.768-37.312 37.376-37.312z" fill="#000000" fill-opacity=".451"/>
    </g>
</svg>