<?xml version="1.0" encoding="utf-8"?><svg xmlns="http://www.w3.org/2000/svg" xmlns:xlink="http://www.w3.org/1999/xlink" width="1024px" height="1024px" viewBox="0 0 1024 1024" version="1.1">
    <g>
        <path d="M669.538462 31.507692c-331.067077 0-638.030769 240.718769-638.03077 480.492308 0 239.773538 306.963692 480.492308 638.03077 480.492308 331.067077 0 638.030769-240.718769 638.030769-480.492308 0-239.773538-306.963692-480.492308-638.030769-480.492308z m0 94.523077c283.175385 0 543.507692 204.169846 543.507692 385.969231 0 181.799385-260.332308 385.969231-543.507692 385.969231s-543.507692-204.169846-543.507693-385.969231c0-181.799385 260.332308-385.969231 543.507693-385.969231z" fill="#787D8B"/>
        <path d="M669.538462 512m-196.923077 0a196.923077 196.923077 0 1 0 393.846153 0 196.923077 196.923077 0 1 0-393.846153 0Z" fill="#E92E5E"/>
    </g>
</svg>