<?xml version="1.0" encoding="utf-8"?><svg xmlns="http://www.w3.org/2000/svg" xmlns:xlink="http://www.w3.org/1999/xlink" width="1024px" height="1024px" viewBox="0 0 1024 1024" version="1.1">
    <g>
        <path d="M480.886154 140.918154a36.076308 36.076308 0 1 1 0 72.231384H151.000615v659.849847h659.849847V543.035077a36.076308 36.076308 0 1 1 72.231384 0v330.043077a72.310154 72.310154 0 0 1-72.231384 72.152615H151.000615A72.310154 72.310154 0 0 1 78.769231 872.999385V213.149538c0-39.857231 32.374154-72.231385 72.231384-72.231384h329.885539z m453.710769-51.593846c14.178462 14.178462 14.178462 37.021538 0 51.042461l-523.027692 523.106462a35.997538 35.997538 0 0 1-51.042462 0 36.076308 36.076308 0 0 1 0-51.042462l523.027693-523.027692c14.178462-14.178462 37.021538-14.178462 51.12123 0z" fill="#5F6269"/>
    </g>
</svg>