<?xml version="1.0" encoding="utf-8"?><svg xmlns="http://www.w3.org/2000/svg" xmlns:xlink="http://www.w3.org/1999/xlink" width="1024px" height="1024px" viewBox="0 0 1024 1024" version="1.1">
    <g>
        <path d="M9.142857 0h1024v1024H9.142857z" fill="#D8D8D8" fill-opacity="0"/>
        <path d="M513.142857 64c117.632 0 211.52 35.072 280.512 106.304 63.36 64.512 95.04 144.832 95.04 242.112 0 81.408-26.048 153.792-75.776 219.392-49.792 62.208-104.064 93.888-162.88 93.888-47.552 0-73.6-24.896-78.08-74.624-38.4 50.88-85.952 76.864-142.528 76.864-47.488 0-85.952-16.96-115.328-48.64-29.44-31.616-44.16-72.32-44.16-120.96 0-83.712 24.96-157.248 76.928-218.368 49.792-61.056 107.52-90.496 175.36-90.496 54.272 0 90.432 28.288 108.544 84.864l16.96-63.36h73.6L640.886857 566.208c-9.024 32.832-13.568 55.424-13.568 68.992 0 18.112 10.24 28.288 31.68 28.288 35.072 0 70.144-22.592 105.216-66.752 40.704-52.032 61.056-113.088 61.056-183.232 0-80.32-27.136-147.008-81.408-200.192C684.982857 155.648 605.878857 127.36 508.598857 127.36c-104.064 0-190.016 33.92-257.92 102.912C184.054857 298.112 151.222857 385.216 151.222857 489.28c0 114.24 32.832 202.496 100.672 264.704 63.36 58.816 150.464 89.344 261.312 89.344 79.168 0 149.312-14.72 208.128-42.944 52.032-26.048 93.888-61.12 125.568-106.368h79.168c-39.616 67.84-96.128 119.936-170.816 156.16-72.32 35.008-152.704 53.12-242.048 53.12-135.68 0-242.048-37.312-320.128-112C112.822857 714.368 73.142857 613.76 73.142857 487.04c0-118.784 39.616-217.152 119.872-296.32C276.726857 105.792 383.094857 64 513.142857 64z m21.504 256.768c-48.64 0-91.648 22.592-127.808 70.144-38.464 47.488-57.728 104.064-57.728 170.752 0 30.592 6.784 54.336 21.504 72.448 14.72 18.048 36.224 27.136 64.512 27.136 28.224 0 56.512-11.328 83.648-33.92a167.04 167.04 0 0 0 54.336-79.232L597.942857 455.36c6.784-29.44 11.264-47.488 11.264-54.272 0-20.352-6.784-38.464-19.2-53.12-14.72-18.176-32.832-27.2-55.424-27.2z" fill="#000000" fill-opacity=".451"/>
    </g>
</svg>