<?xml version="1.0" encoding="utf-8"?><svg xmlns="http://www.w3.org/2000/svg" xmlns:xlink="http://www.w3.org/1999/xlink" width="1024px" height="1024px" viewBox="0 0 1024 1024" version="1.1">
    <g>
        <path d="M548.571429 8.045714a503.954286 503.954286 0 1 0 0 1007.908572A503.954286 503.954286 0 0 0 548.571429 8.045714z m0 57.051429a446.902857 446.902857 0 1 1 0 893.805714A446.902857 446.902857 0 0 1 548.571429 65.097143z" fill="#000000" fill-opacity=".25"/>
        <path d="M519.314286 292.790857l16.676571 338.724572h56.612572l16.603428-338.724572H519.387429z m44.617143 374.710857c-14.628571 0-26.550857 4.681143-35.84 13.970286a45.056 45.056 0 0 0-15.36 35.913143c0 14.628571 4.681143 26.624 15.36 35.986286 9.289143 9.289143 21.211429 14.628571 35.84 14.628571s26.697143-4.681143 37.302857-13.970286c9.362286-9.289143 14.628571-21.942857 14.628571-36.571428s-5.266286-26.697143-14.628571-35.986286a52.882286 52.882286 0 0 0-37.302857-13.970286z" fill="#000000" fill-opacity=".25"/>
    </g>
</svg>