<?xml version="1.0" encoding="UTF-8"?>
<svg width="50px" height="50px" viewBox="0 0 50 50" version="1.1" xmlns="http://www.w3.org/2000/svg" xmlns:xlink="http://www.w3.org/1999/xlink">
    <title>自定义服务</title>
    <defs>
        <linearGradient x1="-6.23340181%" y1="82.0139567%" x2="134.094025%" y2="-71.3580904%" id="linearGradient-1">
            <stop stop-color="#FFCDA2" offset="0%"></stop>
            <stop stop-color="#FF78AD" stop-opacity="0.950375452" offset="23.9967264%"></stop>
            <stop stop-color="#AF42FF" stop-opacity="0.864264642" offset="100%"></stop>
        </linearGradient>
        <linearGradient x1="45.4270838%" y1="16.8376982%" x2="65.9763473%" y2="100%" id="linearGradient-2">
            <stop stop-color="#FFFFFF" offset="0%"></stop>
            <stop stop-color="#EC74C6" offset="100%"></stop>
        </linearGradient>
    </defs>
    <g id="1" stroke="none" stroke-width="1" fill="none" fill-rule="evenodd">
        <g id="切图" transform="translate(-389.000000, -92.000000)">
            <g id="自定义服务" transform="translate(389.000000, 92.000000)">
                <rect id="矩形" x="0" y="0" width="50" height="50"></rect>
                <g id="编组-3" transform="translate(6.000000, 6.000000)">
                    <ellipse id="椭圆形" fill="url(#linearGradient-1)" cx="19.3021642" cy="19.3491222" rx="19.3021642" ry="19.3491222"></ellipse>
                    <path d="M30.1726057,3.69228745 C35.1032424,7.13904605 38.3293283,12.8664265 38.3293283,19.3491222 C38.3293283,24.6163721 36.1995855,29.385002 32.7561649,32.8367997 C29.3129858,36.2883552 24.5562942,38.4232443 19.3021642,38.4232443 C15.2503856,38.4232443 11.4943898,37.1537074 8.4085178,34.9897095 L8.4085178,34.9897095 Z" id="椭圆形" stroke="url(#linearGradient-2)" stroke-width="0.55" fill-opacity="0.451467" fill="#FFFFFF"></path>
                    <path d="M10.1184158,18.4051424 C10.7243616,17.6160255 11.8705327,17.456099 12.6784606,18.0479368 L12.8743164,18.2138467 L13.0441812,18.4051424 L16.3356674,22.6916105 C16.6819222,23.1425344 16.5883572,23.7822401 16.1266842,24.1204331 C15.7227202,24.416352 15.1707749,24.383374 14.8071368,24.068422 L14.6638014,23.9163156 L11.5802038,19.9028548 L8.49879559,23.9163156 C8.19582265,24.3108741 7.65650118,24.4301617 7.2171199,24.2272558 L7.03591285,24.1204331 C6.63194894,23.8245143 6.50981775,23.2977497 6.71756055,22.8685985 L6.8269296,22.6916105 L10.1184158,18.4051424 Z" id="路径" fill="#FFFFFF" fill-rule="nonzero" transform="translate(11.581299, 21.007618) rotate(-90.000000) translate(-11.581299, -21.007618) "></path>
                    <path d="M24.4571663,18.4051424 C25.0631122,17.6160255 26.2092833,17.456099 27.0172111,18.0479368 L27.2130669,18.2138467 L27.3829318,18.4051424 L30.6744179,22.6916105 C31.0206727,23.1425344 30.9271077,23.7822401 30.4654347,24.1204331 C30.0614708,24.416352 29.5095254,24.383374 29.1458874,24.068422 L29.0025519,23.9163156 L25.9179283,19.9028548 L22.8375461,23.9163156 C22.5345732,24.3108741 21.9952517,24.4301617 21.5558704,24.2272558 L21.3746634,24.1204331 C20.9706995,23.8245143 20.8485683,23.2977497 21.0563111,22.8685985 L21.1656801,22.6916105 L24.4571663,18.4051424 Z" id="路径" fill="#FFFFFF" fill-rule="nonzero" transform="translate(25.920049, 21.007618) scale(-1, 1) rotate(-90.000000) translate(-25.920049, -21.007618) "></path>
                    <path d="M18.9263277,16.1144953 C19.1563867,15.5827701 19.7781907,15.3363978 20.315166,15.5642074 C20.7850194,15.7635408 21.0342423,16.2598717 20.9350851,16.7370541 L20.8708873,16.9394669 L17.472039,24.7950773 C17.2419801,25.3268025 16.620176,25.5731747 16.0832007,25.3453651 C15.6133473,25.1460317 15.3641244,24.6497009 15.4632816,24.1725184 L15.5274794,23.9701057 L18.9263277,16.1144953 Z" id="路径-36" fill="#FFFFFF" fill-rule="nonzero"></path>
                </g>
            </g>
        </g>
    </g>
</svg>