<?xml version="1.0" encoding="UTF-8"?>
<svg width="16px" height="16px" viewBox="0 0 16 16" version="1.1" xmlns="http://www.w3.org/2000/svg" xmlns:xlink="http://www.w3.org/1999/xlink">
    <title>代码</title>
    <g id="1" stroke="none" stroke-width="1" fill="none" fill-rule="evenodd">
        <g id="切图" transform="translate(-297.000000, -360.000000)" fill-rule="nonzero">
            <g id="代码" transform="translate(297.000000, 360.000000)">
                <rect id="矩形" fill="#000000" opacity="0" x="0" y="0" width="16" height="16"></rect>
                <path d="M12.6259412,2.08658487 C13.3991399,2.08658487 14.0259412,2.71338622 14.0259412,3.48658487 L14.0259412,3.48658487 L14.0259412,9.74588588 C14.0259412,10.5190845 13.3991399,11.1458859 12.6259412,11.1458859 L12.6259412,11.1458859 L3.40806079,11.1458859 C2.63486214,11.1458859 2.00806079,10.5190845 2.00806079,9.74588588 L2.00806079,9.74588588 L2.00806079,3.48658487 C2.00806079,2.71338622 2.63486214,2.08658487 3.40806079,2.08658487 L3.40806079,2.08658487 Z M12.6259412,2.88658487 L3.40806079,2.88658487 C3.07668994,2.88658487 2.80806079,3.15521402 2.80806079,3.48658487 L2.80806079,3.48658487 L2.80806079,9.74588588 C2.80806079,10.0772567 3.07668994,10.3458859 3.40806079,10.3458859 L3.40806079,10.3458859 L12.6259412,10.3458859 C12.9573121,10.3458859 13.2259412,10.0772567 13.2259412,9.74588588 L13.2259412,9.74588588 L13.2259412,3.48658487 C13.2259412,3.15521402 12.9573121,2.88658487 12.6259412,2.88658487 L12.6259412,2.88658487 Z M6.36542789,5.35999117 C6.48140769,5.5146309 6.4684826,5.72591878 6.34504311,5.86512154 L6.28542789,5.91999117 L4.71242789,7.10041024 L6.28542789,8.27999117 C6.44006762,8.39597097 6.48682015,8.60242636 6.407295,8.77062406 L6.36542789,8.83999117 C6.24944809,8.9946309 6.04299271,9.04138343 5.874795,8.96185828 L5.80542789,8.91999117 L4.12542789,7.65999117 C3.81614843,7.42803158 3.7534683,6.98927063 3.98542789,6.67999117 L4.05045314,6.60501643 L4.12542789,6.53999117 L5.80542789,5.27999117 C5.98215901,5.14744283 6.23287955,5.18326005 6.36542789,5.35999117 Z M9.82680302,5.35999117 C9.95935136,5.18326005 10.2100719,5.14744283 10.386803,5.27999117 L10.386803,5.27999117 L12.066803,6.53999117 L12.1417778,6.60501643 L12.206803,6.67999117 C12.4387626,6.98927063 12.3760825,7.42803158 12.066803,7.65999117 L12.066803,7.65999117 L10.386803,8.91999117 L10.3174359,8.96185828 C10.1492382,9.04138343 9.94278281,8.9946309 9.82680302,8.83999117 L9.82680302,8.83999117 L9.78493591,8.77062406 C9.70541076,8.60242636 9.75216329,8.39597097 9.90680302,8.27999117 L9.90680302,8.27999117 L11.479803,7.10080302 L9.90680302,5.91999117 L9.8471878,5.86512154 C9.7237483,5.72591878 9.71082322,5.5146309 9.82680302,5.35999117 Z M8.81816116,5.13232381 C8.99584037,5.20844777 9.09008621,5.39799288 9.05258902,5.58022536 L9.02831206,5.65752529 L7.74300754,8.65752529 C7.65600872,8.86058725 7.42086801,8.95467501 7.21780605,8.86767619 C7.04012684,8.79155223 6.945881,8.60200712 6.98337818,8.41977464 L7.00765515,8.34247471 L8.29295967,5.34247471 C8.37995849,5.13941275 8.6150992,5.04532499 8.81816116,5.13232381 Z M13.6164455,11.8679913 C13.8373594,11.8679913 14.0164455,12.0470774 14.0164455,12.2679913 C14.0164455,12.461291 13.8793327,12.6225662 13.6970595,12.6598647 L13.6164455,12.6679913 L2.6164455,12.6679913 C2.3955316,12.6679913 2.2164455,12.4889052 2.2164455,12.2679913 C2.2164455,12.0746917 2.3535583,11.9134164 2.53583155,11.8761179 L2.6164455,11.8679913 L13.6164455,11.8679913 Z" id="形状结合" fill="#5F6269"></path>
            </g>
        </g>
    </g>
</svg>