<?xml version="1.0" encoding="UTF-8"?>
<svg width="16px" height="16px" viewBox="0 0 16 16" version="1.1" xmlns="http://www.w3.org/2000/svg" xmlns:xlink="http://www.w3.org/1999/xlink">
    <title>日志</title>
    <g id="1" stroke="none" stroke-width="1" fill="none" fill-rule="evenodd">
        <g id="切图" transform="translate(-97.000000, -395.000000)" fill-rule="nonzero">
            <g id="日志" transform="translate(97.000000, 395.000000)">
                <rect id="矩形" fill="#000000" opacity="0" x="0" y="0" width="16" height="16"></rect>
                <path d="M14.02,2.66666667 L2.28666667,2.66666667 C1.84666667,2.66666667 1.48666667,3.02666667 1.48666667,3.46666667 L1.48666667,13.8666667 C1.48666667,14.3066667 1.84666667,14.6666667 2.28666667,14.6666667 L14.02,14.6666667 C14.46,14.6666667 14.82,14.3066667 14.82,13.8666667 L14.82,3.46666667 C14.82,3.02666667 14.4666667,2.66666667 14.02,2.66666667 Z M13.7533333,13.6 L2.55333333,13.6 L2.55333333,3.73333333 L13.7533333,3.73333333 L13.7533333,13.6 L13.7533333,13.6 Z" id="形状" fill="#4C4C4C"></path>
                <path d="M11.64,10.9333333 L5.20666667,10.9333333 C4.92,10.9333333 4.69333333,10.7 4.69333333,10.42 L4.69333333,10.3866667 C4.69333333,10.1 4.92666666,9.87333333 5.20666667,9.87333333 L11.64,9.87333333 C11.9266667,9.87333333 12.1533333,10.1066667 12.1533333,10.3866667 L12.1533333,10.42 C12.1533333,10.7 11.9266667,10.9333333 11.64,10.9333333 Z M11.62,8.53333333 L8.15333333,8.53333333 C7.86,8.53333333 7.62,8.29333333 7.62,8 C7.62,7.70666667 7.86,7.46666667 8.15333333,7.46666667 L11.62,7.46666667 C11.9133333,7.46666667 12.1533333,7.70666667 12.1533333,8 C12.1533333,8.29333333 11.92,8.53333333 11.62,8.53333333 Z M11.22,4.8 C10.9266667,4.8 10.6866667,4.56 10.6866667,4.26666667 L10.6866667,1.86666667 C10.6866667,1.57333334 10.9266667,1.33333333 11.22,1.33333333 C11.5133333,1.33333333 11.7533333,1.57333333 11.7533333,1.86666667 L11.7533333,4.26666667 C11.7533333,4.56 11.52,4.8 11.22,4.8 Z M5.08666667,4.8 C4.79333334,4.8 4.55333333,4.56 4.55333333,4.26666667 L4.55333333,1.86666667 C4.55333333,1.57333334 4.79333333,1.33333333 5.08666667,1.33333333 C5.38000002,1.33333333 5.62,1.57333333 5.62,1.86666667 L5.62,4.26666667 C5.62,4.56 5.38666667,4.8 5.08666667,4.8 Z" id="形状" fill="#4C4C4C"></path>
            </g>
        </g>
    </g>
</svg>