<?xml version="1.0" encoding="UTF-8"?>
<svg width="34px" height="34px" viewBox="0 0 34 34" version="1.1" xmlns="http://www.w3.org/2000/svg" xmlns:xlink="http://www.w3.org/1999/xlink">
    <title>数据设计-选中</title>
    <defs>
        <linearGradient x1="50%" y1="0%" x2="50%" y2="100%" id="linearGradient-1">
            <stop stop-color="#B0B4BF" offset="0%"></stop>
            <stop stop-color="#787D8B" offset="100%"></stop>
        </linearGradient>
        <rect id="path-2" x="0" y="0" width="26" height="26" rx="6"></rect>
        <filter x="-26.9%" y="-19.2%" width="153.8%" height="153.8%" filterUnits="objectBoundingBox" id="filter-3">
            <feOffset dx="0" dy="2" in="SourceAlpha" result="shadowOffsetOuter1"></feOffset>
            <feGaussianBlur stdDeviation="2" in="shadowOffsetOuter1" result="shadowBlurOuter1"></feGaussianBlur>
            <feComposite in="shadowBlurOuter1" in2="SourceAlpha" operator="out" result="shadowBlurOuter1"></feComposite>
            <feColorMatrix values="0 0 0 0 0.593658482   0 0 0 0 0.621895856   0 0 0 0 0.687783062  0 0 0 0.340854458 0" type="matrix" in="shadowBlurOuter1"></feColorMatrix>
        </filter>
        <linearGradient x1="100%" y1="0%" x2="0%" y2="0%" id="linearGradient-4">
            <stop stop-color="#B0A5A6" stop-opacity="0" offset="0%"></stop>
            <stop stop-color="#94888A" offset="50.3107779%"></stop>
            <stop stop-color="#786C6D" stop-opacity="0" offset="100%"></stop>
        </linearGradient>
        <linearGradient x1="50%" y1="100%" x2="50%" y2="3.061617e-15%" id="linearGradient-5">
            <stop stop-color="#FFAC94" offset="0%"></stop>
            <stop stop-color="#EE646D" offset="100%"></stop>
        </linearGradient>
        <linearGradient x1="50%" y1="100%" x2="50%" y2="3.061617e-15%" id="linearGradient-6">
            <stop stop-color="#FFAC94" offset="0%"></stop>
            <stop stop-color="#EE646D" offset="100%"></stop>
        </linearGradient>
    </defs>
    <g id="1" stroke="none" stroke-width="1" fill="none" fill-rule="evenodd">
        <g id="切图" transform="translate(-76.000000, -67.000000)">
            <g id="编组" transform="translate(80.000000, 69.000000)">
                <g id="Rectangle" fill-rule="nonzero">
                    <use fill="black" fill-opacity="1" filter="url(#filter-3)" xlink:href="#path-2"></use>
                    <rect stroke="url(#linearGradient-1)" stroke-width="0.5" stroke-linejoin="square" fill="#FFFFFF" fill-rule="evenodd" x="0.25" y="0.25" width="25.5" height="25.5" rx="6"></rect>
                </g>
                <line x1="3.2" y1="25.65" x2="22.45" y2="25.65" id="Path-2" stroke="url(#linearGradient-4)" stroke-width="0.5" fill-rule="nonzero"></line>
                <g id="编组-5" transform="translate(3.000000, 3.000000)">
                    <rect id="Rectangle" fill-opacity="0" fill="#D8D8D8" fill-rule="nonzero" x="0" y="0" width="20" height="20"></rect>
                    <path d="M14.9444444,3.05555556 C16.0490139,3.05555556 16.9444444,3.95098606 16.9444444,5.05555556 L16.9444444,14.9444444 C16.9444444,16.0490139 16.0490139,16.9444444 14.9444444,16.9444444 L5.75,16.9444444 C4.6454305,16.9444444 3.75,16.0490139 3.75,14.9444444 L3.75,5.05555556 C3.75,3.95098606 4.6454305,3.05555556 5.75,3.05555556 L14.9444444,3.05555556 Z M16.211603,11.5947172 L4.49753461,11.5947172 L4.49753461,12.8447172 L16.211603,12.8447172 L16.211603,11.5947172 Z M16.2131739,7.34320004 L4.49910551,7.34320004 L4.49910551,8.59320004 L16.2131739,8.59320004 L16.2131739,7.34320004 Z" id="形状结合" fill="url(#linearGradient-5)"></path>
                    <circle id="椭圆形" fill="url(#linearGradient-6)" cx="6.57006151" cy="5.89063433" r="1"></circle>
                    <circle id="椭圆形" fill="url(#linearGradient-6)" cx="6.57400468" cy="10.158528" r="1"></circle>
                    <circle id="椭圆形" fill="url(#linearGradient-6)" cx="6.56826314" cy="14.2832403" r="1"></circle>
                </g>
            </g>
        </g>
    </g>
</svg>