<?xml version="1.0" encoding="UTF-8"?>
<svg width="50px" height="50px" viewBox="0 0 50 50" version="1.1" xmlns="http://www.w3.org/2000/svg" xmlns:xlink="http://www.w3.org/1999/xlink">
    <title>REST API</title>
    <defs>
        <linearGradient x1="83.2756233%" y1="100%" x2="16.7243767%" y2="-1.77635684e-13%" id="linearGradient-1">
            <stop stop-color="#3DE0C8" offset="0%"></stop>
            <stop stop-color="#05ADD4" stop-opacity="0.864264642" offset="100%"></stop>
        </linearGradient>
        <linearGradient x1="46.149005%" y1="29.398769%" x2="31.0645631%" y2="75.2972498%" id="linearGradient-2">
            <stop stop-color="#FFFFFF" offset="0%"></stop>
            <stop stop-color="#2FC7D3" offset="100%"></stop>
        </linearGradient>
    </defs>
    <g id="1" stroke="none" stroke-width="1" fill="none" fill-rule="evenodd">
        <g id="切图" transform="translate(-237.000000, -94.000000)">
            <g id="REST-API" transform="translate(237.000000, 94.000000)">
                <rect id="矩形" x="0" y="0" width="50" height="50"></rect>
                <g id="编组-7" transform="translate(5.000000, 4.000000)">
                    <path d="M19.7213459,0 L31.4426919,0 L35.5226331,0 C37.4431298,-3.01732478e-15 39,1.55687017 39,3.47736686 L39,6.95473372 L39,22.5 C39,31.0604136 32.0604136,38 23.5,38 C14.9395864,38 8,31.0604136 8,22.5 L8,11.7213459 C8,5.24782533 13.2478253,1.18916644e-15 19.7213459,0 Z" id="矩形" fill="url(#linearGradient-1)"></path>
                    <rect id="矩形" stroke="url(#linearGradient-2)" stroke-width="0.5" fill-opacity="0.451467" fill="#FFFFFF" x="0.25" y="10.25" width="24.5" height="30.5" rx="2"></rect>
                    <text id="API" font-family="PingFangSC-Medium, PingFang SC" font-size="12" font-weight="400" fill="#FFFFFF">
                        <tspan x="15" y="26">API</tspan>
                    </text>
                </g>
            </g>
        </g>
    </g>
</svg>