<?xml version="1.0" encoding="UTF-8"?>
<svg width="22px" height="22px" viewBox="0 0 22 22" version="1.1" xmlns="http://www.w3.org/2000/svg" xmlns:xlink="http://www.w3.org/1999/xlink">
    <title>文档</title>
    <g id="1" stroke="none" stroke-width="1" fill="none" fill-rule="evenodd">
        <g id="切图" transform="translate(-71.000000, -429.000000)">
            <g id="文档" transform="translate(71.000000, 429.000000)">
                <rect id="矩形备份-7" fill="#D8D8D8" opacity="0" x="0" y="0" width="22" height="22"></rect>
                <g id="文档-(1)" transform="translate(5.000000, 3.000000)" fill="#5F6269" fill-rule="nonzero" stroke="#5F6269" stroke-width="0.6">
                    <path d="M9.375,0 L8.75,0 L1.25,0 C0.5,0 0,0.5 0,1.25 L0,13.75 C0,14.5 0.5,15 1.25,15 L11.25,15 C12,15 12.5,14.5 12.5,13.75 L12.5,3.75 L12.5,3.125 L9.375,0 Z M11.875,13.5 C11.875,14 11.5,14.5 10.875,14.5 L1.5,14.5 C1,14.5 0.5,14.125 0.5,13.5 L0.5,1.5 C0.5,1 0.875,0.5 1.5,0.5 L8.75,0.5 L8.75,2.5 C8.75,3.25 9.25,3.75 10,3.75 L11.875,3.75 L11.875,13.5 Z M10.25,3.125 C9.75,3.125 9.25,2.75 9.25,2.125 L9.25,0.625 L11.75,3.125 L10.25,3.125 Z" id="形状"></path>
                    <path d="M9.75,5.625 L2.75,5.625 C2.625,5.625 2.5,5.5 2.5,5.375 L2.5,5.375 C2.5,5.125 2.625,5 2.75,5 L9.625,5 C9.875,5 10,5.125 10,5.375 L10,5.375 C10,5.5 9.875,5.625 9.75,5.625 Z" id="路径"></path>
                    <path d="M9.75,8.5 L2.75,8.5 C2.625,8.5 2.5,8.25 2.5,8.125 L2.5,8.125 C2.5,8 2.625,7.875 2.75,7.875 L9.625,7.875 C9.75,7.875 9.875,8 9.875,8.125 L9.875,8.125 C10,8.25 9.875,8.5 9.75,8.5 Z" id="路径"></path>
                    <path d="M6,11.25 L2.75,11.25 C2.625,11.25 2.5,11.125 2.5,10.875 L2.5,10.875 C2.5,10.75 2.625,10.625 2.75,10.625 L5.875,10.625 C6,10.625 6.125,10.75 6.125,10.875 L6.125,10.875 C6.25,11.125 6.125,11.25 6,11.25 Z" id="路径"></path>
                </g>
            </g>
        </g>
    </g>
</svg>