<?xml version="1.0" encoding="UTF-8"?>
<svg width="142px" height="161px" viewBox="0 0 142 161" version="1.1" xmlns="http://www.w3.org/2000/svg" xmlns:xlink="http://www.w3.org/1999/xlink">
    <title>编组</title>
    <defs>
        <linearGradient x1="68.8119171%" y1="9.2753289%" x2="28.853056%" y2="69.9287515%" id="linearGradient-1">
            <stop stop-color="#FFEAF0" offset="0%"></stop>
            <stop stop-color="#FFFEFD" stop-opacity="0" offset="100%"></stop>
        </linearGradient>
        <linearGradient x1="82.0354241%" y1="11.1947696%" x2="13.9881829%" y2="68.9894669%" id="linearGradient-2">
            <stop stop-color="#FFEAF0" offset="0%"></stop>
            <stop stop-color="#FFFEFD" stop-opacity="0" offset="100%"></stop>
        </linearGradient>
        <path d="M123.413784,24.1847754 L117.194492,18.3608108 C117.194492,18.3608108 112.28743,14.3908497 106,18.911818 L106,18.911818 L117.718444,29.6677479 L111.166688,36.2628967 C111.166688,36.2628967 106.804725,41.8971703 111.07858,48.4381216 L111.07858,48.4381216 L123.998825,35.4329987 L129.631902,40.6020777 C129.631902,40.6020777 137.337293,45.9766554 141.898969,41.584406 L141.898969,41.584406 L142,41.4827858 L129.3758,29.898087 L135.247357,23.9837933 C135.247357,23.9837933 138.48153,16.3058253 134.232346,13.2967393 L134.232346,13.2967393 L123.413784,24.1847754 Z" id="path-3"></path>
    </defs>
    <g id="----登录登出优化" stroke="none" stroke-width="1" fill="none" fill-rule="evenodd">
        <g id="切图" transform="translate(-39.000000, -185.000000)">
            <g id="编组" transform="translate(39.000000, 185.000000)">
                <path d="M50.8277219,30.9090284 C39.6461172,43.202827 17.3670691,59.5322525 10.8949435,70.4219142 L10.8949435,70.4219142 C-8.00461184,103.612243 1.93116792,119.638771 9.14177974,133.511239 L9.14177974,133.511239 C16.3512062,147.38258 38.1193593,160.376758 60.1684454,160.510638 L60.1684454,160.510638 C82.21279,160.640245 114.518891,148.129126 121.634673,113.797021 L121.634673,113.797021 C128.750456,79.4671683 105.735292,63.9236992 105.735292,63.9236992 L105.735292,63.9236992 C105.735292,63.9236992 112.347292,97.51151 88.0815618,94.7437726 L88.0815618,94.7437726 C63.8170173,91.9782873 73.4754203,71.6965598 75.9718116,66.2939544 L75.9718116,66.2939544 C78.4693883,60.894727 87.5256228,52.5081899 85.4002526,31.434876 L85.4002526,31.434876 C82.8114023,3.77777014 54.8947298,0 54.8947298,0 L54.8947298,0 C54.8947298,0 62.014068,18.6152298 50.8277219,30.9090284" id="Clip-2" fill="url(#linearGradient-1)"></path>
                <mask id="mask-4" fill="white">
                    <use xlink:href="#path-3"></use>
                </mask>
                <use id="Clip-4" fill="url(#linearGradient-2)" xlink:href="#path-3"></use>
            </g>
        </g>
    </g>
</svg>