<?xml version="1.0" encoding="UTF-8"?>
<svg width="16px" height="16px" viewBox="0 0 16 16" version="1.1" xmlns="http://www.w3.org/2000/svg" xmlns:xlink="http://www.w3.org/1999/xlink">
    <title>退出 (1)</title>
    <g id="----登录登出优化" stroke="none" stroke-width="1" fill="none" fill-rule="evenodd">
        <g id="切图" transform="translate(-102.000000, -137.000000)" fill="#787D8B" fill-rule="nonzero">
            <g id="退出-(1)" transform="translate(102.000000, 137.000000)">
                <path d="M14.0897778,9.11481051 L14.0847615,9.11481051 L14.035742,9.06991229 L14.035742,7.73921574 L7.3970474,7.73921574 L7.3970474,6.75237603 L14.035742,6.75237603 L14.035742,5.37974776 L16,7.17885825 L16,7.18406158 L14.0897778,9.11481051 Z M10.5734266,0.944973794 L2.4146822,0.944973794 L5.54399378,2.43623813 C5.95993784,2.63445536 6.29779642,3.12049485 6.29779642,3.52151661 L6.34685314,12.3688278 C6.38271329,12.3608074 6.42002797,12.3564295 6.45843046,12.3564295 L10.5858586,12.3564295 L10.5858586,9.24040829 L11.5679876,9.24040829 L11.5679876,12.8289164 C11.5679876,13.0898607 11.3481274,13.3014033 11.0769231,13.3014033 L6.45843046,13.3014033 C6.42184926,13.3014033 6.38625641,13.297438 6.35196271,13.2901353 L6.36617249,15.853311 C6.36617249,15.9878202 6.25311578,16.0391179 6.11374669,15.9679339 L0.611592859,13.0310271 C0.273392379,12.8582823 0,12.450556 0.000615390384,12.1201143 L0.0187288327,0.601649258 C0.00662005455,0.560578789 0,0.517289413 0,0.472486897 C0,0.42140449 0.00852835747,0.372265849 0.0241118868,0.326189411 C0.0484164698,0.150699393 0.161485631,0.0445931881 0.320969696,0.0291446723 C0.373973589,0.0103109845 0.431260303,0 0.491064491,0 L11.0644911,0 C11.3356954,0 11.5555555,0.211536565 11.5555555,0.472486897 C11.5555555,0.505273897 11.5520746,0.537277413 11.545467,0.568180445 C11.5520746,0.599083477 11.5555555,0.631086993 11.5555555,0.663873993 L11.5555555,5.19137502 L10.5734266,5.19137502 L10.5734266,0.944973794 Z" id="形状"></path>
            </g>
        </g>
    </g>
</svg>