<?xml version="1.0" encoding="utf-8"?><svg xmlns="http://www.w3.org/2000/svg" xmlns:xlink="http://www.w3.org/1999/xlink" width="1024px" height="1024px" viewBox="0 0 1024 1024" version="1.1">
    <g>
        <path d="M788.352 136.96c52.288 0 94.656 42.432 94.656 94.72v392.96c0 52.288-42.368 94.72-94.656 94.72h-80.832v105.92h131.2a30.848 30.848 0 0 1 0 61.696H172.928a30.848 30.848 0 1 1 0-61.696h144.64v-105.984H236.608a94.656 94.656 0 0 1-94.72-94.656V231.68c0-52.288 42.432-94.72 94.72-94.72h551.68z m-142.592 582.4H379.2v105.92h266.56v-105.984z m146.688-519.616H231.552a28.8 28.8 0 0 0-28.8 28.352v399.616a28.8 28.8 0 0 0 28.288 28.8H792.448a28.8 28.8 0 0 0 28.8-28.288V228.48a28.8 28.8 0 0 0-28.8-28.8zM372.736 307.008a32.64 32.64 0 0 1 16.256 3.648 31.168 31.168 0 0 1 10.496 9.472c2.688 3.84 4.928 8.064 6.72 12.416 1.856 4.48 4.16 10.368 7.04 17.728l60.032 147.904 0.256 0.64c4.48 10.88 6.784 18.88 6.784 23.936 0 5.312-2.24 10.176-6.656 14.592a21.952 21.952 0 0 1-16.064 6.656 19.264 19.264 0 0 1-16-7.296 48.832 48.832 0 0 1-5.76-10.24 603.52 603.52 0 0 1-5.248-12.352l-10.944-28.736H326.144l-11.008 29.44-0.192 0.64a100.48 100.48 0 0 1-10.752 22.528c-3.072 4.032-8 6.016-14.912 6.016a21.888 21.888 0 0 1-15.552-6.4 19.584 19.584 0 0 1-6.72-14.528c0-3.2 0.512-6.4 1.536-9.728a195.84 195.84 0 0 1 5.184-13.888l58.88-148.864 0.192-0.576 5.76-14.784c2.432-6.016 4.928-11.008 7.552-14.976a30.528 30.528 0 0 1 10.56-9.6 32.32 32.32 0 0 1 16-3.648z m216.064 3.84c17.664 0 31.232 1.408 40.768 4.096a58.496 58.496 0 0 1 40 35.2c3.584 8.768 5.312 18.56 5.312 29.568 0 23.36-7.168 40.96-21.632 53.056-14.4 12.032-35.904 18.048-64.448 18.048h-34.112v64.896c0 9.28-2.176 16.32-6.592 21.12a21.568 21.568 0 0 1-16.64 7.168 21.76 21.76 0 0 1-16.896-7.104c-4.288-4.736-6.4-11.712-6.4-20.864v-176.64c0-10.24 2.304-17.536 7.04-21.888 4.672-4.416 12.16-6.592 22.4-6.592h51.2z m145.664-3.84c7.04 0 12.672 2.304 17.024 6.976 4.352 4.608 6.528 11.648 6.528 21.12v181.248c-0.128 9.152-2.304 16-6.528 20.608a22.08 22.08 0 0 1-17.024 7.04 21.44 21.44 0 0 1-16.512-7.104c-4.352-4.736-6.528-11.84-6.528-21.184V334.528c0.064-9.088 2.24-15.872 6.4-20.48a21.504 21.504 0 0 1 16.64-7.04zM372.48 355.84L338.368 450.56h68.736l-34.688-94.592z m213.632-10.112h-31.36v70.016h31.36c11.008 0 20.16-1.152 27.52-3.456a32.064 32.064 0 0 0 16.896-11.264 33.472 33.472 0 0 0 5.76-20.48 34.688 34.688 0 0 0-8.96-24.704c-6.656-6.72-20.416-10.112-41.216-10.112z" fill="#5F6269"/>
    </g>
</svg>