<?xml version="1.0" encoding="utf-8"?><svg xmlns="http://www.w3.org/2000/svg" xmlns:xlink="http://www.w3.org/1999/xlink" width="1024px" height="1024px" viewBox="0 0 1024 1024" version="1.1">
    <g>
        <path d="M480 64a480 480 0 1 1 0 960 480 480 0 0 1 0-960z m0 51.2a428.8 428.8 0 1 0 0 857.6 428.8 428.8 0 0 0 0-857.6zM340.608 295.68l37.44 17.28a728.32 728.32 0 0 1-42.624 107.136V825.6h-40.32V490.944c-19.584 29.952-40.896 58.176-64.512 84.672l-13.824-43.776a640.384 640.384 0 0 0 123.84-236.16z m206.208-0.576l40.896 5.76c-1.152 17.28-2.88 34.56-4.032 50.688h142.848v38.016H579.072c-2.304 17.28-5.184 33.984-7.488 50.112h116.928v330.624h54.72v38.016H365.952v-38.016h59.328V439.68h105.408c2.304-16.704 5.184-33.408 7.488-50.112H390.72v-38.016h151.488c1.728-19.008 3.456-38.016 4.608-56.448z m101.952 424.512H465.024v50.688h183.744v-50.688z m0-81.792H465.024v48.384h183.744v-48.384z m0-80.64H465.024v47.232h183.744v-47.232z m0-80.064H465.024v46.656h183.744v-46.656z" fill="#5F6269"/>
    </g>
</svg>