<?xml version="1.0" encoding="utf-8"?><svg xmlns="http://www.w3.org/2000/svg" xmlns:xlink="http://www.w3.org/1999/xlink" width="1024px" height="1024px" viewBox="0 0 1024 1024" version="1.1">
    <g>
        <path d="M0 0m102.4 0l819.2 0q102.4 0 102.4 102.4l0 819.2q0 102.4-102.4 102.4l-819.2 0q-102.4 0-102.4-102.4l0-819.2q0-102.4 102.4-102.4Z" fill="#363B35" fill-opacity="0"/>
        <path d="M489.728 153.6c151.04 0 274.432 120.832 278.528 270.9504a184.2688 184.2688 0 0 1 165.1712 183.04 184.2176 184.2176 0 0 1-184.0128 184.0128h-488.448A210.0224 210.0224 0 0 1 51.2 581.8368c0-53.0944 19.8656-103.7824 55.9616-142.6432a209.2032 209.2032 0 0 1 109.5168-62.464 278.0672 278.0672 0 0 1 85.8112-150.8352A277.9648 277.9648 0 0 1 489.728 153.6z m0 68.8128A209.1008 209.1008 0 0 0 281.088 410.4704l-2.9184 28.5184-28.5696 2.2528a141.6704 141.6704 0 0 0-129.536 140.5952 141.1584 141.1584 0 0 0 140.8 141.0048h488.6528c63.488 0 115.2-51.712 115.2-115.2 0-63.5904-51.712-115.2512-115.2512-115.2512h-49.8688V432.128a210.0224 210.0224 0 0 0-209.8176-209.7664z" fill="#787D8B"/>
        <path d="M326.912 704.9728h330.8544V870.4H326.912z" fill="#FFFFFF"/>
        <path d="M603.6992 722.944a10.24 10.24 0 0 1-6.5536 2.4064h-67.3792v119.0912a25.6 25.6 0 0 1-25.6 25.6H486.4a25.6 25.6 0 0 1-25.6-25.6v-119.0912H395.2128a10.24 10.24 0 0 1-7.8336-16.8448l101.5296-120.064a10.24 10.24 0 0 1 15.6672 0l100.4544 120.1152a10.24 10.24 0 0 1-1.28 14.4384z" fill="#E92E5E"/>
    </g>
</svg>