<?xml version="1.0" encoding="utf-8"?><svg xmlns="http://www.w3.org/2000/svg" xmlns:xlink="http://www.w3.org/1999/xlink" width="1024px" height="1024px" viewBox="0 0 1024 1024" version="1.1">
    <g>
        <path d="M897.664 305.6c-0.576-10.752-1.92-21.44-2.88-32.448-3.2 0-5.76 0.192-8.192 0-8.256-0.704-16.64-0.832-24.64-2.496a92.864 92.864 0 0 1-51.584-29.44 89.6 89.6 0 0 1-20.928-38.4c-3.328-13.44-5.568-27.2-8.32-40.96l-4.992-1.792c-36.48-13.44-72.896-26.944-109.312-40.512-29.248-10.88-58.368-21.76-87.68-32.512-19.2-7.04-38.528-13.952-57.92-20.608-8.064-2.816-15.616-4.096-24.448 0.384-12.544 6.336-26.304 9.984-39.552 14.912a23485.568 23485.568 0 0 0-163.712 60.8l-52.736 19.776c-1.088 8.32-1.536 16.512-3.456 24.32a202.56 202.56 0 0 1-10.24 33.024c-5.12 11.712-13.248 21.696-23.04 30.08a88.96 88.96 0 0 1-40.192 20.16c-11.52 2.304-23.296 2.752-35.712 4.16-0.32 3.584-0.768 7.552-1.024 11.52-1.344 17.792-3.072 35.648-3.84 53.44-0.512 10.24 0.384 20.48 0.832 30.72 0.896 19.584 1.856 39.168 3.072 58.688 0.64 11.008 1.472 22.016 3.136 32.896 2.56 17.28 5.12 34.752 8.96 51.84 5.888 26.112 11.84 52.288 19.648 77.824 7.04 22.848 16.384 44.992 25.088 67.328 9.92 25.408 22.912 49.28 36.992 72.512 13.184 21.632 27.648 42.432 43.84 61.888 14.08 16.96 28.16 33.92 44.928 48.32 13.952 12.032 27.52 24.512 41.856 36.032 23.872 19.2 49.664 35.456 76.8 49.408 19.584 10.048 39.936 18.56 59.904 27.968a50.56 50.56 0 0 0 37.248 3.072c15.104-4.736 29.632-11.52 44.032-18.432 30.784-14.72 60.16-31.808 88.064-51.84 22.272-16 42.944-33.792 62.72-52.736a331.52 331.52 0 0 0 19.264-20.48c8.576-9.728 17.28-19.392 25.152-29.632 17.28-22.592 33.664-45.888 46.784-71.232 10.56-20.48 21.824-40.704 30.464-61.952 10.496-25.856 19.2-52.48 27.392-79.104 9.472-30.848 16.064-62.464 20.224-94.528 2.88-22.272 5.824-44.544 7.872-66.88a536.32 536.32 0 0 0 2.048-49.28c0-18.56-1.024-37.184-1.92-55.808z m-69.952 72.128c-0.704 16.832-1.28 33.792-2.944 50.56a648.832 648.832 0 0 1-21.44 115.712c-6.272 21.888-14.016 43.392-21.696 64.896-3.584 10.048-8.512 19.712-12.992 29.44-11.52 24.96-25.28 48.512-41.216 70.784-8.192 11.52-17.088 22.528-26.048 33.472-6.912 8.384-13.952 16.64-21.632 24.32a458.176 458.176 0 0 1-27.904 25.216 475.648 475.648 0 0 1-31.872 25.216c-12.672 8.96-25.728 17.344-39.168 25.088-13.056 7.488-26.624 14.08-40.192 20.608a242.56 242.56 0 0 1-26.624 11.328c-2.88 0.96-7.04-0.512-10.112-1.856-15.68-6.976-31.552-13.76-46.848-21.568a417.408 417.408 0 0 1-66.176-41.728 584.64 584.64 0 0 1-32.768-27.2 315.84 315.84 0 0 1-26.304-26.368 890.24 890.24 0 0 1-33.408-40.768 386.688 386.688 0 0 1-38.208-61.824 479.744 479.744 0 0 1-34.368-84.8 1098.24 1098.24 0 0 1-17.408-67.072c-3.584-16.256-5.568-32.96-7.68-49.6a472.96 472.96 0 0 1-3.776-40.064c-1.024-24.448-1.344-48.896-1.92-73.344a22.4 22.4 0 0 1 1.088-7.232c0.32-1.088 1.92-2.112 3.2-2.432a134.784 134.784 0 0 0 98.88-100.416l2.432-10.112c21.632-8 43.2-16 64.768-23.872 17.28-6.4 34.56-12.608 51.776-18.944 28.032-10.368 56.064-20.672 83.968-31.36a25.6 25.6 0 0 1 19.648 0c33.088 12.608 66.368 24.576 99.584 36.8l100.48 37.056 1.408 0.256c4.672 25.28 14.592 48.32 31.488 67.712 17.28 19.904 38.656 34.304 64.64 41.024 1.92 0.512 3.968 0.96 5.632 1.92 1.216 0.64 2.624 2.112 2.752 3.328 0.512 7.424 0.832 14.912 1.024 22.4 0.128 7.744 0.32 15.616 0 23.424zM348.928 449.856l181.568 181.568-45.184 45.184-181.568-181.568 45.184-45.184z m136.32 226.816l-45.76-45.824 271.552-271.552 45.76 45.824-271.488 271.552z" fill="#5F6269"/>
    </g>
</svg>