<?xml version="1.0" encoding="utf-8"?><svg xmlns="http://www.w3.org/2000/svg" xmlns:xlink="http://www.w3.org/1999/xlink" width="1024px" height="1024px" viewBox="0 0 1024 1024" version="1.1">
    <g>
        <path d="M511.872 69.504c118.144 0 229.12 46.016 312.512 129.472a439.104 439.104 0 0 1 129.536 312.512c0 118.016-46.08 229.12-129.536 312.512A439.424 439.424 0 0 1 511.872 953.6a439.168 439.168 0 0 1-312.576-129.472c-172.288-172.352-172.288-452.8 0-625.152a439.168 439.168 0 0 1 312.576-129.472z m0 61.696a378.24 378.24 0 0 0-268.992 111.36 380.928 380.928 0 0 0 0 538.048 378.24 378.24 0 0 0 268.992 111.36 378.24 378.24 0 0 0 269.056-111.36 377.6 377.6 0 0 0 111.36-268.992 378.24 378.24 0 0 0-111.36-268.992A377.792 377.792 0 0 0 511.872 131.2z m10.752 281.6c6.976 1.728 12.992 6.08 18.048 13.312a40.32 40.32 0 0 1 10.24 25.088v73.408c0 14.4 0.192 28.608 0.64 42.624 0.32 20.288 0.576 40.64 0.576 60.992v65.344h0.064a42.752 42.752 0 0 1-8.896 22.656 46.208 46.208 0 0 1-17.472 14.272 32.768 32.768 0 0 1-21.312 1.92 36.352 36.352 0 0 1-20.416-14.016 39.616 39.616 0 0 1-7.296-14.272 88.96 88.96 0 0 1-2.88-16.512 162.624 162.624 0 0 1-0.32-17.088 448 448 0 0 0 0.32-15.616c-0.448-24.96-0.512-49.792-0.32-74.432 0.192-24.576 0.128-49.408-0.32-74.368 0-10.24-0.64-20.416-1.92-30.784-1.28-10.432-0.576-20.736 1.92-30.848a45.312 45.312 0 0 1 28.928-31.104 37.12 37.12 0 0 1 20.416-0.576z m-9.216-126.272c10.24 0.192 19.584 4.096 28.288 11.776 8.704 7.616 13.312 18.368 13.696 32.384 0.832 14.4-2.88 25.536-11.072 33.408a47.04 47.04 0 0 1-28.352 13.312 42.048 42.048 0 0 1-29.888-8.64c-9.28-6.784-14.976-17.536-17.088-32.384l-0.64-4.48c1.664-15.68 7.04-27.2 16.128-34.56a43.648 43.648 0 0 1 28.928-10.88z" fill="#5F6269"/>
    </g>
</svg>