<?xml version="1.0" encoding="utf-8"?><svg xmlns="http://www.w3.org/2000/svg" xmlns:xlink="http://www.w3.org/1999/xlink" width="1024px" height="1024px" viewBox="0 0 1024 1024" version="1.1">
    <g>
        <path d="M805.021538 140.603077a83.968 83.968 0 0 1 83.889231 84.046769v574.700308a83.968 83.968 0 0 1-83.968 84.046769H230.242462a83.495385 83.495385 0 0 1-59.392-24.654769 83.495385 83.495385 0 0 1-24.576-59.392l1.339076-64.984616a31.035077 31.035077 0 0 0-61.991384-0.236307l-1.260308 65.142154A145.880615 145.880615 0 0 0 230.242462 945.230769h574.700307a145.723077 145.723077 0 0 0 145.801846-145.880615V224.649846A145.723077 145.723077 0 0 0 805.021538 78.769231H424.644923a30.956308 30.956308 0 0 0 0 61.833846h380.219077z" fill="#5F6269"/>
        <path d="M782.729846 375.414154a67.584 67.584 0 0 1 4.962462 25.363692c0 4.726154-0.945231 9.609846-2.756923 14.336a43.716923 43.716923 0 0 1-8.743385 13.784616 619.598769 619.598769 0 0 1-11.815385 11.579076l-9.058461 8.822154a148.086154 148.086154 0 0 1-8.270769 7.719385L644.332308 353.988923l15.675077-14.651077c6.065231-5.671385 11.027692-10.24 15.123692-13.469538A48.206769 48.206769 0 0 1 707.268923 315.076923a61.124923 61.124923 0 0 1 15.36 2.520615c4.962462 1.417846 9.216 3.150769 12.918154 4.962462 7.640615 4.017231 16.147692 11.027692 25.521231 21.267692 9.294769 10.003692 16.541538 20.637538 21.661538 31.586462zM354.934154 644.411077l15.36-15.753846c8.034462-8.270769 18.116923-18.432 30.247384-30.562462l40.093539-40.172307 44.425846-44.740924 118.153846-118.468923L705.772308 498.372923 587.776 616.763077l-43.953231 44.583385c-14.651077 14.336-27.805538 27.569231-39.542154 39.384615a5531.963077 5531.963077 0 0 1-29.144615 29.538461 237.883077 237.883077 0 0 1-26.308923 23.63077 68.686769 68.686769 0 0 1-14.808615 8.900923c-5.12 2.520615-12.603077 5.671385-22.528 9.373538a759.571692 759.571692 0 0 1-61.755077 19.849846 232.211692 232.211692 0 0 1-21.740308 4.883693c-9.846154 1.102769-16.462769-0.315077-19.692308-4.332308-3.308308-4.096-4.253538-10.870154-2.835692-20.48 0.787692-5.12 2.520615-12.603077 5.277538-22.291692l8.743385-30.247385c3.150769-10.476308 6.144-20.164923 9.058462-28.987077 2.914462-8.822154 5.356308-14.887385 7.168-18.116923a92.16 92.16 0 0 1 7.404307-14.099692c2.756923-4.253538 6.695385-8.900923 11.815385-14.020923z" fill="#5F6269"/>
    </g>
</svg>