<?xml version="1.0" encoding="utf-8"?><svg xmlns="http://www.w3.org/2000/svg" xmlns:xlink="http://www.w3.org/1999/xlink" width="1024px" height="1024px" viewBox="0 0 1024 1024" version="1.1">
    <g>
        <path d="M870.4 102.4a51.2 51.2 0 0 1 51.2 51.2v716.8a51.2 51.2 0 0 1-51.2 51.2H153.6a51.2 51.2 0 0 1-51.2-51.2V153.6a51.2 51.2 0 0 1 51.2-51.2h716.8z m0 51.2H153.6v716.8h716.8V153.6z" fill="#787D8B"/>
        <path d="M102.4 214.016l793.6 1.024v30.72L102.4 244.736z" fill="#787D8B"/>
        <path d="M343.1424 368.0768a25.6 25.6 0 0 1 35.7888-5.6832l372.736 270.848a25.6 25.6 0 0 1 5.6832 35.7376l-90.2656 124.2624a25.6 25.6 0 0 1-35.7376 5.6832l-372.7872-270.848a25.6 25.6 0 0 1-5.6832-35.7376l90.2656-124.2624z m24.064 36.5056l-72.192 99.4304 347.904 252.7744 72.192-99.4304-347.8528-252.7744z" fill="#787D8B"/>
        <path d="M581.2224 596.48l-63.6928 87.6544-20.6848-15.0528 63.6928-87.6544zM498.3808 536.2688L434.688 623.9232l-20.6848-15.0016L477.696 521.216zM415.5392 476.1088L351.8464 563.712l-20.6848-15.0528 63.6928-87.6544zM664.064 656.64l-63.6928 87.7056-20.6848-15.0528 63.6928-87.7056z" fill="#787D8B"/>
        <path d="M607.744 372.8384l82.7904 60.2112-240.7424 331.3664-82.8416-60.16zM446.976 771.584l-82.8416 21.0944v-81.2544z" fill="#E92E5E"/>
    </g>
</svg>