<?xml version="1.0" encoding="utf-8"?><svg xmlns="http://www.w3.org/2000/svg" xmlns:xlink="http://www.w3.org/1999/xlink" width="1024px" height="1024px" viewBox="0 0 1024 1024" version="1.1">
    <g>
        <path d="M1149.672727 60.509091v902.981818H930.909091a32.581818 32.581818 0 0 1-6.516364-64.512L930.909091 898.327273h153.6v-772.654546h-152.855273a32.581818 32.581818 0 0 1-31.930182-26.065454L899.072 93.090909c0-15.825455 11.170909-28.858182 26.065455-31.930182l6.516363-0.651636h218.018909zM279.272727 60.509091a32.581818 32.581818 0 0 1 6.516364 64.512L279.272727 125.672727H125.672727v772.654546h152.948364c15.825455 0 28.858182 11.170909 31.930182 26.065454l0.651636 6.516364c0 15.825455-11.170909 28.858182-25.972364 31.930182l-6.516363 0.651636H60.509091V60.509091H279.272727z m309.899637 695.202909a51.2 51.2 0 0 1 38.446545 15.173818 51.2 51.2 0 0 1 15.266909 37.608727 51.944727 51.944727 0 0 1-15.266909 38.539637 56.506182 56.506182 0 0 1-38.446545 15.173818 51.944727 51.944727 0 0 1-38.539637-15.173818 52.130909 52.130909 0 0 1-16.104727-38.539637c0-15.173818 5.399273-27.741091 16.104727-37.608727a48.686545 48.686545 0 0 1 38.539637-15.173818z m1.303272-571.298909c57.250909 0 103.796364 15.173818 137.774546 47.476364 33.233455 30.347636 50.269091 72.424727 50.269091 126.138181 0 40.308364-11.729455 75.217455-33.140364 104.727273-9.029818 10.705455-34.071273 33.978182-73.448727 68.887273a179.665455 179.665455 0 0 0-41.146182 48.407273 128.186182 128.186182 0 0 0-17.035636 66.187636v20.573091h-72.517819v-20.48c0-29.602909 5.399273-55.575273 17.035637-77.917091 11.636364-26.903273 42.077091-60.881455 90.391273-103.889455 14.336-14.336 24.203636-25.041455 30.440727-32.209454 17.035636-22.341818 25.972364-45.614545 25.972363-70.749091 0-35.746909-9.867636-63.488-29.509818-83.223273-21.504-21.410909-51.106909-31.278545-88.622545-31.278545-43.938909 0-76.986182 14.336-99.421091 43.752727-18.804364 25.134545-28.578909 59.112727-28.578909 103.051636h-71.68c0-62.650182 17.966545-112.826182 52.875636-150.434909 36.677818-39.377455 86.760727-59.019636 150.341818-59.019636z" fill="#5F6269" fill-opacity=".6"/>
    </g>
</svg>