<?xml version="1.0" encoding="utf-8"?><svg xmlns="http://www.w3.org/2000/svg" xmlns:xlink="http://www.w3.org/1999/xlink" width="1024px" height="1024px" viewBox="0 0 1024 1024" version="1.1">
    <g>
        <path d="M512 0a512 512 0 1 1 0 1024A512 512 0 0 1 512 0z m0 64a448 448 0 1 0 0 896A448 448 0 0 0 512 64z m320.832 248.96a41.6 41.6 0 0 1 4.608 53.696l-4.352 5.12-357.312 359.936a73.6 73.6 0 0 1-97.792 2.688l-6.272-5.888L197.184 542.72a41.6 41.6 0 0 1 55.68-61.44l4.992 4.48 167.68 178.496 348.48-351.04a41.6 41.6 0 0 1 58.88-0.256z" fill="#4DC2D8"/>
    </g>
</svg>