<?xml version="1.0" encoding="utf-8"?><svg xmlns="http://www.w3.org/2000/svg" xmlns:xlink="http://www.w3.org/1999/xlink" width="1024px" height="1024px" viewBox="0 0 1024 1024" version="1.1">
    <g>
        <path d="M841.152 0A182.848 182.848 0 0 1 1024 182.848v658.304A182.848 182.848 0 0 1 841.152 1024H182.848A182.848 182.848 0 0 1 0 841.152V182.848A182.848 182.848 0 0 1 182.848 0h658.304z m0 73.152H182.848c-60.608 0-109.696 49.088-109.696 109.696v658.304c0 60.608 49.088 109.696 109.696 109.696h658.304c60.608 0 109.696-49.088 109.696-109.696V182.848c0-60.608-49.088-109.696-109.696-109.696zM438.848 283.008c14.464 0 28.544 4.224 40.576 12.16l233.856 155.968a73.152 73.152 0 0 1 0 121.728l-233.856 155.904a73.152 73.152 0 0 1-113.728-60.992V356.224c0-40.384 32.768-73.152 73.152-73.152v-0.064z" fill="#5F6269"/>
    </g>
</svg>