<?xml version="1.0" encoding="utf-8"?><svg xmlns="http://www.w3.org/2000/svg" xmlns:xlink="http://www.w3.org/1999/xlink" width="1024px" height="1024px" viewBox="0 0 1024 1024" version="1.1">
    <g>
        <path d="M799.271385 78.769231a145.801846 145.801846 0 0 1 145.880615 145.880615v0.078769l-1.260308 380.219077a30.956308 30.956308 0 0 1-61.991384-0.078769v-0.157538l1.339077-380.061539c0-22.449231-8.664615-43.559385-24.576-59.392a83.495385 83.495385 0 0 0-59.392-24.654769H224.571077a83.968 83.968 0 0 0-83.968 84.046769v574.700308a83.968 83.968 0 0 0 83.968 84.046769h380.219077a30.956308 30.956308 0 1 1 0 61.833846H224.492308A145.723077 145.723077 0 0 1 78.769231 799.350154V224.649846A145.723077 145.723077 0 0 1 224.492308 78.769231zM535.236923 535.236923a185.895385 185.895385 0 0 1 282.860308 239.143385l118.075077 118.075077a30.956308 30.956308 0 1 1-43.716923 43.716923L774.301538 818.097231a185.895385 185.895385 0 0 1-239.143384-282.860308z m234.496 62.779077a123.825231 123.825231 0 1 0-205.902769 137.609846 123.825231 123.825231 0 0 0 205.902769-137.609846z m-381.400615 68.765538a30.877538 30.877538 0 1 1 0 61.755077H264.507077a30.877538 30.877538 0 1 1 0-61.833846z m61.833846-185.580307a30.956308 30.956308 0 1 1 0 61.833846H264.507077a30.877538 30.877538 0 1 1 0-61.833846zM264.507077 295.384615l495.143385 0.236308a31.035077 31.035077 0 0 1 0 61.991385l-495.143385-0.157539a31.035077 31.035077 0 0 1 0-61.991384z" fill="#5F6269"/>
    </g>
</svg>