<?xml version="1.0" encoding="utf-8"?><svg xmlns="http://www.w3.org/2000/svg" xmlns:xlink="http://www.w3.org/1999/xlink" width="1024px" height="1024px" viewBox="0 0 1024 1024" version="1.1">
    <g>
        <path d="M646.005 627.995c11.667 11.667 30.759 11.667 42.426 0l155.564-155.564c5.889-5.889 8.801-13.669 8.745-21.431 0.056-7.762-2.856-15.542-8.745-21.431L688.431 274.005c-11.667-11.667-30.759-11.667-42.426 0s-11.667 30.759 0 42.426L780.574 451 646.005 585.569c-11.667 11.667-11.667 30.759 0 42.426zM187.005 472.431l155.564 155.564c11.667 11.667 30.759 11.667 42.426 0s11.667-30.759 0-42.426L250.426 451l134.569-134.569c11.667-11.667 11.667-30.759 0-42.426s-30.759-11.667-42.426 0L187.005 429.569c-5.889 5.889-8.801 13.669-8.745 21.431-0.056 7.762 2.856 15.542 8.745 21.431zM465.022 701.537c16.14 3.43 32.151-6.968 35.582-23.107l91.481-430.385c3.431-16.14-6.968-32.151-23.107-35.582-16.14-3.431-32.152 6.968-35.582 23.107l-91.481 430.385c-3.431 16.14 6.968 32.151 23.107 35.582z"/>
        <path d="M900.75 65h-776c-33 0-60 27-60 60v648c0 33 27 60 60 60h776c33 0 60-27 60-60V125c0-33-27-60-60-60z m1.5 708h-779V125h779v648zM881 901H162c-16.5 0-30 13.5-30 30s13.5 30 30 30h719c16.5 0 30-13.5 30-30s-13.5-30-30-30z"/>
    </g>
</svg>