<?xml version="1.0" encoding="utf-8"?><svg xmlns="http://www.w3.org/2000/svg" xmlns:xlink="http://www.w3.org/1999/xlink" width="1024px" height="1024px" viewBox="0 0 1024 1024" version="1.1">
    <g>
        <path d="M38.526309 0.842059m102.315794 0l818.526353 0q102.315794 0 102.315794 102.315794l0 818.526353q0 102.315794-102.315794 102.315794l-818.526353 0q-102.315794 0-102.315794-102.315794l0-818.526353q0-102.315794 102.315794-102.315794Z" fill="#363B35" fill-opacity="0"/>
        <path d="M590.826965 103.157853a102.315794 102.315794 0 0 1 67.016846 25.016212l138.330953 119.965268a102.315794 102.315794 0 0 1 35.298949 77.248425v225.401694h-61.389476V365.751339h-179.05264V164.54733H253.389476v676.563188h516.694761v-34.53158h61.389476v44.763159a51.157897 51.157897 0 0 1-51.157897 51.157898H243.157897a51.157897 51.157897 0 0 1-51.157897-51.157898V154.31575a51.157897 51.157897 0 0 1 51.157897-51.157897h347.669068z" fill="#787D8B"/>
        <path d="M738.62213 577.340401a10.231579 10.231579 0 0 1 2.404421 6.548211l-0.051158 65.226318h182.633693a25.578949 25.578949 0 0 1 25.578948 25.578949v12.789474a25.578949 25.578949 0 0 1-25.578948 25.578949h-182.633693V768.210515a10.231579 10.231579 0 0 1-16.77979 7.827158l-109.529058-92.595794a10.231579 10.231579 0 0 1 0-15.654316l109.529058-91.674952a10.231579 10.231579 0 0 1 14.426527 1.278948z" fill="#E92E5E"/>
    </g>
</svg>