<?xml version="1.0" encoding="utf-8"?><svg xmlns="http://www.w3.org/2000/svg" xmlns:xlink="http://www.w3.org/1999/xlink" width="1024px" height="1024px" viewBox="0 0 1024 1024" version="1.1">
    <g>
        <path d="M480.576 581.312c14.4 0 26.112 11.712 26.112 26.112v262.4A26.176 26.176 0 0 1 480.64 896h-262.4A26.176 26.176 0 0 1 192 869.824v-262.4c0-14.4 11.712-26.112 26.176-26.112h262.4z m397.44 0c14.464 0 26.24 11.712 26.24 26.112v262.4a26.176 26.176 0 0 1-26.24 26.176H617.472a26.176 26.176 0 0 1-26.176-26.176v-262.4c0-14.4 11.712-26.112 26.176-26.112h260.672zM454.4 633.6H244.352v210.112H454.4V633.6z m397.568 0h-208.32v210.112h208.32V633.6z m-85.632-497.28l185.408 185.408c10.24 10.24 10.24 26.816 0 36.992l-185.408 185.408a26.176 26.176 0 0 1-36.992 0L543.872 358.72a26.176 26.176 0 0 1 0-36.992l185.408-185.408c10.24-10.24 26.752-10.24 36.992 0z m-285.696 46.592c14.4 0 26.112 11.712 26.112 26.176v262.4a26.176 26.176 0 0 1-26.112 26.112h-262.4A26.176 26.176 0 0 1 192 471.488v-262.4c0-14.464 11.712-26.176 26.176-26.176h262.4z m267.2 8.96l-148.48 148.352 148.48 148.48 148.416-148.48-148.48-148.416zM454.4 235.136H244.288v210.112H454.4V235.2z" fill="#E92E5E"/>
    </g>
</svg>