<?xml version="1.0" encoding="utf-8"?><svg xmlns="http://www.w3.org/2000/svg" xmlns:xlink="http://www.w3.org/1999/xlink" width="1024px" height="1024px" viewBox="0 0 1024 1024" version="1.1">
    <g>
        <path d="M18.070588 0m102.4 0l819.2 0q102.4 0 102.4 102.4l0 819.2q0 102.4-102.4 102.4l-819.2 0q-102.4 0-102.4-102.4l0-819.2q0-102.4 102.4-102.4Z" fill="#363B35" fill-opacity="0"/>
        <path d="M695.497788 102.4a51.2 51.2 0 0 1 51.2 51.2v662.1696a51.2 51.2 0 0 1-51.2 51.2H201.468988a51.2 51.2 0 0 1-51.2-51.2V153.6a51.2 51.2 0 0 1 51.2-51.2h494.08z m-10.24 61.3888H211.708988v641.7408h473.5488V163.7888z" fill="#787D8B"/>
        <path d="M682.544188 564.992l-99.584 22.016-68.1984 105.6768-89.088 56.2688 7.424 97.536 39.0144 57.4976H837.270588l74.3936-48.0768v-86.2208l-97.6384-35.2256-17.664-82.944-59.0848-64.512z" fill="#FFFFFF"/>
        <path d="M664.982588 539.2896a172.6976 172.6976 0 0 1 172.4416 167.7312A114.0736 114.0736 0 0 1 939.670588 820.3776a114.0224 114.0224 0 0 1-113.92 113.8688H523.926588a130.0992 130.0992 0 0 1-130.3552-129.8432c0-32.8704 12.288-64.256 34.6624-88.32a129.536 129.536 0 0 1 67.7888-38.656c7.2704-35.84 25.7536-68.5056 53.1456-93.3888a172.032 172.032 0 0 1 115.8656-44.7488z m0 42.5984c-66.816 0-122.368 50.0736-129.1776 116.4288l-1.792 17.664-17.664 1.3824a87.7056 87.7056 0 0 0-80.2304 87.04c0 48.128 39.1168 87.1936 87.1936 87.296h302.4896c39.3216 0 71.2704-32 71.2704-71.3216 0-39.3728-32-71.3216-71.3216-71.3216h-30.8736v-37.2736a130.048 130.048 0 0 0-129.8432-129.8944z" fill="#787D8B"/>
        <path d="M570.160188 322.56a25.6 25.6 0 0 1 4.608 50.7904l-4.608 0.4096H284.310588a25.6 25.6 0 0 1-4.608-50.7904L284.310588 322.56h285.8496z" fill="#E92E5E"/>
        <path d="M524.284988 486.4a25.6 25.6 0 0 1 4.608 50.7904l-4.608 0.4096H284.310588a25.6 25.6 0 0 1-4.608-50.7904L284.310588 486.4h239.9744z" fill="#B8CAD3"/>
    </g>
</svg>