<?xml version="1.0" encoding="utf-8"?><svg xmlns="http://www.w3.org/2000/svg" xmlns:xlink="http://www.w3.org/1999/xlink" width="1024px" height="1024px" viewBox="0 0 1024 1024" version="1.1">
    <g>
        <path d="M0 0m93.090909 0l837.818182 0q93.090909 0 93.090909 93.090909l0 837.818182q0 93.090909-93.090909 93.090909l-837.818182 0q-93.090909 0-93.090909-93.090909l0-837.818182q0-93.090909 93.090909-93.090909Z" fill="#F8F8F9"/>
        <path d="M320.884364 216.296727v41.984H213.643636v501.76h107.240728v41.984H167.237818V216.296727h153.6z m545.605818 0V801.978182h-153.646546v-42.030546h107.240728V258.327273h-107.240728v-41.984h153.646546z m-404.805818 157.789091l72.890181 108.078546 72.890182-108.078546h55.714909l-101.376 144.523637 108.497455 154.577454h-55.714909l-80.011637-118.551273-80.011636 118.551273H398.848l107.659636-154.530909-100.538181-144.570182h55.714909z" fill="#787D8B"/>
    </g>
</svg>