<?xml version="1.0" encoding="utf-8"?><svg xmlns="http://www.w3.org/2000/svg" xmlns:xlink="http://www.w3.org/1999/xlink" width="1024px" height="1024px" viewBox="0 0 1024 1024" version="1.1">
    <g>
        <path d="M30.117647 40.478118m120.470588 0l722.82353 0q120.470588 0 120.470588 120.470588l0 722.823529q0 120.470588-120.470588 120.470589l-722.82353 0q-120.470588 0-120.470588-120.470589l0-722.823529q0-120.470588 120.470588-120.470588Z" fill="#8C5050" fill-opacity="0"/>
        <path d="M512.602353 834.981647a41.200941 41.200941 0 0 1-29.214118-12.047059L207.932235 547.358118a41.321412 41.321412 0 0 1 0-58.428236l275.456-275.456a41.321412 41.321412 0 0 1 58.428236 58.428236L295.574588 518.204235l246.241883 246.241883a41.321412 41.321412 0 0 1-29.214118 70.535529z" fill="#CFCFD2"/>
        <path d="M753.543529 834.981647a41.200941 41.200941 0 0 1-29.214117-12.047059L448.873412 547.358118a41.321412 41.321412 0 0 1 0-58.428236l275.456-275.456a41.321412 41.321412 0 0 1 58.428235 58.428236L536.515765 518.204235l246.241882 246.241883a41.321412 41.321412 0 0 1-29.214118 70.535529z" fill="#BABBBE"/>
    </g>
</svg>