<?xml version="1.0" encoding="utf-8"?><svg xmlns="http://www.w3.org/2000/svg" xmlns:xlink="http://www.w3.org/1999/xlink" width="1024px" height="1024px" viewBox="0 0 1024 1024" version="1.1">
    <g>
        <path d="M0 0h1024v1024H0z" fill="#D8D8D8" fill-opacity="0"/>
        <path d="M199.3728 543.232l-43.264-43.008 282.5728-284.3136h188.928V276.992H464.128z" fill="#5F6269"/>
        <path d="M85.3504 492.544h658.7904v61.0304H85.3504zM735.232 907.264h-131.2768a51.2 51.2 0 0 1-51.2-51.2v-118.9376a51.2 51.2 0 0 1 51.2-51.2h131.2768a51.2 51.2 0 0 1 51.2 51.2v118.9376a51.2 51.2 0 0 1-51.2 51.2z" fill="#C3C7CF"/>
        <path d="M887.4496 632.32H756.224a51.2 51.2 0 0 1-51.2-51.2V462.336a51.2 51.2 0 0 1 51.2-51.2h131.2768a51.2 51.2 0 0 1 51.2 51.2v118.8864a51.2 51.2 0 0 1-51.2 51.2z" fill="#E92E5E"/>
        <path d="M583.2704 827.136H469.8112l-199.8336-286.6176 50.0736-34.9184 181.6064 260.5056h81.6128v61.0304z" fill="#C3C7CF"/>
        <path d="M715.8784 349.2864H584.704a51.2 51.2 0 0 1-51.2-51.2V179.2a51.2 51.2 0 0 1 51.2-51.2h131.1744a51.2 51.2 0 0 1 51.2 51.2v118.8864a51.2 51.2 0 0 1-51.2 51.2z" fill="#5F6269"/>
    </g>
</svg>