<?xml version="1.0" encoding="utf-8"?><svg xmlns="http://www.w3.org/2000/svg" xmlns:xlink="http://www.w3.org/1999/xlink" width="1024px" height="1024px" viewBox="0 0 1024 1024" version="1.1">
    <g>
        <path d="M966.4 924.8l-230.4-227.2c60.8-67.2 96-156.8 96-256C832 224 656 51.2 441.6 51.2 224 51.2 51.2 227.2 51.2 441.6c0 217.6 176 390.4 390.4 390.4 99.2 0 188.8-35.2 256-96l230.4 227.2c9.6 9.6 28.8 9.6 38.4 0 12.8-12.8 12.8-28.8 0-38.4zM102.4 441.6c0-185.6 150.4-339.2 339.2-339.2 188.8 0 339.2 150.4 339.2 339.2 0 89.6-35.2 172.8-92.8 233.6-3.2 0-3.2 3.2-6.4 3.2-3.2 3.2-3.2 3.2-3.2 6.4-60.8 57.6-144 92.8-233.6 92.8C256 780.8 102.4 627.2 102.4 441.6z" fill="#5F6269"/>
    </g>
</svg>