<?xml version="1.0" encoding="utf-8"?><svg xmlns="http://www.w3.org/2000/svg" xmlns:xlink="http://www.w3.org/1999/xlink" width="1024px" height="1024px" viewBox="0 0 1024 1024" version="1.1">
    <g>
        <path d="M708.992 0L960 268.928v669.76c0 47.104-37.248 85.312-83.2 85.312H640v-85.376h236.8V335.616h-169.92c-42.688 0-77.824-32.896-82.624-75.328l-0.576-9.92V85.312H211.2l-0.064 353.536H128V85.312C128 38.208 165.248 0 211.2 0h497.792z m-324.48 448c39.296 0 75.648 8.064 109.184 24.256s62.08 38.144 85.76 65.92c8.704-6.4 16.064-12.096 21.952-16.832l11.136-8.832a24.32 24.32 0 0 1 7.488-4.288 9.984 9.984 0 0 1 7.424 0 12.992 12.992 0 0 1 5.952 6.016 38.656 38.656 0 0 1 3.712 13.696c0.384 3.392 0.768 9.216 1.152 17.408l1.152 28.544a960 960 0 0 1 0 66.496c-0.384 12.928-3.392 22.208-9.152 27.968-3.008 3.008-7.616 4.736-13.696 5.12a69.632 69.632 0 0 1-19.456-1.728l-33.92-7.424a990.528 990.528 0 0 1-65.216-16.256 125.568 125.568 0 0 1-16.256-5.44c-6.464-3.008-9.472-7.104-8.896-12.288a17.536 17.536 0 0 1 6.592-12.224c1.152-0.768 4.864-3.712 11.136-8.832 6.272-5.12 14.016-11.328 23.168-18.56a174.336 174.336 0 0 0-57.152-43.136 166.08 166.08 0 0 0-72-15.68 172.736 172.736 0 0 0-122.24 50.24 172.48 172.48 0 0 0 0 243.712 172.736 172.736 0 0 0 178.56 40.832 176.192 176.192 0 0 0 86.272-66.752c10.432-15.424 18.176-32.32 23.104-50.56a43.008 43.008 0 0 1 14.848-21.696 40.32 40.32 0 0 1 25.728-8.576 40.32 40.32 0 0 1 30.016 12.608 42.496 42.496 0 0 1 9.408 45.12 257.984 257.984 0 0 1-91.136 131.52c-21.504 16.192-45.44 28.8-71.68 37.952-26.304 9.152-53.952 13.696-82.88 13.696a252.288 252.288 0 0 1-100.032-19.968 253.632 253.632 0 0 1-81.408-54.784 264 264 0 0 1-54.848-81.344A246.4 246.4 0 0 1 128 704.256c0-35.328 6.784-68.672 20.288-99.84 13.504-31.232 31.808-58.304 54.848-81.344 23.04-23.04 50.176-41.28 81.408-54.784A249.216 249.216 0 0 1 384.64 448z m322.368-326.848v129.152l120.512-0.064-120.512-129.088z" fill="#5F6269"/>
    </g>
</svg>