<?xml version="1.0" encoding="utf-8"?><svg xmlns="http://www.w3.org/2000/svg" xmlns:xlink="http://www.w3.org/1999/xlink" width="1024px" height="1024px" viewBox="0 0 1024 1024" version="1.1">
    <g>
        <path d="M658.724571 219.428571a36.571429 36.571429 0 0 0-36.425142-36.571428H184.466286a36.571429 36.571429 0 0 0 0 73.142857h437.833143a36.571429 36.571429 0 0 0 36.425142-36.571429z m0 219.428572a36.571429 36.571429 0 0 0-36.425142-36.571429H184.466286a36.571429 36.571429 0 0 0 0 73.142857h437.833143a36.571429 36.571429 0 0 0 36.425142-36.571428zM184.466286 621.714286a36.571429 36.571429 0 0 0 0 73.142857h218.989714a36.571429 36.571429 0 0 0 0-73.142857H184.466286z" fill="#000000" fill-opacity=".451"/>
        <path d="M538.331429 877.714286H109.202286a36.571429 36.571429 0 0 1-36.498286-36.571429v-731.428571a36.571429 36.571429 0 0 1 36.498286-36.571429h586.605714a36.571429 36.571429 0 0 1 36.425143 36.571429V512a36.571429 36.571429 0 1 0 72.923428 0V73.142857a73.142857 73.142857 0 0 0-72.923428-73.142857H72.923429A73.142857 73.142857 0 0 0 0 73.142857v804.571429a73.142857 73.142857 0 0 0 72.923429 73.142857H538.331429a36.571429 36.571429 0 1 0-0.146286-73.142857z" fill="#000000" fill-opacity=".451"/>
        <path d="M977.042286 786.285714c0-11.190857-1.243429-22.162286-3.657143-32.694857l49.810286-36.132571-36.571429-63.268572-56.32 25.088a147.529143 147.529143 0 0 0-56.685714-32.768l-6.436572-61.220571h-73.142857l-6.363428 61.220571c-21.357714 6.582857-40.667429 17.92-56.685715 32.768l-56.32-25.088-36.571428 63.268572 49.737143 36.132571a146.944 146.944 0 0 0 0 65.389714l-49.737143 36.132572 36.571428 63.268571 56.32-25.088c16.018286 14.848 35.328 26.112 56.685715 32.768l6.363428 61.220572h73.142857l6.436572-61.220572c21.357714-6.582857 40.667429-17.92 56.685714-32.768l56.32 25.088 36.571429-63.268571-49.810286-36.132572c2.413714-10.532571 3.657143-21.504 3.657143-32.694857z m-146.285715 73.142857a73.142857 73.142857 0 0 1 0-146.285714 73.142857 73.142857 0 0 1 0 146.285714z" fill="#000000" fill-opacity=".451"/>
    </g>
</svg>