<?xml version="1.0" encoding="utf-8"?><svg xmlns="http://www.w3.org/2000/svg" xmlns:xlink="http://www.w3.org/1999/xlink" width="1024px" height="1024px" viewBox="0 0 1024 1024" version="1.1">
    <g>
        <path d="M808.064 133.568a89.6 89.6 0 0 1 89.6 89.6v400.576a89.6 89.6 0 0 1-89.6 89.6H218.112a89.6 89.6 0 0 1-89.6-89.6v-400.64a89.6 89.6 0 0 1 89.6-89.6z m0 51.2H218.112a38.4 38.4 0 0 0-38.4 38.4v400.576a38.4 38.4 0 0 0 38.4 38.4h589.952a38.4 38.4 0 0 0 38.4-38.4v-400.64a38.4 38.4 0 0 0-38.4-38.4zM407.424 343.04a25.6 25.6 0 0 1-1.344 32.32l-3.84 3.52L301.568 454.4l100.672 75.52a25.6 25.6 0 0 1 7.808 31.36l-2.688 4.48a25.6 25.6 0 0 1-31.36 7.808l-4.48-2.688-107.52-80.64a44.8 44.8 0 0 1-8.96-62.72l4.16-4.8 4.8-4.16 107.52-80.64a25.6 25.6 0 0 1 35.84 5.12z m221.44 0a25.6 25.6 0 0 1 35.84-5.12l107.52 80.64 4.864 4.16 4.16 4.8a44.8 44.8 0 0 1-8.96 62.72l-107.52 80.64-4.48 2.688a25.6 25.6 0 0 1-31.36-7.808l-2.688-4.48a25.6 25.6 0 0 1 7.808-31.36L734.72 454.4 634.048 378.88l-3.84-3.52a25.6 25.6 0 0 1-1.28-32.32z m-64.512-14.592a25.6 25.6 0 0 1 15.04 28.672l-1.6 4.992-82.24 192a25.6 25.6 0 0 1-48.64-15.232l1.6-4.992 82.24-192a25.6 25.6 0 0 1 33.6-13.44z m307.072 431.104a25.6 25.6 0 0 1 5.184 50.688l-5.12 0.512h-704a25.6 25.6 0 0 1-5.184-50.688l5.12-0.512h704z" fill="#5F6269"/>
    </g>
</svg>