<?xml version="1.0" encoding="utf-8"?><svg xmlns="http://www.w3.org/2000/svg" xmlns:xlink="http://www.w3.org/1999/xlink" width="1024px" height="1024px" viewBox="0 0 1024 1024" version="1.1">
    <g>
        <path d="M512 84.48c126.72 0 229.568 103.04 229.568 229.76v126.848h53.312a32.64 32.64 0 0 1 32.832 32.768v383.36a82.56 82.56 0 0 1-82.368 82.56H279.296a82.944 82.944 0 0 1-82.88-82.56v-383.36c0-18.24 15.104-32.768 33.28-32.768h445.76V314.176A163.648 163.648 0 0 0 512 150.528a163.84 163.84 0 0 0-163.456 163.84 33.088 33.088 0 0 1-66.112 0A229.952 229.952 0 0 1 512 84.48z m249.6 422.72H262.4v350.016c0 9.088 7.744 16.576 16.896 16.576h466.048a16.384 16.384 0 0 0 16.256-16.64V507.264zM512 604.416c18.304 0 33.024 14.848 33.024 33.024v118.976a33.088 33.088 0 0 1-66.048 0.064V637.44c0-18.176 14.784-33.024 33.024-33.024z" fill="#5F6269"/>
    </g>
</svg>