<?xml version="1.0" encoding="utf-8"?><svg xmlns="http://www.w3.org/2000/svg" xmlns:xlink="http://www.w3.org/1999/xlink" width="1024px" height="1024px" viewBox="0 0 1024 1024" version="1.1">
    <g>
        <path d="M0 0m93.090909 0l837.818182 0q93.090909 0 93.090909 93.090909l0 837.818182q0 93.090909-93.090909 93.090909l-837.818182 0q-93.090909 0-93.090909-93.090909l0-837.818182q0-93.090909 93.090909-93.090909Z" fill="#F8F8F9"/>
        <path d="M535.272727 186.181818a349.090909 349.090909 0 1 1 0 698.181818 349.090909 349.090909 0 0 1 0-698.181818z m0 37.236364a311.854545 311.854545 0 1 0 0 623.709091 311.854545 311.854545 0 0 0 0-623.709091zM433.896727 354.676364l27.229091 12.567272a529.687273 529.687273 0 0 1-30.999273 77.917091V740.072727h-29.323636v-243.386182c-14.242909 21.783273-29.742545 42.309818-46.917818 61.579637l-10.053818-31.837091a465.733818 465.733818 0 0 0 90.065454-171.752727z m149.969455-0.418909l29.742545 4.18909c-0.837818 12.567273-2.094545 25.134545-2.932363 36.864h103.889454v27.648h-107.240727c-1.675636 12.567273-3.770182 24.715636-5.445818 36.445091h85.038545v240.453819h39.796364v27.648H452.328727v-27.648h43.147637V459.403636h76.660363c1.675636-12.148364 3.770182-24.296727 5.445818-36.445091h-107.240727v-27.648h110.173091c1.256727-13.824 2.513455-27.648 3.351273-41.05309z m74.146909 308.736h-133.632v36.864h133.632v-36.864z m0-59.485091h-133.632v35.188363h133.632v-35.188363z m0-58.647273h-133.632v34.350545h133.632v-34.350545z m0-58.228364h-133.632v33.931637h133.632v-33.931637z" fill="#787D8B"/>
    </g>
</svg>