<?xml version="1.0" encoding="UTF-8"?>
<svg width="64px" height="64px" viewBox="0 0 64 64" version="1.1" xmlns="http://www.w3.org/2000/svg" xmlns:xlink="http://www.w3.org/1999/xlink">
    <title>编组 15</title>
    <defs>
        <linearGradient x1="50%" y1="0%" x2="50%" y2="100%" id="linearGradient-1">
            <stop stop-color="#E9265B" offset="0%"></stop>
            <stop stop-color="#F39279" offset="100%"></stop>
        </linearGradient>
        <linearGradient x1="50%" y1="0%" x2="50%" y2="100%" id="linearGradient-2">
            <stop stop-color="#E9265B" offset="0%"></stop>
            <stop stop-color="#F39279" offset="100%"></stop>
        </linearGradient>
        <path d="M46.8211461,9.4824792 L44.4992769,7.14900749 C44.4992769,7.14900749 42.6673071,5.55837419 40.32,7.36977798 L40.32,7.36977798 L44.6948858,11.6793265 L42.248897,14.3217865 C42.248897,14.3217865 40.6204308,16.5792552 42.2160031,19.2 L42.2160031,19.2 L47.0395614,13.9892735 L49.1425767,16.0603541 C49.1425767,16.0603541 52.019256,18.2137712 53.7222817,16.4539408 L53.7222817,16.4539408 L53.76,16.4132249 L49.0469651,11.7716158 L51.2390132,9.40195225 C51.2390132,9.40195225 52.4464378,6.32564213 50.8600757,5.12 L50.8600757,5.12 L46.8211461,9.4824792 Z" id="path-3"></path>
        <path d="M45.280963,44.4420134 L35.9615356,35.1193592 C39.6169157,31.2639879 41.653541,26.1516216 41.651072,20.8374031 C41.651072,9.32890539 32.3274796,0 20.825536,0 C9.32359247,0 0,9.32890539 0,20.8374031 C0,32.3459009 9.32359247,41.6748063 20.825536,41.6748063 C25.1193963,41.6777975 29.3078826,40.3444372 32.810632,37.8594778 L42.3341496,47.390506 C43.1484281,48.2031647 44.4666845,48.2031647 45.280963,47.390506 C46.0931589,46.5757635 46.0931589,45.2567559 45.280963,44.4420134" id="path-5"></path>
        <filter x="-1.1%" y="-1.0%" width="102.2%" height="102.1%" filterUnits="objectBoundingBox" id="filter-6">
            <feOffset dx="0" dy="-1" in="SourceAlpha" result="shadowOffsetInner1"></feOffset>
            <feComposite in="shadowOffsetInner1" in2="SourceAlpha" operator="arithmetic" k2="-1" k3="1" result="shadowInnerInner1"></feComposite>
            <feColorMatrix values="0 0 0 0 0.937254902   0 0 0 0 0.396078431   0 0 0 0 0.423529412  0 0 0 1 0" type="matrix" in="shadowInnerInner1"></feColorMatrix>
        </filter>
    </defs>
    <g id="-----API搜索" stroke="none" stroke-width="1" fill="none" fill-rule="evenodd">
        <g id="API-搜索" transform="translate(-1133.000000, -692.000000)">
            <rect fill="#FFFFFF" x="0" y="0" width="1440" height="900"></rect>
            <g id="编组-3" fill="#F1F4FB">
                <rect id="矩形" x="499.74136" y="690" width="900.136674" height="24" rx="3"></rect>
            </g>
            <rect id="矩形" fill-opacity="0.399142" fill="#000000" x="0" y="0" width="1440" height="901"></rect>
            <rect id="矩形" fill="#FFFFFF" x="1036" y="74" width="272" height="775" rx="20"></rect>
            <g id="编组-15" transform="translate(1133.000000, 692.000000)">
                <g id="编组">
                    <path d="M19.3062696,12.3242786 C15.059078,17.2261537 6.59666236,23.7371442 4.13830698,28.0791514 L4.13830698,28.0791514 C-3.04045094,41.313047 0.733529799,47.703264 3.47238983,53.2345978 L3.47238983,53.2345978 C6.21079962,58.7654826 14.4791583,63.9466182 22.8542258,64 L22.8542258,64 C31.2274923,64.0516777 43.4985577,59.0631509 46.2013979,45.3739978 L46.2013979,45.3739978 C48.9042381,31.6857426 40.1622183,25.4881346 40.1622183,25.4881346 L40.1622183,25.4881346 C40.1622183,25.4881346 42.673703,38.8805173 33.4566713,37.7769443 L33.4566713,37.7769443 C24.2400898,36.6742694 27.9087125,28.5873876 28.8569353,26.4332204 L28.8569353,26.4332204 C29.8056083,24.2804002 33.2455049,20.9364575 32.4382098,12.5339484 L32.4382098,12.5339484 C31.4548676,1.50630071 20.8510713,0 20.8510713,0 L20.8510713,0 C20.8510713,0 23.5552623,7.42240339 19.3062696,12.3242786" id="Clip-2" fill="url(#linearGradient-1)"></path>
                    <mask id="mask-4" fill="white">
                        <use xlink:href="#path-3"></use>
                    </mask>
                    <use id="Clip-4" fill="url(#linearGradient-2)" xlink:href="#path-3"></use>
                </g>
                <g id="search-fill" transform="translate(17.280000, 16.000000)" fill-rule="nonzero">
                    <g id="路径">
                        <use fill-opacity="0.2" fill="#C3C5CC" xlink:href="#path-5"></use>
                        <use fill="black" fill-opacity="1" filter="url(#filter-6)" xlink:href="#path-5"></use>
                    </g>
                </g>
            </g>
        </g>
    </g>
</svg>