<?xml version="1.0" encoding="UTF-8"?>
<svg width="20px" height="20px" viewBox="0 0 20 20" version="1.1" xmlns="http://www.w3.org/2000/svg" xmlns:xlink="http://www.w3.org/1999/xlink">
    <title>esc</title>
    <g id="-----API搜索" stroke="none" stroke-width="1" fill="none" fill-rule="evenodd">
        <g id="API-搜索3.6" transform="translate(-258.000000, -549.000000)">
            <g id="esc" transform="translate(258.000000, 549.000000)">
                <rect id="矩形备份-10" fill-opacity="0.05" fill="#5F6269" x="0" y="0" width="20" height="20" rx="2"></rect>
                <g id="esc备份" transform="translate(3.240000, 7.752000)" fill="#787D8B" fill-rule="nonzero">
                    <path d="M1.992,0 C1.384,0 0.896,0.208 0.544,0.632 C0.176,1.048 0,1.56 0,2.176 C0,2.856 0.192,3.392 0.576,3.792 C0.928,4.168 1.416,4.36 2.024,4.36 C2.576,4.36 3.032,4.2 3.392,3.888 C3.68,3.632 3.864,3.304 3.96,2.92 L3.112,2.92 C3,3.16 2.88,3.344 2.736,3.456 C2.552,3.592 2.312,3.664 2.016,3.664 C1.68,3.664 1.416,3.552 1.224,3.344 C1.032,3.128 0.928,2.816 0.896,2.416 L4.032,2.416 C4.024,1.68 3.856,1.104 3.536,0.688 C3.184,0.224 2.664,0 1.992,0 Z M2.016,0.696 C2.688,0.696 3.064,1.056 3.144,1.776 L0.912,1.776 C0.96,1.424 1.08,1.16 1.256,0.976 C1.448,0.784 1.696,0.696 2.016,0.696 Z" id="形状"></path>
                    <path d="M6.296,0 C5.8,0 5.392,0.104 5.08,0.32 C4.768,0.528 4.616,0.824 4.616,1.2 C4.616,1.552 4.776,1.832 5.096,2.032 C5.288,2.16 5.632,2.28 6.12,2.392 C6.544,2.488 6.824,2.568 6.952,2.632 C7.192,2.744 7.32,2.904 7.32,3.104 C7.32,3.472 6.984,3.664 6.328,3.664 C6.008,3.664 5.784,3.608 5.64,3.504 C5.496,3.392 5.392,3.192 5.344,2.912 L4.512,2.912 C4.608,3.872 5.216,4.36 6.352,4.36 C7.576,4.36 8.192,3.92 8.192,3.048 C8.192,2.68 8.024,2.392 7.696,2.184 C7.472,2.04 7.12,1.904 6.648,1.792 C6.232,1.688 5.96,1.608 5.816,1.544 C5.592,1.44 5.48,1.32 5.48,1.176 C5.48,1.016 5.552,0.888 5.704,0.808 C5.832,0.728 6.024,0.696 6.28,0.696 C6.568,0.696 6.792,0.744 6.936,0.84 C7.072,0.928 7.168,1.08 7.232,1.304 L8.056,1.304 C7.96,0.432 7.368,0 6.296,0 Z" id="路径"></path>
                    <path d="M10.752,0 C10.112,0 9.616,0.216 9.256,0.648 C8.92,1.048 8.752,1.56 8.752,2.184 C8.752,2.824 8.92,3.336 9.264,3.736 C9.616,4.152 10.104,4.36 10.736,4.36 C11.264,4.36 11.696,4.224 12.016,3.96 C12.336,3.688 12.552,3.272 12.648,2.72 L11.808,2.72 C11.728,3.344 11.376,3.664 10.744,3.664 C10.376,3.664 10.104,3.528 9.92,3.272 C9.72,3.008 9.624,2.64 9.624,2.176 C9.624,1.712 9.72,1.344 9.928,1.088 C10.128,0.824 10.4,0.696 10.752,0.696 C11.04,0.696 11.272,0.76 11.448,0.896 C11.624,1.024 11.736,1.232 11.792,1.512 L12.632,1.512 C12.552,1 12.344,0.616 12.024,0.36 C11.704,0.12 11.28,0 10.752,0 Z" id="路径"></path>
                </g>
            </g>
        </g>
    </g>
</svg>