<?xml version="1.0" encoding="UTF-8"?>
<svg width="20px" height="20px" viewBox="0 0 20 20" version="1.1" xmlns="http://www.w3.org/2000/svg" xmlns:xlink="http://www.w3.org/1999/xlink">
    <title>tab</title>
    <g id="-----API搜索" stroke="none" stroke-width="1" fill="none" fill-rule="evenodd">
        <g id="API-搜索3.6" transform="translate(-343.000000, -549.000000)">
            <g id="tab" transform="translate(343.000000, 549.000000)">
                <rect id="矩形备份-10" fill-opacity="0.05" fill="#5F6269" x="0" y="0" width="20" height="20" rx="2"></rect>
                <g transform="translate(4.120000, 6.176000)" fill="#787D8B" fill-rule="nonzero">
                    <path d="M1.616,0.352 L0.768,0.704 L0.768,1.688 L0,1.688 L0,2.392 L0.768,2.392 L0.768,4.792 C0.768,5.12 0.84,5.368 1,5.544 C1.16,5.728 1.424,5.824 1.776,5.824 L2.456,5.824 L2.456,5.12 L1.912,5.12 C1.808,5.12 1.736,5.088 1.688,5.04 C1.64,4.984 1.616,4.904 1.616,4.792 L1.616,2.392 L2.56,2.392 L2.56,1.688 L1.616,1.688 L1.616,0.352 Z" id="路径"></path>
                    <path d="M5.104,1.576 C4.592,1.576 4.176,1.664 3.872,1.856 C3.52,2.064 3.296,2.4 3.208,2.848 L4.048,2.92 C4.096,2.688 4.216,2.52 4.408,2.408 C4.568,2.312 4.784,2.264 5.048,2.264 C5.672,2.264 5.984,2.552 5.984,3.128 L5.984,3.296 L5.056,3.32 C4.448,3.336 3.968,3.456 3.632,3.696 C3.264,3.944 3.08,4.304 3.08,4.768 C3.08,5.112 3.208,5.392 3.472,5.608 C3.712,5.824 4.048,5.936 4.48,5.936 C4.848,5.936 5.168,5.864 5.44,5.736 C5.68,5.616 5.88,5.448 6.04,5.24 L6.04,5.824 L6.824,5.824 L6.824,3.184 C6.824,2.68 6.696,2.296 6.448,2.032 C6.16,1.728 5.712,1.576 5.104,1.576 Z M5.984,3.912 L5.984,4.152 C5.984,4.472 5.848,4.744 5.592,4.96 C5.336,5.176 5.032,5.288 4.672,5.288 C4.456,5.288 4.28,5.232 4.152,5.128 C4.016,5.024 3.952,4.896 3.952,4.736 C3.952,4.224 4.336,3.952 5.112,3.936 L5.984,3.912 Z" id="形状"></path>
                    <path d="M7.792,0 L7.792,5.824 L8.584,5.824 L8.584,5.328 C8.872,5.728 9.296,5.936 9.864,5.936 C10.472,5.936 10.944,5.72 11.296,5.288 C11.616,4.888 11.776,4.368 11.776,3.736 C11.776,3.128 11.616,2.624 11.304,2.224 C10.96,1.792 10.496,1.576 9.904,1.576 C9.392,1.576 8.976,1.816 8.64,2.304 L8.64,0 L7.792,0 Z M9.712,2.264 C10.128,2.264 10.44,2.4 10.64,2.688 C10.816,2.928 10.904,3.28 10.904,3.736 C10.904,4.192 10.816,4.544 10.656,4.8 C10.456,5.096 10.152,5.248 9.736,5.248 C9.368,5.248 9.08,5.096 8.88,4.808 C8.704,4.544 8.616,4.208 8.616,3.792 L8.616,3.72 C8.616,3.272 8.72,2.912 8.944,2.64 C9.136,2.384 9.392,2.264 9.712,2.264 Z" id="形状"></path>
                </g>
            </g>
        </g>
    </g>
</svg>