<?xml version="1.0" encoding="UTF-8"?>
<svg width="20px" height="20px" viewBox="0 0 20 20" version="1.1" xmlns="http://www.w3.org/2000/svg" xmlns:xlink="http://www.w3.org/1999/xlink">
    <title>shang</title>
    <g id="-----API搜索" stroke="none" stroke-width="1" fill="none" fill-rule="evenodd">
        <g id="API-搜索3.6" transform="translate(-156.000000, -549.000000)">
            <g id="shang" transform="translate(156.000000, 549.000000)">
                <rect id="矩形备份-11" fill-opacity="0.05" fill="#5F6269" x="0" y="0" width="20" height="20" rx="2"></rect>
                <g id="编组-16备份-5" transform="translate(10.000000, 10.306994) rotate(-180.000000) translate(-10.000000, -10.306994) translate(7.171573, 6.941868)" fill="#787D8B" fill-rule="nonzero">
                    <path d="M0.828427125,1.40182411 C1.07388701,1.40182411 1.2780355,1.57869927 1.32037146,1.81194848 L1.32842712,1.90182411 L1.328,5.401 L4.82842712,5.40182411 C5.07388701,5.40182411 5.2780355,5.57869927 5.32037146,5.81194848 L5.32842712,5.90182411 C5.32842712,6.147284 5.15155196,6.35143248 4.91830276,6.39376844 L4.82842712,6.40182411 L0.828427125,6.40182411 C0.582967236,6.40182411 0.378818754,6.22494895 0.336482794,5.99169974 L0.328427125,5.90182411 L0.328427125,1.90182411 C0.328427125,1.62568173 0.55228475,1.40182411 0.828427125,1.40182411 Z" id="路径" transform="translate(2.828427, 3.901824) rotate(-45.000000) translate(-2.828427, -3.901824) "></path>
                    <path d="M2.82842712,-0.5 C3.07388701,-0.5 3.2780355,-0.323124839 3.32037146,-0.0898756324 L3.32842712,0 L3.32842712,6.73025123 C3.32842712,7.00639361 3.1045695,7.23025123 2.82842712,7.23025123 C2.58296724,7.23025123 2.37881875,7.05337607 2.33648279,6.82012687 L2.32842712,6.73025123 L2.32842712,0 C2.32842712,-0.276142375 2.55228475,-0.5 2.82842712,-0.5 Z" id="路径-12"></path>
                </g>
            </g>
        </g>
    </g>
</svg>