<?xml version="1.0" encoding="UTF-8"?>
<svg width="18px" height="18px" viewBox="0 0 18 18" version="1.1" xmlns="http://www.w3.org/2000/svg" xmlns:xlink="http://www.w3.org/1999/xlink">
    <title>编组 2</title>
    <g id="-----API设计页面优化-2.8" stroke="none" stroke-width="1" fill="none" fill-rule="evenodd">
        <g id="画板" transform="translate(-1145.000000, -114.000000)">
            <g id="编组-2" transform="translate(1145.000000, 114.000000)">
                <rect id="矩形备份-2" x="0" y="0" width="18" height="18"></rect>
                <g id="3.1-设置备份-2" transform="translate(0.000000, 0.900000)" fill="#5F6269" fill-rule="nonzero">
                    <path d="M16.9211272,6.44378935 C16.8195321,5.9039272 16.4901528,5.5548252 16.0683213,5.5548252 L15.9951779,5.5548252 C14.8552973,5.5548252 13.9281546,4.6227295 13.9281546,3.47641162 C13.9281546,3.11428231 14.1009961,2.70137218 14.1076668,2.68495949 C14.3179752,2.20918401 14.1565996,1.62614745 13.731145,1.32690493 L11.5922144,0.12957055 L11.560779,0.114100617 C11.1328735,-0.0724599371 10.5471941,0.0469499508 10.2281298,0.381139111 C9.99723395,0.620558838 9.20122492,1.30322863 8.59382848,1.30322863 C7.97852523,1.30322863 7.1807473,0.606867317 6.94867924,0.362905149 C6.63016907,0.0262733652 6.05054237,-0.100100146 5.61779905,0.0861390226 L3.40272013,1.30627118 L3.36947316,1.3275477 C2.94397598,1.62559034 2.78200359,2.20860548 2.99113976,2.6825597 C2.99836459,2.69989375 3.17184553,3.1094399 3.17184553,3.47643304 C3.17184553,4.62275092 2.2447028,5.55484662 1.10484348,5.55484662 L1.01842268,5.55484662 C0.609847341,5.55484662 0.280446653,5.9039272 0.178915558,6.44381077 C0.171349736,6.48179996 0,7.39538317 0,8.12789101 C0,8.85945608 0.171349736,9.77271789 0.178915558,9.81040709 C0.280446674,10.3506121 0.609847341,10.700014 1.03170016,10.700014 L1.10484348,10.700014 C2.24470282,10.700014 3.17184553,11.6321312 3.17184553,12.7781062 C3.17184553,13.1426781 2.99838589,13.5540456 2.99173649,13.5698369 C2.78202488,14.0465337 2.94280378,14.6286489 3.36706486,14.9263916 L5.46550234,16.1100773 L5.49753451,16.1246688 C5.93149263,16.3166931 6.51834414,16.191498 6.83566083,15.8427388 C7.12876691,15.5243196 7.9229644,14.8631834 8.50617155,14.8631834 C9.13835403,14.8631834 9.95249969,15.6032977 10.1870186,15.8633511 C10.4033583,16.1015496 10.7357853,16.245 11.0760552,16.245 C11.2350013,16.245 11.3854864,16.2133531 11.5232908,16.1538302 L13.6991127,14.9483109 L13.7311449,14.9275915 C14.1565995,14.6286704 14.3185932,14.0465551 14.1089029,13.572301 C14.1016354,13.5546669 13.9281758,13.1450993 13.9281758,12.7781276 C13.9281758,11.6321526 14.8553185,10.7000355 15.9951992,10.7000355 L16.0804478,10.7000355 C16.4895772,10.7000355 16.8195533,10.3506335 16.9211271,9.81042853 C16.9283732,9.77273931 17.1,8.8594775 17.1,8.12791245 C17.1,7.39536173 16.9283733,6.48177852 16.9211272,6.44378935 M15.8598244,8.12786957 C15.8598244,8.60120242 15.7661362,9.20945798 15.7232135,9.46344773 C14.0133819,9.60441267 12.6879576,11.0408668 12.6879576,12.7780848 C12.6879576,13.2684517 12.8427052,13.7381421 12.9249062,13.9541855 L11.0688092,14.9847145 C10.9775292,14.8887238 10.7079731,14.6152573 10.3411269,14.340591 C9.69683916,13.8605731 9.07912763,13.6153682 8.50615032,13.6153682 C7.93803219,13.6153682 7.32520115,13.854488 6.68393969,14.3284422 C6.31888378,14.5958021 6.05297202,14.8619407 5.95988051,14.960374 L4.17451859,13.9553854 C4.26155744,13.7284144 4.41206388,13.2647878 4.41206388,12.7780848 C4.41206388,11.0408668 3.08663959,9.60441267 1.37742601,9.46344773 C1.33390659,9.20945796 1.24021835,8.60122384 1.24021835,8.12786957 C1.24021835,7.65359393 1.33390659,7.04505985 1.37742601,6.79107008 C3.08663959,6.6504051 4.41206388,5.21365099 4.41206388,3.47643304 C4.41206388,2.98880871 4.25733763,2.51759707 4.17513664,2.30187504 L6.0771613,1.25096939 C6.15995904,1.33423278 6.4313267,1.60127127 6.80241397,1.86680992 C7.43461775,2.32040897 8.03662222,2.55010109 8.59384984,2.55010109 C9.14564287,2.55010109 9.74338491,2.32467285 10.3713476,1.87988009 C10.7454612,1.61556277 11.0162321,1.35216678 11.0947887,1.2777311 L12.9254816,2.30005381 C12.8426838,2.51455452 12.6879363,2.98424489 12.6879363,3.47643306 C12.6879363,5.21365101 14.0133606,6.65040512 15.7231922,6.7910701 C15.7661362,7.04563836 15.8598244,7.65663651 15.8598244,8.12786957" id="形状"></path>
                    <path d="M8.54998897,5.4 C6.8132025,5.4 5.4,6.81328892 5.4,8.55015449 C5.4,10.287307 6.81322456,11.7 8.54998897,11.7 C10.2867754,11.7 11.7,10.287307 11.7,8.55015449 C11.7,6.81328892 10.2867754,5.4 8.54998897,5.4 M10.4157279,8.55015449 C10.4157279,9.57879754 9.57893826,10.4156032 8.54998895,10.4156032 C7.52106169,10.4156032 6.68489003,9.57879754 6.68489003,8.55015449 C6.68489003,7.52210735 7.52106169,6.68497064 8.54998895,6.68497064 C9.57893828,6.68497064 10.4157279,7.52210735 10.4157279,8.55015449" id="形状"></path>
                </g>
            </g>
        </g>
    </g>
</svg>