<?xml version="1.0" encoding="UTF-8"?>
<svg width="18px" height="18px" viewBox="0 0 18 18" version="1.1" xmlns="http://www.w3.org/2000/svg" xmlns:xlink="http://www.w3.org/1999/xlink">
    <title>编组 11</title>
    <g id="-----API设计页面优化-2.8" stroke="none" stroke-width="1" fill="none" fill-rule="evenodd">
        <g id="画板" transform="translate(-1145.000000, -168.000000)">
            <g id="编组-11" transform="translate(1145.000000, 168.000000)">
                <g id="编组备份-4">
                    <rect id="矩形备份-13" x="0" y="0" width="18" height="18"></rect>
                </g>
                <g id="人工智能大脑" transform="translate(1.000000, 1.000000)" fill="#5F6269" fill-rule="nonzero">
                    <path d="M3.10961443,16.1052632 C2.95333731,16.1052632 2.80736417,16.0463927 2.69745499,15.938744 C2.58926313,15.8327772 2.52743922,15.6864422 2.52743922,15.5350612 L2.52743922,11.5655133 C2.52743922,11.533555 2.50339658,11.5066428 2.47076729,11.5015968 C1.79929087,11.4158142 0.609180474,11.1702405 0.174695727,10.4806156 C-0.0382533187,10.1425313 -0.0571439599,9.73716641 0.121458466,9.34189364 C0.588572502,8.3125024 1.36652345,7.56905318 1.78726955,7.21919472 C1.79929087,7.20910265 1.80787752,7.19396455 1.80959485,7.17882644 C1.96243731,5.97955201 3.03405187,0 9.17179291,0 C12.5137191,0 15.2150808,1.48185241 16.3983218,3.96113783 C17.6588428,6.60694242 16.9186731,9.88854748 14.3667192,12.9666291 C14.3564152,12.9784032 14.3529806,12.9918593 14.3529806,13.0069974 L14.3529806,15.4375045 C14.3529806,15.7520407 14.0919463,16.0077065 13.7708054,16.0077065 C13.4496645,16.0077065 13.1886302,15.7520407 13.1886302,15.4375045 L13.1886302,12.7765618 C13.1886302,12.6420008 13.2367154,12.5124859 13.3242993,12.4098832 C15.6976508,9.63288168 16.4343858,6.72636526 15.3455979,4.4405112 C14.3581326,2.37163666 12.051757,1.13703999 9.17351024,1.13703999 C3.39984337,1.13703999 2.96020663,7.26965508 2.94303332,7.53036691 C2.93101201,7.7002501 2.84514545,7.8566772 2.70432431,7.95759791 C2.59613246,8.03833448 1.66190439,8.7531895 1.18620369,9.80276488 C1.17933437,9.81958499 1.17933437,9.83808712 1.18620369,9.85322523 C1.3081342,10.1358032 2.31277284,10.3763309 3.13709173,10.4166992 C3.44792864,10.4318373 3.69007231,10.680775 3.69178965,10.9852192 L3.69178965,14.8992607 C3.69178965,14.9345829 3.72098427,14.9631771 3.75704822,14.9631771 L7.00795583,14.9631771 C7.32909673,14.9631771 7.59013105,15.2188429 7.59013105,15.5333791 C7.59013105,15.8479153 7.32909673,16.1035811 7.00795583,16.1035811 L3.10961443,16.1035811 L3.10961443,16.1052632 Z" id="路径"></path>
                    <path d="M9.04220022,10.7368421 C8.79116214,10.7368421 8.56645673,10.5926773 8.48219221,10.378032 L8.10826836,9.38009153 C8.09949081,9.35606407 8.07315814,9.33844394 8.04506997,9.33844394 L6.08065315,9.33844394 C6.05256498,9.33844394 6.02623231,9.35446224 6.01745476,9.3784897 L5.62070927,10.3860412 C5.53117821,10.5910755 5.31349484,10.7240275 5.06947881,10.7240275 C5.00101388,10.7240275 4.93254896,10.7128146 4.86759505,10.6919908 C4.56564716,10.5926773 4.40414014,10.2963387 4.50244876,10.0160183 L6.54410806,4.83249428 C6.62837259,4.61784897 6.85307799,4.47368421 7.10411607,4.47368421 C7.36042067,4.47528604 7.58512608,4.62265446 7.66587959,4.84050343 L9.60923027,10.0256293 C9.7092944,10.3043478 9.54076534,10.6118993 9.23530643,10.7064073 C9.17210803,10.7272311 9.10890963,10.7368421 9.04220022,10.7368421 L9.04220022,10.7368421 Z M7.08656096,6.78032037 C7.05847278,6.78032037 7.03214012,6.79633867 7.02336256,6.82036613 L6.49319824,8.16910755 C6.48617619,8.18832952 6.48968722,8.20915332 6.50197579,8.22517162 C6.51426437,8.24118993 6.5353305,8.25080092 6.55639663,8.25080092 L7.59214813,8.25080092 C7.61321426,8.25080092 7.63428039,8.24118993 7.64656897,8.22517162 C7.65885754,8.20915332 7.66236857,8.18832952 7.65534652,8.16910755 L7.14975935,6.82036613 C7.1409818,6.79633867 7.11640464,6.78032037 7.08656096,6.78032037 L7.08656096,6.78032037 Z M11.0364607,10.6967963 C10.7081802,10.6967963 10.4413425,10.4613272 10.4413425,10.1729977 L10.4413425,5.00228833 C10.4413425,4.71395881 10.7081802,4.4784897 11.0364607,4.4784897 C11.3647413,4.4784897 11.6315789,4.71395881 11.6315789,5.00228833 L11.6315789,10.1745995 C11.6298234,10.4629291 11.3629858,10.6967963 11.0364607,10.6967963 L11.0364607,10.6967963 Z" id="形状"></path>
                </g>
            </g>
        </g>
    </g>
</svg>