<?xml version="1.0" encoding="UTF-8"?>
<svg width="20px" height="20px" viewBox="0 0 20 20" version="1.1" xmlns="http://www.w3.org/2000/svg" xmlns:xlink="http://www.w3.org/1999/xlink">
    <title>xia</title>
    <g id="-----API搜索" stroke="none" stroke-width="1" fill="none" fill-rule="evenodd">
        <g id="API-搜索3.6" transform="translate(-132.000000, -549.000000)">
            <g id="xia" transform="translate(132.000000, 549.000000)">
                <rect id="矩形备份-9" fill-opacity="0.05" fill="#5F6269" x="0" y="0" width="20" height="20" rx="2"></rect>
                <g id="编组-16备份-4" transform="translate(7.171573, 6.941868)" fill="#787D8B" fill-rule="nonzero">
                    <path d="M0.828427125,2.40182411 C1.07388701,2.40182411 1.2780355,2.57869927 1.32037146,2.81194848 L1.32842712,2.90182411 L1.328,6.401 L4.82842712,6.40182411 C5.07388701,6.40182411 5.2780355,6.57869927 5.32037146,6.81194848 L5.32842712,6.90182411 C5.32842712,7.147284 5.15155196,7.35143248 4.91830276,7.39376844 L4.82842712,7.40182411 L0.828427125,7.40182411 C0.582967236,7.40182411 0.378818754,7.22494895 0.336482794,6.99169974 L0.328427125,6.90182411 L0.328427125,2.90182411 C0.328427125,2.62568173 0.55228475,2.40182411 0.828427125,2.40182411 Z" id="路径" transform="translate(2.828427, 4.901824) rotate(-45.000000) translate(-2.828427, -4.901824) "></path>
                    <path d="M2.82842712,-0.5 C3.07388701,-0.5 3.2780355,-0.323124839 3.32037146,-0.0898756324 L3.32842712,0 L3.32842712,6.73025123 C3.32842712,7.00639361 3.1045695,7.23025123 2.82842712,7.23025123 C2.58296724,7.23025123 2.37881875,7.05337607 2.33648279,6.82012687 L2.32842712,6.73025123 L2.32842712,0 C2.32842712,-0.276142375 2.55228475,-0.5 2.82842712,-0.5 Z" id="路径-12"></path>
                </g>
            </g>
        </g>
    </g>
</svg>