<?xml version="1.0" encoding="UTF-8"?>
<svg width="20px" height="20px" viewBox="0 0 20 20" version="1.1" xmlns="http://www.w3.org/2000/svg" xmlns:xlink="http://www.w3.org/1999/xlink">
    <title>select</title>
    <g id="-----API搜索" stroke="none" stroke-width="1" fill="none" fill-rule="evenodd">
        <g id="API-搜索3.6" transform="translate(-43.000000, -549.000000)">
            <g id="select" transform="translate(43.000000, 549.000000)">
                <rect id="矩形备份-8" fill-opacity="0.05" fill="#5F6269" x="0" y="0" width="20" height="20" rx="2"></rect>
                <g id="编组-16备份-3" transform="translate(6.000000, 5.000000)" fill="#787D8B" fill-rule="nonzero">
                    <path d="M7.79068155,-0.5 C8.03614143,-0.5 8.24028992,-0.323124839 8.28262588,-0.0898756324 L8.29068155,0 L8.29068155,4.67211934 C8.29068155,5.99760274 7.25914561,7.08215801 5.95505723,7.16680166 L5.79068155,7.17211934 L0.109054176,7.17211934 C-0.167088199,7.17211934 -0.390945824,6.94826171 -0.390945824,6.67211934 C-0.390945824,6.42665945 -0.214070663,6.22251097 0.0191785437,6.18017501 L0.109054176,6.17211934 L5.79068155,6.17211934 C6.57037766,6.17211934 7.21113022,5.57723125 7.28381497,4.81657935 L7.29068155,4.67211934 L7.29068155,0 C7.29068155,-0.276142375 7.51453917,-0.5 7.79068155,-0.5 Z" id="路径-8"></path>
                    <path d="M0.828427125,4.17211934 C1.07388701,4.17211934 1.2780355,4.3489945 1.32037146,4.5822437 L1.32842712,4.67211934 L1.328,8.172 L4.82842712,8.17211934 C5.07388701,8.17211934 5.2780355,8.3489945 5.32037146,8.5822437 L5.32842712,8.67211934 C5.32842712,8.91757923 5.15155196,9.12172771 4.91830276,9.16406367 L4.82842712,9.17211934 L0.828427125,9.17211934 C0.582967236,9.17211934 0.378818754,8.99524418 0.336482794,8.76199497 L0.328427125,8.67211934 L0.328427125,4.67211934 C0.328427125,4.39597696 0.55228475,4.17211934 0.828427125,4.17211934 Z" id="路径" transform="translate(2.828427, 6.672119) rotate(-315.000000) translate(-2.828427, -6.672119) "></path>
                </g>
            </g>
        </g>
    </g>
</svg>