<?xml version="1.0" encoding="UTF-8"?>
<svg width="28px" height="28px" viewBox="0 0 28 28" version="1.1" xmlns="http://www.w3.org/2000/svg" xmlns:xlink="http://www.w3.org/1999/xlink">
    <defs>
        <circle id="path-1" cx="14" cy="14" r="14"></circle>
        <filter x="-25.0%" y="-17.9%" width="150.0%" height="150.0%" filterUnits="objectBoundingBox" id="filter-2">
            <feOffset dx="0" dy="2" in="SourceAlpha" result="shadowOffsetOuter1"></feOffset>
            <feGaussianBlur stdDeviation="2" in="shadowOffsetOuter1" result="shadowBlurOuter1"></feGaussianBlur>
            <feColorMatrix values="0 0 0 0 0.37254902   0 0 0 0 0.384313725   0 0 0 0 0.411764706  0 0 0 0.1 0" type="matrix" in="shadowBlurOuter1"></feColorMatrix>
        </filter>
    </defs>
    <g stroke="none" stroke-width="1" fill="none" fill-rule="evenodd">
        <g >
            <use fill="black" fill-opacity="1" filter="url(#filter-2)" xlink:href="#path-1"></use>
            <use fill="#FFFFFF" fill-rule="evenodd" xlink:href="#path-1"></use>
        </g>
        <path d="M13.3159688,14.874884 C13.3159688,13.7504108 13.6869688,12.6573043 14.3661875,11.7607764 C14.4792813,11.6116774 14.4635313,11.4054308 14.3191563,11.2851204 L13.7790625,10.8343858 C13.6259375,10.7065559 13.3890313,10.7250322 13.267625,10.8822951 C12.3832188,12.0265336 11.9,13.4307287 11.9,14.874884 C11.9,16.3192542 12.3832187,17.7234493 13.267625,18.8674729 C13.38925,19.0247359 13.6259375,19.0432122 13.7790625,18.9153823 L14.3191563,18.4644329 C14.4633125,18.3439075 14.4790625,18.1378759 14.3661875,17.9887768 C13.68675,17.0926787 13.3159687,15.9993573 13.3159688,14.874884 L13.3159688,14.874884 Z M11.9,8.3437442 C11.9,8.15382553 11.743375,8 11.55,8 L10.5,8 C9.2435,8 8.225,9.00029563 8.225,10.2343373 L8.225,11.6093141 L7.35,11.6093141 C7.156625,11.6093141 7,11.7631396 7,11.9530583 L7,12.9842909 C7,13.1742096 7.156625,13.3280351 7.35,13.3280351 L8.225,13.3280351 L8.225,16.0779887 C8.225,16.3615777 7.98874999,16.593605 7.7,16.593605 L7.35,16.593605 C7.156625,16.593605 7,16.7474306 7,16.9373492 L7,17.9685818 C7,18.1585005 7.156625,18.312326 7.35,18.312326 L7.7,18.312326 C8.9565,18.312326 9.975,17.3120304 9.975,16.0779887 L9.975,13.3280351 L10.85,13.3280351 C11.043375,13.3280351 11.2,13.1742096 11.2,12.9842909 L11.2,11.9530583 C11.2,11.7631396 11.043375,11.6093141 10.85,11.6093141 L9.975,11.6093141 L9.975,10.2343373 C9.975,9.95074834 10.21125,9.71872101 10.5,9.71872101 L11.55,9.71872101 C11.743375,9.71872101 11.9,9.56489548 11.9,9.37497681 L11.9,8.3437442 Z M19.632375,10.8822951 C19.51075,10.7250322 19.2740625,10.7065559 19.1209375,10.8343858 L18.5808438,11.2851204 C18.4366875,11.4056457 18.4209375,11.6116774 18.5338125,11.7607764 C19.2130312,12.6568746 19.5840313,13.7504108 19.5840313,14.874884 C19.5840313,15.9993573 19.2130312,17.0926786 18.5338125,17.9889917 C18.4207187,18.1380907 18.4364687,18.3443372 18.5808438,18.4646477 L19.1209375,18.9155971 C19.2740625,19.043427 19.5109687,19.0249507 19.632375,18.8676878 C20.5167813,17.7230196 21,16.3190394 21,14.874884 C21,13.4305139 20.5167813,12.0263188 19.632375,10.8822951 Z M18.4474063,15.8644377 L17.4398438,14.874884 L18.4474063,13.8853304 C18.584125,13.7510553 18.584125,13.5334223 18.4474063,13.3991472 L17.9525938,12.9131788 C17.815875,12.7789038 17.5942813,12.7789038 17.4575625,12.9131788 L16.45,13.9027325 L15.4424375,12.9131788 C15.3057188,12.7789038 15.084125,12.7789038 14.9474062,12.9131788 L14.4525938,13.3991472 C14.315875,13.5334223 14.315875,13.7510553 14.4525938,13.8853304 L15.4601562,14.874884 L14.4525938,15.8644377 C14.315875,15.9987127 14.315875,16.2163458 14.4525938,16.3506209 L14.9474062,16.8365892 C15.084125,16.9708643 15.3057187,16.9708643 15.4424375,16.8365892 L16.45,15.8470356 L17.4575625,16.8365892 C17.5942813,16.9708643 17.815875,16.9708643 17.9525938,16.8365892 L18.4474063,16.3506209 C18.584125,16.2163458 18.584125,15.9987127 18.4474063,15.8644377 L18.4474063,15.8644377 Z" id="形状" fill="#45B991" fill-rule="nonzero"></path>
    </g>
</svg>