<?xml version="1.0" encoding="UTF-8"?>
<svg width="20px" height="20px" viewBox="0 0 20 20" version="1.1" xmlns="http://www.w3.org/2000/svg" xmlns:xlink="http://www.w3.org/1999/xlink">
    <title>github</title>
    <g id="github" stroke="none" stroke-width="1" fill="none" fill-rule="evenodd">
        <g id="github2" fill="#D8D8D8" opacity="0" stroke="#979797">
            <rect id="矩形" x="0.5" y="0.5" width="19" height="19"></rect>
        </g>
        <g id="github-alt" transform="translate(3.000000, 2.000000)" fill="#787D8B" fill-rule="nonzero">
            <path d="M6.24958885,14.2455234 C6.24944384,14.0289077 6.15273665,13.8235333 5.98559507,13.684887 C5.8184535,13.5462407 5.59812621,13.4886306 5.38414002,13.5276215 C4.42334514,13.7028976 3.21098334,13.7291891 2.88900703,12.8279775 C2.60792773,12.129801 2.14237353,11.5203617 1.54169388,11.0642611 C1.49869268,11.0409227 1.4577228,11.0140512 1.41921087,10.9839262 C1.31153844,10.7015719 1.04042899,10.5143426 0.73711984,10.5128715 L0.733452673,10.5128715 C0.329817601,10.5128715 0.00203964014,10.8376209 1.06945726e-05,11.2395373 C-0.00291226261,11.8347459 0.594100753,12.2167019 0.836866474,12.3452377 C1.12289279,12.6314156 1.35272967,12.9682674 1.51455692,13.3384693 C1.78225931,14.0855839 2.55822954,15.2197667 4.79006074,15.0737033 L4.79226103,15.1452744 L4.79519475,15.3409994 C4.79519475,15.7443426 5.12356309,16.0713168 5.52862597,16.0713168 C5.93368885,16.0713168 6.26205719,15.7443426 6.26205719,15.3409994 L6.25839002,15.1087585 C6.25472287,14.9699982 6.24958885,14.7698913 6.24958885,14.2455234 L6.24958885,14.2455234 Z M14.0730996,3.19874343 C14.0965694,3.10745377 14.1193058,3.00593965 14.1391085,2.89201015 C14.2577716,2.07814963 14.1544146,1.24748929 13.8398685,0.487075158 C13.7596169,0.286545458 13.5945447,0.131528533 13.3888083,0.063491116 C13.1277068,-0.024146964 12.1639782,-0.197232172 10.3201321,0.976387778 C8.78765293,0.617308577 7.19238932,0.617308577 5.65991015,0.976387778 C3.82339839,-0.180434879 2.8648038,-0.0226863351 2.60590257,0.059839518 C2.3948386,0.125066676 2.22472182,0.281843864 2.14310748,0.486344852 C1.82183123,1.26141732 1.7193721,2.10917724 1.84680126,2.93802014 C1.86513704,3.03077045 1.88420625,3.11767821 1.90474233,3.19655248 C1.29687861,4.00255379 0.973076852,4.98575083 0.983552729,5.99366786 C0.981723162,6.21828051 0.992251445,6.44282432 1.01509026,6.66629013 C1.26005629,10.0279408 3.46034994,11.036509 4.99322118,11.3834098 C4.95994387,11.4794298 4.9310658,11.576906 4.9066763,11.6755367 C4.80966376,12.0671829 5.0498652,12.4629852 5.44318124,12.5595858 C5.83649728,12.6561865 6.23398715,12.4170049 6.33099971,12.0253587 C6.37768386,11.7819812 6.49736115,11.5584117 6.67424552,11.3841401 C6.89225794,11.1935563 6.97696616,10.892923 6.89033516,10.6172284 C6.80370416,10.3415337 6.56201618,10.1425943 6.27379208,10.1097364 C3.74052065,9.82126101 2.64037383,8.79370452 2.47461839,6.53191173 C2.45646692,6.3528434 2.44838656,6.1729044 2.45041516,5.99293754 C2.43876658,5.27470834 2.67718702,4.5746122 3.12517187,4.01158662 C3.16998862,3.95301159 3.21772135,3.89670673 3.26819096,3.84288332 C3.45140788,3.63880782 3.50463374,3.34984571 3.40607604,3.09430804 C3.35669114,2.96265918 3.31865967,2.82706014 3.29239419,2.68898192 C3.23267242,2.29566323 3.2523707,1.89443186 3.35033526,1.50878911 C3.98779933,1.68813903 4.58773436,1.98003044 5.12157164,2.37056357 C5.30006957,2.48892409 5.52135339,2.52436035 5.72811925,2.46769577 C7.21049714,2.06709086 8.7733427,2.06734296 10.2555902,2.46842609 C10.4635432,2.52509953 10.6859899,2.48827143 10.8643381,2.3676423 C11.3958791,1.97561795 11.9934785,1.68130202 12.6289736,1.49856468 C12.7262285,1.87478261 12.7479129,2.26642167 12.6927821,2.65100543 C12.6661883,2.80246818 12.6246711,2.95095308 12.5688322,3.09430804 C12.4702745,3.34984571 12.5235004,3.63880782 12.7067173,3.84288332 C12.7639249,3.90642093 12.8203991,3.97434044 12.8710059,4.03860835 C13.315735,4.59216858 13.5500104,5.28425203 13.5325608,5.99293754 C13.5337827,6.18245668 13.5244783,6.3718981 13.5046904,6.56039411 C13.3433356,8.79224387 12.2395216,9.82053069 9.69451528,10.1097364 C9.40594614,10.142338 9.16387558,10.3414194 9.07719616,10.6174262 C8.99051674,10.893433 9.0755567,11.1943724 9.29406184,11.3848704 C9.47633883,11.5637833 9.59613975,11.7962241 9.63584077,12.0479986 C9.68562957,12.243636 9.70857455,12.4450876 9.70404988,12.6468588 L9.70404988,14.3506891 C9.69671556,14.8239348 9.69671556,15.1781387 9.69671558,15.3409994 C9.69667546,15.6019433 9.83645788,15.8430825 10.0633988,15.973566 C10.2903396,16.1040494 10.5699539,16.1040494 10.7968948,15.973566 C11.0238357,15.8430825 11.1636181,15.6019433 11.163578,15.3409994 C11.163578,15.1825206 11.163578,14.8356198 11.1709123,14.3623742 L11.1709123,12.6461285 C11.1767362,12.3233262 11.1384926,12.0012323 11.0572305,11.6886824 C11.0340528,11.5860433 11.0056569,11.4846422 10.9721525,11.3848704 C13.276177,11.0034988 14.9653849,9.01903608 14.9656854,6.69331187 C14.9898739,6.46065044 15.001137,6.22683614 14.9994233,5.99293754 C15.0156454,4.98421498 14.6892306,3.9996063 14.0730996,3.19874343 L14.0730996,3.19874343 Z" id="形状"></path>
        </g>
    </g>
</svg>