<?xml version="1.0" encoding="UTF-8"?>
<svg width="18px" height="18px" viewBox="0 0 18 18" version="1.1" xmlns="http://www.w3.org/2000/svg" xmlns:xlink="http://www.w3.org/1999/xlink">
    <title>编组备份 3</title>
    <g id="-----API设计页面优化-2.8" stroke="none" stroke-width="1" fill="none" fill-rule="evenodd">
        <g id="画板" transform="translate(-1170.000000, -143.000000)">
            <g id="编组备份-3" transform="translate(1170.000000, 143.000000)">
                <rect id="矩形备份-13" x="0" y="0" width="18" height="18"></rect>
                <path d="M13.68,1.8 L2.88,1.8 C1.7864762,1.8 0.9,2.6864762 0.9,3.78 L0.9,4.68 L0.904971433,4.82140351 C0.977476281,5.84893293 1.83402071,6.66 2.88,6.66 L2.9835,6.66 L2.90789214,6.92977152 C2.63733885,7.96379331 2.59612568,9.04846931 2.80462103,10.1210849 C3.60356239,14.2312819 7.78230862,16.844995 12.1103656,16.0037059 C12.4665769,15.9344654 12.8157686,15.843382 13.1563493,15.7311887 L17.3975935,14.3340492 L12.8710882,13.6203715 C9.64642229,13.0833273 7.1166738,10.7629232 6.52594064,7.72386457 L6.46848754,7.38477531 C6.43576032,7.15846047 6.41416816,6.93171363 6.40362326,6.70500692 L6.4026,6.6591 L13.6799934,6.66 C14.7735238,6.66 15.66,5.7735238 15.66,4.68 L15.66,3.78 C15.66,2.6864762 14.7735238,1.8 13.68,1.8 Z M13.68,2.88 C14.1770563,2.88 14.58,3.28294373 14.58,3.78 L14.58,4.68 C14.58,5.17705627 14.1770563,5.58 13.68,5.58 L5.35573186,5.57994915 C5.27933114,6.34917611 5.31188161,7.1381828 5.46578329,7.92993828 C6.15917107,11.4971092 9.11554936,14.089794 12.7028863,14.6871931 L12.8184407,14.7054121 C12.5232873,14.8026407 12.2181998,14.882531 11.9042918,14.9435486 C8.14602249,15.6740821 4.54660971,13.4227292 3.86477839,9.91501118 C3.56703224,8.38324004 3.87488966,6.86518677 4.62917691,5.58013685 L2.88,5.58 C2.38294373,5.58 1.98,5.17705627 1.98,4.68 L1.98,3.78 C1.98,3.28294373 2.38294373,2.88 2.88,2.88 L13.68,2.88 Z" id="形状结合备份" fill="#E92E5E" fill-rule="nonzero"></path>
            </g>
        </g>
    </g>
</svg>