<?xml version="1.0" encoding="UTF-8"?>
<svg width="20px" height="20px" viewBox="0 0 20 20" version="1.1" xmlns="http://www.w3.org/2000/svg" xmlns:xlink="http://www.w3.org/1999/xlink">
    <title>问号</title>
    <g id="问号" stroke="none" stroke-width="1" fill="none" fill-rule="evenodd">
        <g id="编组-2">
            <rect id="矩形" x="0" y="0" width="20" height="20"></rect>
            <g id="编组" transform="translate(2.000000, 1.000000)" stroke="#787D8B">
                <circle id="椭圆形" stroke-width="1.5" cx="8.5" cy="8.5" r="7.75"></circle>
                <path d="M8.27805556,4.72222222 C7.47370371,4.72222222 6.83462963,4.95361111 6.37185185,5.4274074 C5.89805556,5.89018518 5.66666667,6.51824074 5.66666667,7.32259258 L6.83462963,7.32259258 C6.83462963,6.83777776 6.93379629,6.45212963 7.13212963,6.18768518 C7.3525,5.87916667 7.71611111,5.7249074 8.21194444,5.7249074 C8.60861111,5.7249074 8.91712963,5.83509258 9.1375,6.05546296 C9.34685185,6.27583333 9.45703704,6.57333333 9.45703704,6.95898147 C9.45703704,7.24546296 9.35787037,7.5099074 9.15953704,7.76333333 L8.97222222,7.97268518 C8.28907407,8.5787037 7.87037037,9.03046296 7.71611111,9.33898147 C7.57287037,9.62546296 7.50675926,9.97805554 7.50675926,10.3857407 L7.50675926,10.5730556 L8.68574074,10.5730556 L8.68574074,10.3857407 C8.68574074,10.1102778 8.74083333,9.86787036 8.86203704,9.6475 C8.96120371,9.44916667 9.11546297,9.26185185 9.31379629,9.08555556 C9.84268518,8.63379629 10.1512037,8.34731482 10.2503704,8.22611111 C10.5148148,7.87351851 10.6580556,7.42175926 10.6580556,6.88185185 C10.6580556,6.22074074 10.4376852,5.69185185 10.007963,5.3062037 C9.56722222,4.90953703 8.99425925,4.72222222 8.27805556,4.72222222 Z M8.09074074,11.1680556 C7.85935185,11.1680556 7.67203703,11.2341667 7.52879629,11.3884259 C7.36351851,11.5316667 7.28638889,11.7189815 7.28638889,11.9503704 C7.28638889,12.1707407 7.36351851,12.3580555 7.52879629,12.5123148 C7.67203703,12.6665741 7.85935185,12.7437037 8.09074074,12.7437037 C8.31111111,12.7437037 8.50944444,12.6665741 8.67472222,12.5233333 C8.82898149,12.3690741 8.90611111,12.1817593 8.90611111,11.9503704 C8.90611111,11.7189815 8.82898149,11.5316667 8.67472222,11.3884259 C8.52046296,11.2341667 8.32212963,11.1680556 8.09074074,11.1680556 L8.09074074,11.1680556 Z" id="形状" stroke-width="0.1" fill="#787D8B" fill-rule="nonzero"></path>
            </g>
        </g>
    </g>
</svg>