<?xml version="1.0" encoding="UTF-8"?>
<svg width="20px" height="20px" viewBox="0 0 20 20" version="1.1" xmlns="http://www.w3.org/2000/svg" xmlns:xlink="http://www.w3.org/1999/xlink">
    <title>刷新</title>
    <g id="刷新" stroke="none" stroke-width="1" fill="none" fill-rule="evenodd">
        <rect id="矩形" x="0" y="0" width="20" height="20"></rect>
        <circle id="椭圆形" cx="10" cy="10" r="7"></circle>
        <path d="M17,10 C17,6.13400675 13.8659932,3 10,3 C9.12341346,3 8.28446006,3.16112664 7.51114108,3.45537864" id="路径" stroke="#7F838C" stroke-width="1.5" stroke-linecap="round"></path>
        <path d="M3.08423608,8.9107975 C3.02878342,9.26573282 3,9.62950505 3,10 C3,13.8659932 6.13400675,17 10,17 C11.3782063,17 12.6633855,16.6017038 13.7467109,15.9139381" id="路径" stroke="#7F838C" stroke-width="1.5" stroke-linecap="round"></path>
        <path d="M3.40961596,5.94230851 L5.44928818,8.85612597 C5.60764543,9.08235062 5.55262804,9.39411585 5.32640339,9.5524731 C5.24236162,9.61130234 5.14225827,9.64285714 5.03967222,9.64285714 L0.960327781,9.64285714 C0.684185406,9.64285714 0.460327781,9.41899952 0.460327781,9.14285714 C0.460327781,9.04027109 0.491882583,8.94016774 0.550711821,8.85612597 L2.59038404,5.94230851 C2.74874129,5.71608387 3.06050652,5.66106647 3.28673117,5.81942373 C3.33455183,5.85289819 3.3761415,5.89448785 3.40961596,5.94230851 Z" id="三角形" fill="#7F838C"></path>
        <path d="M17.409616,8.94230851 L19.4492882,11.856126 C19.6076454,12.0823506 19.552628,12.3941158 19.3264034,12.5524731 C19.2423616,12.6113023 19.1422583,12.6428571 19.0396722,12.6428571 L14.9603278,12.6428571 C14.6841854,12.6428571 14.4603278,12.4189995 14.4603278,12.1428571 C14.4603278,12.0402711 14.4918826,11.9401677 14.5507118,11.856126 L16.590384,8.94230851 C16.7487413,8.71608387 17.0605065,8.66106647 17.2867312,8.81942373 C17.3345518,8.85289819 17.3761415,8.89448785 17.409616,8.94230851 Z" id="三角形" fill="#7F838C" transform="translate(17.000000, 10.500000) rotate(174.000000) translate(-17.000000, -10.500000) "></path>
    </g>
</svg>