<?xml version="1.0" encoding="UTF-8"?>
<svg width="20px" height="20px" viewBox="0 0 20 20" version="1.1" xmlns="http://www.w3.org/2000/svg" xmlns:xlink="http://www.w3.org/1999/xlink">
    <title>设置</title>
    <g id="设置" stroke="none" stroke-width="1" fill="none" fill-rule="evenodd">
        <g id="编组-2">
            <rect id="矩形" x="0" y="0" width="20" height="20"></rect>
        </g>
        <path d="M18.807696,10.911117 L15.0549204,17.5825644 C14.7888694,18.0584669 14.279762,18.3547427 13.7262147,18.3558067 L6.27378526,18.3558067 C5.72023799,18.3547427 5.21113065,18.0584669 4.94507965,17.5825644 L1.19230395,10.911117 C0.935898683,10.4546267 0.935898683,9.90118002 1.19230395,9.44468975 L4.94507965,2.77324228 C5.21113066,2.29733978 5.72023799,2.00106398 6.27378526,2 L13.7262147,2 C14.279762,2.00106397 14.7888694,2.29733977 15.0549204,2.77324228 L18.807696,9.44468975 C19.0641013,9.90118002 19.0641013,10.4546267 18.807696,10.911117 L18.807696,10.911117 Z M17.655478,10.2827096 C17.6920315,10.2175104 17.6920315,10.1385115 17.655478,10.0733123 L13.9092877,3.40186481 C13.8714673,3.33385862 13.7988553,3.29145905 13.7198489,3.2912479 L6.2801511,3.2912479 C6.20114473,3.29145905 6.12853266,3.33385862 6.09071232,3.40186481 L2.344522,10.0733123 C2.30796855,10.1385115 2.30796855,10.2175104 2.344522,10.2827096 L6.09071232,16.9541571 C6.12859048,17.0220801 6.20119135,17.0643907 6.2801511,17.0645588 L13.7198489,17.0645588 C13.7988086,17.0643907 13.8714095,17.0220801 13.9092877,16.9541571 L17.655478,10.2827096 L17.655478,10.2827096 Z M9.94336594,13.5381608 C8.00353916,13.5381608 6.4311753,11.996626 6.4311753,10.0948331 C6.4311753,8.19304011 8.00353914,6.65150533 9.94336594,6.65150533 C11.8829732,6.65150533 13.4555566,8.19304011 13.4555566,10.0948331 C13.4555566,11.996626 11.8829732,13.5381608 9.94336594,13.5381608 Z M9.94336594,12.2469129 C11.1557302,12.2469129 12.1384851,11.2834268 12.1384851,10.0948331 C12.1384851,8.90623938 11.1557302,7.94275323 9.94336594,7.94275323 C8.73100165,7.94275323 7.74824679,8.90623938 7.74824679,10.0948331 C7.74824679,11.2834268 8.73100163,12.2469129 9.94336594,12.2469129 Z" id="形状" stroke="#787D8B" stroke-width="0.2" fill="#787D8B" fill-rule="nonzero"></path>
    </g>
</svg>