<?xml version="1.0" encoding="UTF-8"?>
<svg width="17px" height="17px" viewBox="0 0 17 17" version="1.1" xmlns="http://www.w3.org/2000/svg" xmlns:xlink="http://www.w3.org/1999/xlink">
    <title>编组 5</title>
    <g id="-----API设计页面优化-2.8" stroke="none" stroke-width="1" fill="none" fill-rule="evenodd">
        <g id="画板" transform="translate(-1145.000000, -90.000000)">
            <g id="编组-5" transform="translate(1145.000000, 90.000000)">
                <rect id="矩形" x="0" y="0" width="17" height="17"></rect>
                <g id="编组备份-2" transform="translate(0.850000, 1.700000)" fill="#5F6269" fill-rule="nonzero">
                    <path d="M12.2678043,0 C12.9199045,0 13.4485362,0.528631673 13.4485362,1.18073189 L13.4485362,2.27290889 C13.4485362,2.9250091 12.9199045,3.45364078 12.2678043,3.45364078 L4.00268111,3.45364078 C3.35058089,3.45364078 2.82194922,2.9250091 2.82194922,2.27290889 L2.821,2.187 L1.64121733,2.18730583 C1.26946019,2.18730583 0.967080335,2.45623596 0.925779933,2.79796934 L0.920970874,2.87803398 L0.920970874,5.75606796 C0.920970874,6.10784133 1.19679665,6.40189813 1.55674602,6.44211148 L1.64121733,6.44679612 L6.968,6.446 L8.29419215,5.12027025 L9.62,6.446 L14.1687827,6.44679612 C15.0333316,6.44679612 15.7455661,7.10457541 15.8058652,7.94307844 L15.81,8.05849515 L15.81,10.9365291 C15.81,11.7904759 15.1353546,12.4853833 14.2856847,12.5441958 L14.1687827,12.5482282 L13.448,12.548 L13.4485362,12.6338312 C13.4485362,13.2859314 12.9199045,13.8145631 12.2678043,13.8145631 L4.00268111,13.8145631 C3.35058089,13.8145631 2.82194922,13.2859314 2.82194922,12.6338312 L2.82194922,11.5416542 C2.82194922,10.889554 3.35058089,10.3609223 4.00268111,10.3609223 L12.2678043,10.3609223 C12.9199045,10.3609223 13.4485362,10.889554 13.4485362,11.5416542 L13.448,11.627 L14.1687827,11.6272573 C14.5405398,11.6272573 14.8429197,11.3583272 14.8842201,11.0165938 L14.8890291,10.9365291 L14.8890291,8.05849515 C14.8890291,7.70672178 14.6132034,7.41266498 14.253254,7.37245163 L14.1687827,7.36776699 L9.303,7.367 L8.29419215,8.376394 L7.285,7.367 L1.64121733,7.36776699 C0.776668409,7.36776699 0.0644338932,6.70998769 0.00413476499,5.87148467 L0,5.75606796 L0,2.87803398 C0,2.02408718 0.674645433,1.32917976 1.52431531,1.27036729 L1.64121733,1.26633495 L2.821,1.266 L2.82194922,1.18073189 C2.82194922,0.528631673 3.35058089,0 4.00268111,0 L12.2678043,0 Z M12.2678043,11.2818932 L4.00268111,11.2818932 C3.87715181,11.2818932 3.77241925,11.3709346 3.74819751,11.4893033 L3.74292009,11.5416542 L3.74292009,12.6338312 C3.74292009,12.7593605 3.83196149,12.8640931 3.9503302,12.8883148 L4.00268111,12.8935922 L12.2678043,12.8935922 C12.3933336,12.8935922 12.4980662,12.8045508 12.5222879,12.6861821 L12.5275653,12.6338312 L12.5275653,11.5416542 C12.5275653,11.4161249 12.4385239,11.3113924 12.3201552,11.2871706 L12.2678043,11.2818932 Z M12.2678043,0.920970874 L4.00268111,0.920970874 C3.87715181,0.920970874 3.77241925,1.01001227 3.74819751,1.12838098 L3.74292009,1.18073189 L3.74292009,2.27290889 C3.74292009,2.39843818 3.83196149,2.50317074 3.9503302,2.52739248 L4.00268111,2.5326699 L12.2678043,2.5326699 C12.3933336,2.5326699 12.4980662,2.44362851 12.5222879,2.32525979 L12.5275653,2.27290889 L12.5275653,1.18073189 C12.5275653,1.0552026 12.4385239,0.950470039 12.3201552,0.926248294 L12.2678043,0.920970874 Z" id="形状结合"></path>
                </g>
            </g>
        </g>
    </g>
</svg>