<?xml version="1.0" encoding="UTF-8"?>
<svg width="14px" height="14px" viewBox="0 0 14 14" version="1.1" xmlns="http://www.w3.org/2000/svg" xmlns:xlink="http://www.w3.org/1999/xlink">
    <g stroke="none" stroke-width="1" fill="none" fill-rule="evenodd">
        <rect x="0" y="0" width="14" height="14"></rect>
        <g>
            <circle fill="#F87B39" cx="7" cy="7" r="7"></circle>
            <path d="M8.74820513,2.98307692 C9.21846154,2.83948719 9.69230769,3.18769231 9.69230769,3.67589744 L9.69230769,3.67589744 L9.69230769,7.98358975 C9.69381454,8.25311685 9.56797049,8.53586678 9.33198627,8.77142803 C9.00970931,9.09312734 8.5309786,9.27794054 8.07613546,9.25624718 C7.62129233,9.23455381 7.25944196,9.00964978 7.12689603,8.66625807 C6.9943155,8.32287971 7.11117454,7.9131707 7.4334515,7.59147139 C7.75572846,7.26977208 8.23445917,7.08495888 8.68930231,7.10665225 C8.84524853,7.11408997 8.99026335,7.14541532 9.11885298,7.19721368 L9.11794872,4.46564102 C9.11794872,4.37230769 9.03897436,4.31128205 8.96358975,4.31128205 C8.94923077,4.31128205 8.9348718,4.31487179 8.92051282,4.31846154 L8.92051282,4.31846154 L5.92666667,5.27333333 C5.85846154,5.29128205 5.81538462,5.35230769 5.81538462,5.42051282 L5.81538462,5.42051282 L5.81538462,8.80205128 C5.81340871,9.06808806 5.68778465,9.34652683 5.45488634,9.57900259 C5.13261331,9.90069093 4.65389634,10.0854988 4.19906348,10.063811 C3.74423062,10.0421231 3.38238181,9.81723432 3.24982199,9.47385811 C3.11726216,9.1304819 3.23413031,8.72078525 3.55640334,8.39909691 C3.87867637,8.07740857 4.35739335,7.89260067 4.81222621,7.91428854 C4.9681689,7.92172439 5.11318123,7.9530467 5.24176966,8.00484126 L5.24102548,4.63076923 C5.2408133,4.31000872 5.4508645,4.02702308 5.75794872,3.93435898 L5.75794872,3.93435898 Z" fill="#FFFFFF" fill-rule="nonzero" opacity="0.99"></path>
            <path d="M11.8461538,7 C11.8461538,4.9292132 10.5473327,3.16178235 8.71988627,2.4679034 M7,2.15384615 C4.32354314,2.15384615 2.15384615,4.32354314 2.15384615,7 C2.15384615,8.55411619 2.88539875,9.93736912 4.02293309,10.8241879 M5.76186612,11.6865526 C6.15709126,11.7906877 6.57206823,11.8461538 7,11.8461538 C9.0519067,11.8461538 10.8059639,10.5709083 11.5128504,8.76973828" stroke="#FFFFFF" stroke-width="0.525" opacity="0.254906064" stroke-linecap="round"></path>
        </g>
    </g>
</svg>