<?xml version="1.0" encoding="UTF-8"?>
<svg width="12px" height="12px" viewBox="0 0 12 12" version="1.1" xmlns="http://www.w3.org/2000/svg" xmlns:xlink="http://www.w3.org/1999/xlink">
    <defs>
        <linearGradient x1="46.6947535%" y1="100%" x2="46.6947535%" y2="0%" id="linearGradient-1">
            <stop stop-color="#FFB047" offset="0%"></stop>
            <stop stop-color="#FFC157" offset="19.4630549%"></stop>
            <stop stop-color="#FFCB60" offset="100%"></stop>
        </linearGradient>
    </defs>
    <g stroke="none" stroke-width="1" fill="none" fill-rule="evenodd">
        <g>
            <rect x="0" y="0" width="12" height="12"></rect>
            <path d="M1.15810045,0.823916797 L4.4926226,0.823916797 C4.78427729,0.823916797 5.03368749,1.03364606 5.08372602,1.32097619 L5.32497723,2.70628362 C5.35833625,2.89783703 5.52460971,3.03765654 5.71904617,3.03765654 L10.9581004,3.03765654 C11.2894713,3.03765654 11.5581004,3.3062857 11.5581004,3.63765657 L11.5581004,10.2239168 C11.5581004,10.5552876 11.2894713,10.8239168 10.9581004,10.8239168 L1.15810045,10.8239168 C0.826729588,10.8239168 0.558100427,10.5552876 0.558100427,10.2239168 L0.558100427,1.42391682 C0.558100427,1.09254596 0.826729588,0.823916797 1.15810045,0.823916797 Z" id="矩形" fill="url(#linearGradient-1)"></path>
            <path d="M6.06878842,7.125 C6.06878842,6.61386356 6.24401863,6.11698503 6.56482629,5.7094626 C6.61824258,5.64168869 6.61080356,5.54793802 6.54261256,5.49325013 L6.28751622,5.28836586 C6.21519243,5.23025998 6.1032972,5.23865848 6.04595476,5.31014336 C5.62823322,5.83026425 5.4,6.46855003 5.4,7.125 C5.4,7.78154763 5.62823321,8.41983341 6.04595476,8.93985664 C6.10340051,9.01134152 6.21519243,9.01974002 6.28751622,8.96163414 L6.54261256,8.75665221 C6.61070025,8.70186666 6.61813926,8.60821366 6.56482629,8.54043974 C6.24391531,8.13311263 6.06878841,7.63613644 6.06878842,7.125 L6.06878842,7.125 Z M5.4,4.16666667 C5.4,4.07458333 5.32328572,4 5.22857143,4 L4.71428571,4 C4.09885715,4 3.6,4.485 3.6,5.08333333 L3.6,5.75 L3.17142857,5.75 C3.07671428,5.75 3,5.82458333 3,5.91666667 L3,6.41666667 C3,6.50875 3.07671428,6.58333333 3.17142857,6.58333333 L3.6,6.58333333 L3.6,7.91666667 C3.6,8.05416667 3.48428571,8.16666667 3.34285714,8.16666667 L3.17142857,8.16666667 C3.07671428,8.16666667 3,8.24125 3,8.33333333 L3,8.83333333 C3,8.92541667 3.07671428,9 3.17142857,9 L3.34285714,9 C3.95828571,9 4.45714286,8.515 4.45714286,7.91666667 L4.45714286,6.58333333 L4.88571429,6.58333333 C4.98042857,6.58333333 5.05714286,6.50875 5.05714286,6.41666667 L5.05714286,5.91666667 C5.05714286,5.82458333 4.98042857,5.75 4.88571429,5.75 L4.45714286,5.75 L4.45714286,5.08333333 C4.45714286,4.94583333 4.57285715,4.83333333 4.71428571,4.83333333 L5.22857143,4.83333333 C5.32328572,4.83333333 5.4,4.75875 5.4,4.66666667 L5.4,4.16666667 Z M8.35404524,5.3101418 C8.29659949,5.23865878 8.18480757,5.2302605 8.11248378,5.28836486 L7.85738744,5.4932438 C7.78929976,5.54802792 7.78186074,5.64167848 7.83517371,5.70945064 C8.15598137,6.11676714 8.33121159,6.61382804 8.33121159,7.12495117 C8.33121159,7.63607431 8.15598137,8.13303755 7.83517371,8.5404517 C7.78175742,8.60822386 7.78919644,8.70197208 7.85738744,8.75665855 L8.11248378,8.96163514 C8.18480757,9.0197395 8.2967028,9.01134122 8.35404524,8.9398582 C8.77176679,8.41955556 9,7.78138405 9,7.12495117 C9,6.46842064 8.77176679,5.83015148 8.35404524,5.3101418 Z M7.77070236,7.4248776 L7.48281986,7.125 L7.77070236,6.8251224 C7.80976588,6.78443124 7.80976588,6.718479 7.77070236,6.67778783 L7.62932368,6.53051837 C7.59026016,6.48982721 7.52694601,6.48982721 7.4878825,6.53051837 L7.2,6.83039597 L6.9121175,6.53051837 C6.87305399,6.48982721 6.80973984,6.48982721 6.77067632,6.53051837 L6.62929764,6.67778783 C6.59023412,6.71847899 6.59023412,6.78443123 6.62929764,6.8251224 L6.91718013,7.125 L6.62929764,7.4248776 C6.59023412,7.46556876 6.59023412,7.531521 6.62929764,7.57221217 L6.77067632,7.71948163 C6.80973983,7.76017279 6.87305398,7.76017279 6.9121175,7.71948163 L7.2,7.41960402 L7.4878825,7.71948163 C7.52694601,7.76017279 7.59026016,7.76017279 7.62932368,7.71948163 L7.77070236,7.57221217 C7.80976588,7.531521 7.80976588,7.46556876 7.77070236,7.4248776 L7.77070236,7.4248776 Z" id="形状" fill="#FFFFFF" fill-rule="nonzero"></path>
        </g>
    </g>
</svg>