<?xml version="1.0" encoding="UTF-8"?>
<svg width="15px" height="15px" viewBox="0 0 15 15" version="1.1" xmlns="http://www.w3.org/2000/svg" xmlns:xlink="http://www.w3.org/1999/xlink">
    <title>graphQL</title>
    <g id="控件" stroke="none" stroke-width="1" fill="none" fill-rule="evenodd">
        <g id="左侧导航-API设计-数据源" transform="translate(-26.000000, -623.000000)">
            <g id="编组-4" transform="translate(10.000000, 463.000000)">
                <g id="编组" transform="translate(17.000000, 161.000000)">
                    <g transform="translate(2.000000, 2.000000)">
                        <rect id="Rectangle" fill="#E00297" fill-rule="nonzero" x="0" y="0" width="12" height="12" rx="2"></rect>
                        <g id="编组-8" transform="translate(1.729107, 1.000000)">
                            <path d="M4.25066208,0.970048017 L7.93431557,3.21902745 L7.93431557,6.88666111 L4.25076143,9.26264481 L0.708134545,6.88946291 L0.708134545,3.21625184 L4.25066208,0.970048017 Z" id="路径-17" stroke="#FFFFFF" stroke-width="0.5"></path>
                            <path d="M4.25220322,1.15649075 L7.73511416,6.7729004 L0.898588593,6.7729004 L4.25220322,1.15649075 Z" id="路径-18" stroke="#FFFFFF" stroke-width="0.5"></path>
                            <path d="M4.20165394,1.42813983 C4.59412434,1.42813983 4.91228447,1.10843984 4.91228447,0.714069916 C4.91228447,0.319699991 4.59412434,0 4.20165394,0 C3.80918353,0 3.4910234,0.319699991 3.4910234,0.714069916 C3.4910234,1.10843984 3.80918353,1.42813983 4.20165394,1.42813983 Z" id="椭圆形" fill="#FFFFFF"></path>
                            <path d="M0.710630535,7.73697031 C1.10310094,7.73697031 1.42126107,7.41727032 1.42126107,7.0229004 C1.42126107,6.62853047 1.10310094,6.30883048 0.710630535,6.30883048 C0.318160128,6.30883048 0,6.62853047 0,7.0229004 C0,7.41727032 0.318160128,7.73697031 0.710630535,7.73697031 Z" id="椭圆形" fill="#FFFFFF"></path>
                            <path d="M0.710630535,3.82130651 C1.10310094,3.82130651 1.42126107,3.50160652 1.42126107,3.1072366 C1.42126107,2.71286667 1.10310094,2.39316668 0.710630535,2.39316668 C0.318160128,2.39316668 0,2.71286667 0,3.1072366 C0,3.50160652 0.318160128,3.82130651 0.710630535,3.82130651 Z" id="椭圆形" fill="#FFFFFF"></path>
                            <path d="M8.10138936,3.82130651 C8.49385977,3.82130651 8.8120199,3.50160652 8.8120199,3.1072366 C8.8120199,2.71286667 8.49385977,2.39316668 8.10138936,2.39316668 C7.70891895,2.39316668 7.39075883,2.71286667 7.39075883,3.1072366 C7.39075883,3.50160652 7.70891895,3.82130651 8.10138936,3.82130651 Z" id="椭圆形" fill="#FFFFFF"></path>
                            <path d="M8.10138936,7.61976695 C8.49385977,7.61976695 8.8120199,7.30006696 8.8120199,6.90569703 C8.8120199,6.51132711 8.49385977,6.19162711 8.10138936,6.19162711 C7.70891895,6.19162711 7.39075883,6.51132711 7.39075883,6.90569703 C7.39075883,7.30006696 7.70891895,7.61976695 8.10138936,7.61976695 Z" id="椭圆形" fill="#FFFFFF"></path>
                            <path d="M4.27089344,10 C4.66336384,10 4.98152397,9.68030001 4.98152397,9.28593008 C4.98152397,8.89156016 4.66336384,8.57186017 4.27089344,8.57186017 C3.87842303,8.57186017 3.5602629,8.89156016 3.5602629,9.28593008 C3.5602629,9.68030001 3.87842303,10 4.27089344,10 Z" id="椭圆形" fill="#FFFFFF"></path>
                        </g>
                    </g>
                    <g fill-rule="nonzero">
                        <g>
                            <g id="编组备份" fill="#4267FF" stroke="#FFFFFF" stroke-width="0.583333333">
                                <rect id="Rectangle" x="0" y="0" width="5" height="4" rx="2"></rect>
                            </g>
                            <path d="M3.32397532,1 L1.36005251,1 C1.161201,1 1,1.12345539 1,1.27574534 L1,1.40108413 L1.00090403,1.42077674 C1.01408865,1.56387595 1.16984672,1.67682947 1.36005251,1.67682947 L1.37887344,1.67682947 L1.36512455,1.71439929 C1.31592587,1.85840267 1.30843147,2.00946042 1.34634525,2.15883858 C1.4916285,2.73124648 2.25151138,3.09524608 3.03854561,2.97808369 C3.10332076,2.9684409 3.16681942,2.95575613 3.22875221,2.9401315 L4,2.74555841 L3.17687898,2.64616786 C2.59049057,2.57137622 2.13046921,2.2482244 2.02304751,1.82498891 L2.01259997,1.77776554 C2.0066487,1.74624773 2.00272228,1.71466976 2.00080474,1.68309737 L3.32397412,1.67682947 C3.52282683,1.67682947 3.68402783,1.55337408 3.68402783,1.40108413 L3.68402783,1.27574534 C3.68402783,1.12345539 3.52282683,1 3.32397532,1 Z M3.32397532,1.15040655 C3.41436237,1.15040655 3.48763555,1.20652264 3.48763555,1.27574534 L3.48763555,1.40108413 C3.48763555,1.47030683 3.41436237,1.52642292 3.32397532,1.52642292 L1.81025124,1.52641584 C1.79635817,1.63354248 1.80227731,1.74342375 1.83026351,1.85368784 C1.95635241,2.35047105 2.49395414,2.71154214 3.14629236,2.7947391 L3.16730531,2.79727639 C3.11363324,2.81081696 3.05815469,2.82194291 3.00107219,2.83044054 C2.31765082,2.93217853 1.66311666,2.61864314 1.53912925,2.13013965 C1.48498569,1.91681705 1.54096793,1.70540487 1.67813107,1.52644198 L1.36005251,1.52642292 C1.26966546,1.52642292 1.19639228,1.47030683 1.19639228,1.40108413 L1.19639228,1.27574534 C1.19639228,1.20652264 1.26966546,1.15040655 1.36005251,1.15040655 L3.32397532,1.15040655 Z" id="形状结合备份" fill="#FFFFFF"></path>
                        </g>
                    </g>
                </g>
            </g>
        </g>
    </g>
</svg>