<?xml version="1.0" encoding="UTF-8"?>
<svg width="12px" height="12px" viewBox="0 0 12 12" version="1.1" xmlns="http://www.w3.org/2000/svg" xmlns:xlink="http://www.w3.org/1999/xlink">
    <title>openID</title>
    <g id="openID" stroke="none" stroke-width="1" fill="none" fill-rule="evenodd">
        <rect id="矩形" fill="#FF7700" x="0" y="0" width="12" height="12" rx="2"></rect>
        <g id="编组-4" transform="translate(1.524576, 1.307329)">
            <polygon id="矩形" fill="#FFDFC2" points="4.06105775 0.710526316 5.40188213 -4.03739542e-14 5.40188213 8.28947368 4.06105775 9"></polygon>
            <path d="M4.06105775,9 C1.94668515,8.64917212 0.65596705,7.89893745 0.188903442,6.749296 C-0.541625813,4.95115394 0.889498853,3.28627103 3.74088332,2.81299328 L3.74088332,3.71557165 C2.91924547,3.86193538 2.31639224,4.1234115 1.93232363,4.5 C0.666008636,5.74165225 1.05718242,7.57418143 4.06105775,8.12005636 C4.08002024,8.31518454 4.08002024,8.60849909 4.06105775,9 Z" id="路径-82" fill="#FFFFFF"></path>
            <path d="M5.69770288,2.81299328 L5.69770288,3.73707158 C6.36935294,3.79075911 6.87832163,3.93699683 7.22460894,4.17578475 C7.03446219,4.29163326 6.75616401,4.45760678 6.38971441,4.67370528 L9,5.30273308 L8.81543946,3.2176499 L8.12456654,3.65373628 C7.68760367,3.36688795 7.28132001,3.16259047 6.90571558,3.04084382 C6.53011114,2.91909718 6.12744024,2.843147 5.69770288,2.81299328 Z" id="路径-83" fill="#FFFFFF"></path>
        </g>
    </g>
</svg>