<?xml version="1.0" encoding="UTF-8"?>
<svg width="12px" height="12px" viewBox="0 0 12 12" version="1.1" xmlns="http://www.w3.org/2000/svg" xmlns:xlink="http://www.w3.org/1999/xlink">
    <title>graphQL只读备份 2</title>
    <defs>
        <linearGradient x1="50%" y1="0%" x2="50%" y2="100%" id="linearGradient-1">
            <stop stop-color="#647AE7" offset="0%"></stop>
            <stop stop-color="#4F58C4" offset="100%"></stop>
        </linearGradient>
    </defs>
    <g id="graphQL只读备份-2" stroke="none" stroke-width="1" fill="none" fill-rule="evenodd">
        <rect id="Rectangle" fill="url(#linearGradient-1)" fill-rule="nonzero" x="0" y="0" width="12" height="12" rx="2"></rect>
        <path d="M8.40278366,8.3455585 L5.14925626,9.40806107 C5.04986006,9.44056115 4.95459594,9.34562342 4.97548272,9.23493565 L6.13778429,3.08867081 C6.15952013,2.97379553 6.30340689,2.95554549 6.3488031,3.06198324 L8.50087798,8.10799543 C8.54146287,8.20318316 8.495161,8.31543343 8.40278366,8.3455585 Z M8.96072691,8.0949329 L6.46891627,2.25229379 L6.46891627,2.25216879 C6.40583877,2.10559079 6.27500114,2.00905548 6.12821826,2.00079318 C5.97657679,1.99104316 5.84072777,2.07179335 5.76408628,2.20923118 L3.06159646,7.04236786 C2.97778067,7.19141433 2.97963413,7.38054753 3.06635118,7.52755653 L4.38736968,9.78706199 C4.46610551,9.92193731 4.60252056,10 4.74431298,10 C4.78450165,10 4.82491673,9.99374998 4.86465257,9.98074995 L8.69921754,8.72849693 C8.81600932,8.69071362 8.91223018,8.59887854 8.96299106,8.47674632 C9.01311598,8.35527656 9.01228786,8.21560512 8.96072691,8.0948704 L8.96072691,8.0949329 Z" id="形状" fill="#FFFFFF" fill-rule="nonzero"></path>
    </g>
</svg>