<?xml version="1.0" encoding="UTF-8"?>
<svg width="12px" height="12px" viewBox="0 0 12 12" version="1.1" xmlns="http://www.w3.org/2000/svg" xmlns:xlink="http://www.w3.org/1999/xlink">
    <defs>
        <linearGradient x1="46.6947535%" y1="100%" x2="46.6947535%" y2="0%" id="linearGradient-1">
            <stop stop-color="#478AFF" offset="0%"></stop>
            <stop stop-color="#579FFF" offset="19.2717439%"></stop>
            <stop stop-color="#60C5FF" offset="100%"></stop>
        </linearGradient>
    </defs>
    <g stroke="none" stroke-width="1" fill="none" fill-rule="evenodd">
        <g>
            <rect x="0" y="0" width="12" height="12"></rect>
            <path d="M1.15810045,0.823916797 L4.4926226,0.823916797 C4.78427729,0.823916797 5.03368749,1.03364606 5.08372602,1.32097619 L5.32497723,2.70628362 C5.35833625,2.89783703 5.52460971,3.03765654 5.71904617,3.03765654 L10.9581004,3.03765654 C11.2894713,3.03765654 11.5581004,3.3062857 11.5581004,3.63765657 L11.5581004,10.2239168 C11.5581004,10.5552876 11.2894713,10.8239168 10.9581004,10.8239168 L1.15810045,10.8239168 C0.826729588,10.8239168 0.558100427,10.5552876 0.558100427,10.2239168 L0.558100427,1.42391682 C0.558100427,1.09254596 0.826729588,0.823916797 1.15810045,0.823916797 Z" fill="url(#linearGradient-1)"></path>
            <path d="M6.58025316,7.75 C6.58025316,7.13663627 6.7846884,6.54038204 7.15896401,6.05135513 C7.22128301,5.97002642 7.21260416,5.85752562 7.13304799,5.79190016 L6.83543559,5.54603904 C6.75105784,5.47631198 6.6205134,5.48639018 6.55361389,5.57217204 C6.06627209,6.1963171 5.8,6.96226003 5.8,7.75 C5.8,8.53785716 6.06627208,9.30380009 6.55361389,9.92782796 C6.62063393,10.0136098 6.75105784,10.023688 6.83543559,9.95396096 L7.13304799,9.70798265 C7.21248362,9.64224 7.22116247,9.52985639 7.15896401,9.44852769 C6.78456786,8.95973516 6.58025315,8.36336373 6.58025316,7.75 L6.58025316,7.75 Z M5.8,4.2 C5.8,4.0895 5.7105,4 5.6,4 L5,4 C4.282,4 3.7,4.582 3.7,5.3 L3.7,6.1 L3.2,6.1 C3.0895,6.1 3,6.1895 3,6.3 L3,6.9 C3,7.0105 3.0895,7.1 3.2,7.1 L3.7,7.1 L3.7,8.7 C3.7,8.865 3.565,9 3.4,9 L3.2,9 C3.0895,9 3,9.0895 3,9.2 L3,9.8 C3,9.9105 3.0895,10 3.2,10 L3.4,10 C4.118,10 4.7,9.418 4.7,8.7 L4.7,7.1 L5.2,7.1 C5.3105,7.1 5.4,7.0105 5.4,6.9 L5.4,6.3 C5.4,6.1895 5.3105,6.1 5.2,6.1 L4.7,6.1 L4.7,5.3 C4.7,5.135 4.835,5 5,5 L5.6,5 C5.7105,5 5.8,4.9105 5.8,4.8 L5.8,4.2 Z M9.24638611,5.57217016 C9.17936607,5.48639053 9.04894216,5.4763126 8.96456441,5.54603784 L8.66695202,5.79189256 C8.58751639,5.8576335 8.57883754,5.97001418 8.64103599,6.05134077 C9.0153116,6.54012057 9.21974685,7.13659365 9.21974685,7.74994141 C9.21974685,8.36328917 9.0153116,8.95964506 8.64103599,9.44854205 C8.57871699,9.52986863 8.58739584,9.6423665 8.66695202,9.70799026 L8.96456441,9.95396216 C9.04894216,10.0236874 9.1794866,10.0136095 9.24638611,9.92782984 C9.73372792,9.30346667 10,8.53766086 10,7.74994141 C10,6.96210477 9.73372792,6.19618178 9.24638611,5.57217016 Z M8.56581942,8.10985312 L8.22995651,7.75 L8.56581942,7.39014688 C8.61139353,7.34131748 8.61139353,7.2621748 8.56581942,7.2133454 L8.40087763,7.03662205 C8.35530352,6.98779265 8.28143702,6.98779265 8.23586291,7.03662205 L7.9,7.39647517 L7.56413709,7.03662205 C7.51856298,6.98779265 7.44469648,6.98779265 7.39912237,7.03662205 L7.23418058,7.2133454 C7.18860647,7.26217479 7.18860647,7.34131748 7.23418058,7.39014688 L7.57004349,7.75 L7.23418058,8.10985312 C7.18860647,8.15868252 7.18860647,8.2378252 7.23418058,8.2866546 L7.39912237,8.46337795 C7.44469647,8.51220735 7.51856298,8.51220735 7.56413709,8.46337795 L7.9,8.10352483 L8.23586291,8.46337795 C8.28143702,8.51220735 8.35530352,8.51220735 8.40087763,8.46337795 L8.56581942,8.2866546 C8.61139353,8.2378252 8.61139353,8.15868252 8.56581942,8.10985312 L8.56581942,8.10985312 Z" fill="#FFFFFF" fill-rule="nonzero"></path>
        </g>
    </g>
</svg>