<?xml version="1.0" encoding="UTF-8"?>
<svg width="20px" height="20px" viewBox="0 0 20 20" version="1.1" xmlns="http://www.w3.org/2000/svg" xmlns:xlink="http://www.w3.org/1999/xlink">
    <title>github</title>
    <g id="github" stroke="none" stroke-width="1" fill="none" fill-rule="evenodd">
        <rect id="矩形" stroke="#979797" fill="#D8D8D8" opacity="0" x="0.5" y="0.5" width="19" height="19"></rect>
        <g id="github-(2)" transform="translate(1.000000, 1.000000)" fill="#787D8B" fill-rule="nonzero">
            <path d="M9,0 C4.0275,0 0,4.13206428 0,9.22850761 C0,13.3067389 2.5785,16.7651221 6.15375,17.9840542 C6.60375,18.070956 6.76875001,17.7856413 6.76875001,17.5403168 C6.76875001,17.3211397 6.76125,16.7405128 6.75750001,15.9714705 C4.25400001,16.5282571 3.726,14.7333124 3.726,14.7333124 C3.3165,13.6681888 2.72475,13.3836432 2.72475,13.3836432 C1.90949999,12.8114757 2.78775,12.8230113 2.78775,12.8230113 C3.69149999,12.8876109 4.16624999,13.7735476 4.16624999,13.7735476 C4.96874999,15.1847402 6.273,14.7771478 6.78749999,14.5410518 C6.86849999,13.944275 7.10024999,13.5374516 7.3575,13.3067389 C5.35874999,13.0760262 3.258,12.2823746 3.258,8.74631808 C3.258,7.73887268 3.60675,6.9159974 4.18424999,6.27000187 C4.08299999,6.03698205 3.77924999,5.09875045 4.26299999,3.82752353 C4.26299999,3.82752353 5.01674999,3.5798919 6.73799999,4.77344556 C7.45799999,4.56811126 8.22299999,4.46659768 8.98799999,4.46198343 C9.75299999,4.46659768 10.518,4.56811126 11.238,4.77344556 C12.948,3.5798919 13.70175,3.82752353 13.70175,3.82752353 C14.1855,5.09875045 13.88175,6.03698205 13.79175,6.27000187 C14.3655,6.9159974 14.71425,7.73887266 14.71425,8.74631808 C14.71425,12.2916031 12.6105,13.072181 10.608,13.2990485 C10.923,13.5759037 11.2155,14.1419189 11.2155,15.0063224 C11.2155,16.2414044 11.20425,17.2334689 11.20425,17.5333954 C11.20425,17.7756437 11.36175,18.0640346 11.823,17.9717495 C15.42375,16.7612769 18,13.3005866 18,9.22850761 C18,4.13206428 13.97025,0 9,0" id="路径"></path>
        </g>
    </g>
</svg>