<?xml version="1.0" encoding="UTF-8"?>
<svg width="20px" height="20px" viewBox="0 0 20 20" version="1.1" xmlns="http://www.w3.org/2000/svg" xmlns:xlink="http://www.w3.org/1999/xlink">
    <title>键盘</title>
    <g id="键盘" stroke="none" stroke-width="1" fill="none" fill-rule="evenodd">
        <rect id="矩形" x="0" y="0" width="20" height="20"></rect>
        <g id="46键盘" transform="translate(2.000000, 2.000000)" fill="#787D8B" fill-rule="nonzero">
            <path d="M13.8181818,0 L2.18181819,0 C0.957090906,0 0.00727273437,1.09625819 0.00727273437,2.39637811 L0,10.7317331 C0,12.031853 0.957090906,13.1288406 2.18181819,13.1288406 L13.8181818,13.1288406 C15.0429091,13.1288406 16,12.031853 16,10.7324625 L16,2.39601341 C16,1.09698758 15.0429091,0 13.8181818,0 Z M13.8181818,1.45876007 C14.1934545,1.45876007 14.5454545,1.86247192 14.5454545,2.39637811 L14.5454545,10.7328272 C14.5454545,11.2663687 14.1934545,11.6700806 13.8181818,11.6700806 L2.18181819,11.6700806 C1.80654545,11.6700806 1.45454545,11.2663687 1.45454545,10.7324625 L1.46181819,2.39710748 C1.46181819,1.85991909 1.80945455,1.45876007 2.18181819,1.45876007 L13.8181818,1.45876007 Z M7.27272727,3.64690018 L8.72727273,3.64690018 L8.72727273,5.10566025 L7.27272727,5.10566025 L7.27272727,3.64690018 Z M7.27272727,5.83504027 L8.72727273,5.83504027 L8.72727273,7.29380034 L7.27272727,7.29380034 L7.27272727,5.83504027 Z M5.09090909,3.64690018 L6.54545455,3.64690018 L6.54545455,5.10566025 L5.09090909,5.10566025 L5.09090909,3.64690018 L5.09090909,3.64690018 Z M5.09090909,5.83504027 L6.54545455,5.83504027 L6.54545455,7.29380034 L5.09090909,7.29380034 L5.09090909,5.83504027 Z M4.36363636,7.29380034 L2.90909091,7.29380034 L2.90909091,5.83504027 L4.36363636,5.83504027 L4.36363636,7.29380034 L4.36363636,7.29380034 Z M4.36363636,5.10566025 L2.90909091,5.10566025 L2.90909091,3.64690018 L4.36363636,3.64690018 L4.36363636,5.10566025 L4.36363636,5.10566025 Z M10.9090909,7.29380034 L9.45454545,7.29380034 L9.45454545,5.83504027 L10.9090909,5.83504027 L10.9090909,7.29380034 Z M10.9090909,5.10566025 L9.45454545,5.10566025 L9.45454545,3.64690018 L10.9090909,3.64690018 L10.9090909,5.10566025 Z M13.0909091,7.29380034 L11.6363636,7.29380034 L11.6363636,5.83504027 L13.0909091,5.83504027 L13.0909091,7.29380034 Z M13.0909091,5.10566025 L11.6363636,5.10566025 L11.6363636,3.64690018 L13.0909091,3.64690018 L13.0909091,5.10566025 Z M10.9090909,9.48194045 L5.09090909,9.48194045 L5.09090909,8.02318038 L10.9090909,8.02318038 L10.9090909,9.48194045 Z M7.65018181,15.909602 L6.172,14.9920419 C5.81454545,14.7703104 5.86254545,14.5876007 6.28472727,14.5876007 L9.71636364,14.5876007 C10.1392727,14.5876007 10.1887273,14.7684869 9.82872727,14.9920419 L8.35054545,15.909602 C8.15563636,16.0306791 7.84363636,16.029585 7.65018181,15.909602 L7.65018181,15.909602 Z" id="形状"></path>
        </g>
    </g>
</svg>