<?xml version="1.0" encoding="UTF-8"?>
<svg width="20px" height="20px" viewBox="0 0 20 20" version="1.1" xmlns="http://www.w3.org/2000/svg" xmlns:xlink="http://www.w3.org/1999/xlink">
    <title>键盘</title>
    <g id="键盘" stroke="none" stroke-width="1" fill="none" fill-rule="evenodd">
        <rect id="矩形" x="0" y="0" width="20" height="20"></rect>
        <g id="46键盘" transform="translate(1.000000, 2.000000)" fill="#787D8B" fill-rule="nonzero">
            <path d="M14.6818182,0 L2.31818182,0 C1.01690909,0 0.00772728027,1.16477433 0.00772728027,2.54615174 L0,11.4024665 C0,12.7838439 1.01690909,13.9493932 2.31818182,13.9493932 L14.6818182,13.9493932 C15.9830909,13.9493932 17,12.7838439 17,11.4032414 L17,2.54576425 C17,1.1655493 15.9830909,0 14.6818182,0 Z M14.6818182,1.54993257 C15.0805455,1.54993257 15.4545455,1.97887641 15.4545455,2.54615174 L15.4545455,11.4036289 C15.4545455,11.9705168 15.0805455,12.3994606 14.6818182,12.3994606 L2.31818182,12.3994606 C1.91945454,12.3994606 1.54545454,11.9705168 1.54545454,11.4032414 L1.55318182,2.5469267 C1.55318182,1.97616403 1.92254546,1.54993257 2.31818182,1.54993257 L14.6818182,1.54993257 Z M7.72727272,3.87483144 L9.27272728,3.87483144 L9.27272728,5.42476401 L7.72727272,5.42476401 L7.72727272,3.87483144 Z M7.72727272,6.19973029 L9.27272728,6.19973029 L9.27272728,7.74966286 L7.72727272,7.74966286 L7.72727272,6.19973029 Z M5.40909091,3.87483144 L6.95454546,3.87483144 L6.95454546,5.42476401 L5.40909091,5.42476401 L5.40909091,3.87483144 L5.40909091,3.87483144 Z M5.40909091,6.19973029 L6.95454546,6.19973029 L6.95454546,7.74966286 L5.40909091,7.74966286 L5.40909091,6.19973029 Z M4.63636363,7.74966286 L3.09090909,7.74966286 L3.09090909,6.19973029 L4.63636363,6.19973029 L4.63636363,7.74966286 L4.63636363,7.74966286 Z M4.63636363,5.42476401 L3.09090909,5.42476401 L3.09090909,3.87483144 L4.63636363,3.87483144 L4.63636363,5.42476401 L4.63636363,5.42476401 Z M11.5909091,7.74966286 L10.0454545,7.74966286 L10.0454545,6.19973029 L11.5909091,6.19973029 L11.5909091,7.74966286 Z M11.5909091,5.42476401 L10.0454545,5.42476401 L10.0454545,3.87483144 L11.5909091,3.87483144 L11.5909091,5.42476401 Z M13.9090909,7.74966286 L12.3636364,7.74966286 L12.3636364,6.19973029 L13.9090909,6.19973029 L13.9090909,7.74966286 Z M13.9090909,5.42476401 L12.3636364,5.42476401 L12.3636364,3.87483144 L13.9090909,3.87483144 L13.9090909,5.42476401 Z M11.5909091,10.0745617 L5.40909091,10.0745617 L5.40909091,8.52462915 L11.5909091,8.52462915 L11.5909091,10.0745617 Z M8.12831818,16.9039521 L6.55775,15.9290445 C6.17795454,15.6934548 6.22895454,15.4993257 6.67752272,15.4993257 L10.3236364,15.4993257 C10.7729773,15.4993257 10.8255227,15.6915174 10.4430227,15.9290445 L8.87245454,16.9039521 C8.66536363,17.0325965 8.33386363,17.0314341 8.12831818,16.9039521 L8.12831818,16.9039521 Z" id="形状"></path>
        </g>
    </g>
</svg>