<?xml version="1.0" encoding="UTF-8"?>
<svg width="20px" height="20px" viewBox="0 0 20 20" version="1.1" xmlns="http://www.w3.org/2000/svg" xmlns:xlink="http://www.w3.org/1999/xlink">
    <title>预览</title>
    <g id="预览" stroke="none" stroke-width="1" fill="none" fill-rule="evenodd">
        <rect id="矩形" x="0" y="0" width="20" height="20"></rect>
        <g id="编组-2" transform="translate(2.000000, 3.000000)" stroke="#7F838C">
            <path d="M5.61759296,14 L0.350000005,14 C0.15670034,14 0,13.8432997 0,13.65 L0,0.350000005 C0,0.15670034 0.15670034,0 0.350000005,0 L13.65,0 C13.8432997,0 14,0.15670034 14,0.350000005 L14,7.5" id="路径" stroke-width="1.5" stroke-linecap="round" stroke-linejoin="round"></path>
            <line x1="4.12130464" y1="3.5" x2="9.5" y2="3.5" id="直线" stroke-width="1.5" stroke-linecap="round" stroke-linejoin="round"></line>
            <line x1="4.12130464" y1="7.5" x2="7.5" y2="7.5" id="直线备份" stroke-width="1.5" stroke-linecap="round" stroke-linejoin="round"></line>
            <g id="预览-(1)" transform="translate(7.000000, 9.000000)" fill="#7F838C" fill-rule="nonzero" stroke-width="0.3">
                <path d="M4.98910675,1.96875 C4.13943355,1.96875 3.46405229,2.646875 3.46405229,3.5 C3.46405229,4.353125 4.13943355,5.03125 4.98910675,5.03125 C5.83877996,5.03125 6.51416122,4.353125 6.51416122,3.5 C6.51416122,2.646875 5.83877996,1.96875 4.98910675,1.96875 Z M4.98910675,4.15625 C4.61873638,4.15625 4.33551198,3.871875 4.33551198,3.5 C4.33551198,3.128125 4.61873638,2.84375 4.98910675,2.84375 C5.35947712,2.84375 5.64270153,3.128125 5.64270153,3.5 C5.64270153,3.871875 5.35947712,4.15625 4.98910675,4.15625 Z" id="形状"></path>
                <path d="M9.97821351,3.303125 C9.25925926,1.509375 6.97167756,0 4.98910675,0 C3.00653595,0 0.718954248,1.509375 0.0217864924,3.325 L0.0217864924,3.36875 C0.0217864924,3.390625 0.0217864924,3.390625 0,3.4125 L0,3.5875 C0,3.609375 0,3.609375 0.0217864924,3.63125 L0.0217864924,3.675 C0.718954248,5.490625 3.00653595,7 4.98910675,7 C6.97167756,7 9.23747277,5.490625 9.95642702,3.696875 C10,3.63125 10,3.565625 10,3.5 C10,3.434375 10,3.36875 9.97821351,3.303125 Z M4.98910675,6.125 C3.4204793,6.125 1.52505447,4.9 0.893246187,3.5 C1.52505447,2.1 3.4204793,0.875 4.98910675,0.875 C6.5795207,0.875 8.45315904,2.078125 9.10675381,3.5 C8.45315904,4.921875 6.5795207,6.125 4.98910675,6.125 Z" id="形状"></path>
            </g>
        </g>
    </g>
</svg>