<?xml version="1.0" encoding="UTF-8"?>
<svg width="12px" height="12px" viewBox="0 0 12 12" version="1.1" xmlns="http://www.w3.org/2000/svg" xmlns:xlink="http://www.w3.org/1999/xlink">
    <defs>
        <linearGradient x1="46.6947535%" y1="100%" x2="46.6947535%" y2="0%" id="linearGradient-1">
            <stop stop-color="#38D757" offset="0%"></stop>
            <stop stop-color="#53D02A" offset="19.4630549%"></stop>
            <stop stop-color="#7CDE5F" offset="100%"></stop>
        </linearGradient>
    </defs>
    <g stroke="none" stroke-width="1" fill="none" fill-rule="evenodd">
        <g>
            <rect x="0" y="0" width="12" height="12"></rect>
            <path d="M1.15810045,0.823916797 L4.4926226,0.823916797 C4.78427729,0.823916797 5.03368749,1.03364606 5.08372602,1.32097619 L5.32497723,2.70628362 C5.35833625,2.89783703 5.52460971,3.03765654 5.71904617,3.03765654 L10.9581004,3.03765654 C11.2894713,3.03765654 11.5581004,3.3062857 11.5581004,3.63765657 L11.5581004,10.2239168 C11.5581004,10.5552876 11.2894713,10.8239168 10.9581004,10.8239168 L1.15810045,10.8239168 C0.826729588,10.8239168 0.558100427,10.5552876 0.558100427,10.2239168 L0.558100427,1.42391682 C0.558100427,1.09254596 0.826729588,0.823916797 1.15810045,0.823916797 Z" id="矩形" fill="url(#linearGradient-1)"></path>
            <g  transform="translate(4.000000, 4.000000)" fill="#FFFFFF" fill-rule="nonzero">
                <path d="M2.5,0.5 C2.98324916,0.5 3.375,0.891750844 3.375,1.375 C3.375,1.85824916 2.98324916,2.25 2.5,2.25 C2.01675084,2.25 1.625,1.85824916 1.625,1.375 C1.625,0.891750844 2.01675084,0.5 2.5,0.5 M2.5,0 C1.74060847,0 1.125,0.615608469 1.125,1.375 C1.125,2.13439153 1.74060847,2.75 2.5,2.75 C3.25939153,2.75 3.875,2.13439153 3.875,1.375 C3.875,1.01032733 3.73013434,0.660590696 3.47227182,0.402728176 C3.2144093,0.144865656 2.86467267,0 2.5,0"></path>
                <path d="M0.75,5 L0.25,5 C0.111928813,5 0,4.88807119 0,4.75 L0,4.25 C0,4.11192881 0.111928813,4 0.25,4 L0.75,4 C0.888071187,4 1,4.11192881 1,4.25 L1,4.75 C1,4.88807119 0.888071187,5 0.75,5"></path>
                <path d="M4.75,5 L4.25,5 C4.11192881,5 4,4.88807119 4,4.75 L4,4.25 C4,4.11192881 4.11192881,4 4.25,4 L4.75,4 C4.88807119,4 5,4.11192881 5,4.25 L5,4.75 C5,4.88807119 4.88807119,5 4.75,5"></path>
                <path d="M2.75,4.75 L2.25,4.75 C2.11192881,4.75 2,4.63807119 2,4.5 L2,4 C2,3.86192881 2.11192881,3.75 2.25,3.75 L2.75,3.75 C2.88807119,3.75 3,3.86192881 3,4 L3,4.5 C3,4.63807119 2.88807119,4.75 2.75,4.75"></path>
                <path d="M2.5,2.9795 C3.43113714,2.98079618 4.20332527,3.70073426 4.26975,4.6295 L4.76975,4.6295 C4.70516754,3.42309954 3.70812787,2.47800694 2.5,2.47800694 C1.29187213,2.47800694 0.294832458,3.42309954 0.23025,4.6295 L0.73025,4.6295 C0.796674733,3.70073426 1.56886286,2.98079618 2.5,2.9795"></path>
                <polygon points="2.25 2.5 2.75 2.5 2.75 4 2.25 4"></polygon>
            </g>
        </g>
    </g>
</svg>