<?xml version="1.0" encoding="UTF-8"?>
<svg width="20px" height="20px" viewBox="0 0 20 20" version="1.1" xmlns="http://www.w3.org/2000/svg" xmlns:xlink="http://www.w3.org/1999/xlink">
    <title>问号</title>
    <g id="问号" stroke="none" stroke-width="1" fill="none" fill-rule="evenodd">
        <g id="编组-2">
            <rect id="矩形" x="0" y="0" width="20" height="20"></rect>
            <circle id="椭圆形" stroke="#787D8B" stroke-width="1.5" cx="10" cy="10" r="8.25"></circle>
        </g>
        <path d="M9.765,6 C8.91333334,6 8.23666666,6.245 7.74666666,6.74666666 C7.245,7.23666666 7,7.90166666 7,8.75333332 L8.23666666,8.75333332 C8.23666666,8.23999999 8.34166666,7.83166666 8.55166666,7.55166666 C8.785,7.225 9.17,7.06166666 9.695,7.06166666 C10.115,7.06166666 10.4416667,7.17833332 10.675,7.41166666 C10.8966667,7.645 11.0133333,7.96 11.0133333,8.36833332 C11.0133333,8.67166666 10.9083333,8.95166666 10.6983333,9.22 L10.5,9.44166666 C9.77666666,10.0833333 9.33333334,10.5616667 9.17,10.8883333 C9.01833334,11.1916667 8.94833334,11.565 8.94833334,11.9966667 L8.94833334,12.195 L10.1966667,12.195 L10.1966667,11.9966667 C10.1966667,11.705 10.255,11.4483333 10.3833333,11.215 C10.4883333,11.005 10.6516667,10.8066667 10.8616667,10.62 C11.4216667,10.1416667 11.7483333,9.83833334 11.8533333,9.71 C12.1333333,9.33666666 12.285,8.85833334 12.285,8.28666666 C12.285,7.58666666 12.0516667,7.02666666 11.5966667,6.61833332 C11.13,6.19833332 10.5233333,6 9.765,6 Z M9.56666666,12.825 C9.32166666,12.825 9.12333332,12.895 8.97166666,13.0583333 C8.79666666,13.21 8.715,13.4083333 8.715,13.6533333 C8.715,13.8866667 8.79666666,14.085 8.97166666,14.2483333 C9.12333332,14.4116667 9.32166666,14.4933333 9.56666666,14.4933333 C9.8,14.4933333 10.01,14.4116667 10.185,14.26 C10.3483333,14.0966667 10.43,13.8983333 10.43,13.6533333 C10.43,13.4083333 10.3483333,13.21 10.185,13.0583333 C10.0216667,12.895 9.81166666,12.825 9.56666666,12.825 L9.56666666,12.825 Z" id="形状" stroke="#787D8B" stroke-width="0.1" fill="#787D8B" fill-rule="nonzero"></path>
    </g>
</svg>