<?xml version="1.0" encoding="UTF-8"?>
<svg width="16px" height="16px" viewBox="0 0 16 16" version="1.1" xmlns="http://www.w3.org/2000/svg" xmlns:xlink="http://www.w3.org/1999/xlink">
    <title>编辑-大</title>
    <g id="编辑-大" stroke="none" stroke-width="1" fill="none" fill-rule="evenodd">
        <rect id="矩形" x="0" y="0" width="16" height="16"></rect>
        <path d="M4.92195714,13.214853 C4.63913697,13.2148177 4.36792347,13.1023915 4.1680226,12.9023243 C3.96812174,12.7022571 3.85592121,12.4309501 3.85612125,12.14813 L3.85612125,4.85195292 C3.85590944,4.56910882 3.96809913,4.29777225 4.16799616,4.09766727 C4.3678932,3.89756228 4.63911297,3.78509054 4.92195714,3.78500826 L12.2181343,3.78500826 C12.5012045,3.78429348 12.7728008,3.8968318 12.9724065,4.0975476 C13.1737587,4.29889976 13.2837928,4.56664491 13.2839258,4.85150941 L13.2673386,5.67735285 C13.2692624,5.89420941 13.4443809,6.06804653 13.6599597,6.06838693 C13.8755384,6.06872732 14.0512051,5.89544409 14.0538095,5.67988084 L14.070087,4.85323909 C14.0703099,4.36071618 13.8752659,3.88953499 13.527909,3.54217813 C13.1805522,3.19482127 12.709371,2.99977729 12.2181343,2.9999924 L4.92195714,2.9999924 C4.43077522,2.99962358 3.95961858,3.19465365 3.61240443,3.5420758 C3.26519028,3.88949796 3.0704424,4.36077131 3.07108728,4.85195292 L3.07108728,12.14813 C3.07050133,12.6392809 3.26528131,13.110504 3.61249866,13.4578794 C3.95971601,13.8052549 4.43085037,14.0002493 4.92200149,13.9998693 L9.74868759,13.9998693 C9.96546137,13.9998693 10.1411912,13.8241304 10.1411912,13.6073566 C10.1411912,13.3905828 9.96546137,13.214853 9.74868759,13.214853 L4.92195714,13.214853 Z" id="形状结合" stroke="#5F6269" stroke-width="0.2" fill="#5F6269" fill-rule="nonzero" transform="translate(8.570586, 8.499931) scale(-1, -1) translate(-8.570586, -8.499931) "></path>
        <path d="M11.937251,6.76642846 C11.9558433,6.80840537 11.9709495,6.85737844 11.9825697,6.91334765 C11.9941899,6.96931687 12,7.02761814 12,7.08825146 C12,7.14888478 11.9883798,7.2095181 11.9651394,7.27015142 C11.9418991,7.33078473 11.9047145,7.389086 11.8535857,7.44505522 C11.7978088,7.50102444 11.747842,7.5499975 11.7036853,7.59197441 C11.6595285,7.63395132 11.6211819,7.67126414 11.5886454,7.70391285 C11.5514608,7.74122566 11.5166003,7.77387437 11.4840637,7.80185898 L10.1802789,6.49357854 C10.2360558,6.44227342 10.3022908,6.38047408 10.3789841,6.30818051 C10.4556773,6.23588694 10.5195883,6.1787517 10.5707171,6.13677478 C10.6357902,6.08546967 10.7031873,6.04932288 10.7729084,6.02833443 C10.8426295,6.00734597 10.9111886,5.99801777 10.9785857,6.00034982 C11.0459827,6.00268188 11.1110558,6.0131761 11.1738048,6.03183251 C11.2365538,6.05048891 11.2911687,6.07147737 11.3376494,6.09479788 C11.435259,6.14610299 11.5433267,6.23588694 11.6618526,6.36414973 C11.7803785,6.49241253 11.872178,6.62650544 11.937251,6.76642848 L11.937251,6.76642846 Z M6.5059761,10.1805507 C6.53386455,10.1525661 6.59893759,10.0861026 6.70119522,9.98116036 C6.80345286,9.87621808 6.9312749,9.74678926 7.08466136,9.59287392 L7.5936255,9.08215481 L8.15836654,8.51546649 L9.65737052,7.01129378 L10.9611554,8.32657038 L9.46215139,9.83074309 L8.90438247,10.3974314 C8.71845949,10.5793314 8.55112882,10.746073 8.40239044,10.8976563 C8.25365205,11.0492396 8.13047808,11.1740043 8.03286852,11.2719504 C7.93525896,11.3698965 7.87715803,11.4258658 7.85856573,11.4398581 C7.81208499,11.481835 7.75863213,11.526144 7.69820716,11.572785 C7.63778219,11.619426 7.57503319,11.6567388 7.50996015,11.6847234 C7.44488711,11.7173721 7.34960158,11.757017 7.22410358,11.803658 C7.09860558,11.850299 6.96729747,11.895774 6.83017927,11.940083 C6.69306107,11.9843919 6.56291499,12.0228708 6.43974103,12.0555195 C6.31656706,12.0881682 6.22476759,12.1091566 6.16434262,12.1184848 C6.03884461,12.1324771 5.95517927,12.1138207 5.9133466,12.0625156 C5.87151393,12.0112105 5.85989375,11.9249246 5.87848604,11.803658 C5.88778219,11.7383606 5.90986055,11.6439125 5.94472111,11.5203138 C5.97958167,11.3967151 6.01676626,11.2684524 6.05627489,11.1355255 C6.09578352,11.0025986 6.13413014,10.8801659 6.17131473,10.7682275 C6.20849933,10.656289 6.23871181,10.5793314 6.26195218,10.5373545 C6.28984063,10.472057 6.32121513,10.4125897 6.35607568,10.3589526 C6.39093624,10.3053154 6.44090304,10.2458481 6.50597608,10.1805507 L6.5059761,10.1805507 Z" id="形状" fill="#5F6269" fill-rule="nonzero"></path>
    </g>
</svg>