<?xml version="1.0" encoding="UTF-8"?>
<svg width="11px" height="11px" viewBox="0 0 11 11" version="1.1" xmlns="http://www.w3.org/2000/svg">
    <title>缩略图</title>
    <g id="缩略图" stroke="none" stroke-width="1" fill="none" fill-rule="evenodd">
        <rect id="矩形" fill="#000000" fill-rule="nonzero" opacity="0" x="0" y="0" width="11" height="11"></rect>
        <path d="M3.99630086,5.12512513 L2.16018384,5.12512513 C1.52056944,5.12512513 1,4.60860861 1,3.97397397 L1,2.15215215 C1,1.51651652 1.52056944,1 2.16018384,1 L3.99630086,1 C4.63591526,1 5.15749355,1.51651652 5.15749355,2.15215215 L5.15749355,3.97397397 C5.15749355,4.60860861 4.63692411,5.12512513 3.99630086,5.12512513 Z M2.16018384,1.5005005 C1.79800471,1.5005005 1.5034189,1.79279279 1.5034189,2.15215215 L1.5034189,3.97397397 C1.5034189,4.33333333 1.79800471,4.62562563 2.16018384,4.62562563 L3.99630086,4.62562563 C4.35847999,4.62562563 4.6530658,4.33333333 4.6530658,3.97397397 L4.6530658,2.15215215 C4.6530658,1.79279279 4.35847999,1.5005005 3.99630086,1.5005005 L2.16018384,1.5005005 Z M8.86301984,5.02602603 L7.07734559,5.02602603 C6.45084632,5.02602603 5.94137429,4.52052052 5.94137429,3.8988989 L5.94137429,2.12712713 C5.94137429,1.50550551 6.45084632,1 7.07734559,1 L8.86301984,1 C9.48951911,1 9.99899114,1.50550551 9.99899114,2.12712713 L9.99899114,3.8988989 C9.99899114,4.52052052 9.48951911,5.02602603 8.86301984,5.02602603 Z M7.07734559,1.5005005 C6.72929044,1.5005005 6.44580204,1.78178178 6.44580204,2.12712713 L6.44580204,3.8988989 C6.44580204,4.24424424 6.72929044,4.52552553 7.07734559,4.52552553 L8.86301984,4.52552553 C9.21107499,4.52552553 9.49456339,4.24424424 9.49456339,3.8988989 L9.49456339,2.12712713 C9.49456339,1.78178178 9.21107499,1.5005005 8.86301984,1.5005005 L7.07734559,1.5005005 Z M3.97612375,10 L2.1541307,10 C1.51754288,10 1,9.48648649 1,8.85485485 L1,7.04604605 C1,6.41441441 1.51754288,5.9009009 2.1541307,5.9009009 L3.97612375,5.9009009 C4.61271158,5.9009009 5.13025593,6.41441441 5.13025593,7.04604605 L5.13025593,8.85485485 C5.13126331,9.48648649 4.61271158,10 3.97612375,10 L3.97612375,10 Z M2.1541307,6.4014014 C1.795987,6.4014014 1.50442775,6.69069069 1.50442775,7.04604605 L1.50442775,8.85485485 C1.50442775,9.21021021 1.795987,9.4994995 2.1541307,9.4994995 L3.97612375,9.4994995 C4.33426746,9.4994995 4.6258267,9.21021021 4.6258267,8.85485485 L4.6258267,7.04604605 C4.6258267,6.69069069 4.33426746,6.4014014 3.97612375,6.4014014 L2.1541307,6.4014014 Z M8.8458693,10 L7.02690281,10 C6.39132384,10 5.87378097,9.48648649 5.87378097,8.85585586 L5.87378097,7.05105105 C5.87378097,6.42042042 6.39132384,5.90690691 7.02690281,5.90690691 L8.84687815,5.90690691 C9.48245712,5.90690691 10,6.42042042 10,7.05105105 L10,8.85685686 C9.99899114,9.48748749 9.48144827,10 8.8458693,10 L8.8458693,10 Z M7.02690281,6.40740741 C6.66976796,6.40740741 6.37820872,6.6956957 6.37820872,7.05105105 L6.37820872,8.85685686 C6.37820872,9.21121121 6.66875911,9.5005005 7.02690281,9.5005005 L8.84687815,9.5005005 C9.204013,9.5005005 9.49557225,9.21221221 9.49557225,8.85685686 L9.49557225,7.05105105 C9.49557225,6.6966967 9.20502186,6.40740741 8.84687815,6.40740741 L7.02690281,6.40740741 L7.02690281,6.40740741 Z" id="形状" fill="#5F6269" fill-rule="nonzero"></path>
    </g>
</svg>