<?xml version="1.0" encoding="UTF-8"?>
<svg width="16px" height="12px" viewBox="0 0 16 12" version="1.1" xmlns="http://www.w3.org/2000/svg" xmlns:xlink="http://www.w3.org/1999/xlink">
    <title>编组 4</title>
    <g id="-----数据建模页面优化-2.7" stroke="none" stroke-width="1" fill="none" fill-rule="evenodd">
        <g id="切图" transform="translate(-16.000000, -10.000000)">
            <g id="编组-4" transform="translate(16.000000, 10.000000)">
                <g id="编组">
                    <rect id="矩形" x="0" y="0" width="12" height="12"></rect>
                    <path d="M6,0.404700538 L10.5711524,2.92783122 C10.8032032,3.06180581 10.9461524,3.30940108 10.9461524,3.57735027 L10.9461524,3.57735027 L10.9461524,8.42264973 C10.9461524,8.69059892 10.8032032,8.93819419 10.5711524,9.07216878 L10.5711524,9.07216878 L6.375,11.4948185 C6.14294919,11.6287931 5.85705081,11.6287931 5.625,11.4948185 L5.625,11.4948185 L1.42884758,9.07216878 C1.31282217,9.00518149 1.21907217,8.90978902 1.15432852,8.79764973 C1.08958488,8.68551044 1.05384758,8.55662433 1.05384758,8.42264973 L1.05384758,8.42264973 L1.05384758,3.57735027 C1.05384758,3.30940108 1.19679677,3.06180581 1.42884758,2.92783122 L1.42884758,2.92783122 L5.625,0.505181486 C5.7410254,0.438194187 5.8705127,0.404700538 6,0.404700538 L6,0.404700538 Z" id="多边形" stroke="#666666" stroke-width="0.5" fill="#EFF0F3"></path>
                    <path d="M1.25782768,3.22861553 L6,6 L10.7006781,3.22861553" id="路径-56" stroke="#666666" stroke-width="0.5"></path>
                    <line x1="6" y1="6" x2="5.97925287" y2="11.5264037" id="路径-60" stroke="#666666" stroke-width="0.5"></line>
                </g>
                <path d="M13.2044541,3.0444886 L14.9555108,4.79554426 L10.6546667,9.09638574 C10.6239494,9.09638575 10.6239494,9.12710302 10.5932321,9.12710302 L10.5932321,9.12710302 L8.22776653,9.98727671 C8.16632294,10.017994 8.10488835,9.98727671 8.04344476,9.95655044 C8.01272747,9.89511589 7.98200118,9.83367234 8.01272747,9.77222879 L8.01272747,9.77222879 L8.87289268,7.40677362 C8.87289269,7.37604735 8.90360998,7.34533008 8.90360998,7.34533008 L8.90360998,7.34533008 L13.2044541,3.0444886 Z M14.0646193,2.1843239 C14.3103846,1.9385587 14.6790281,1.9385587 14.9247935,2.1843239 L14.9247935,2.1843239 L15.815676,3.07521487 C16.0614413,3.32097107 16.0614413,3.68961436 15.815676,3.93537956 L15.815676,3.93537956 L15.1398325,4.61122261 L13.3887758,2.86016695 Z" id="形状结合" fill="#659DFF" fill-rule="nonzero"></path>
            </g>
        </g>
    </g>
</svg>