<?xml version="1.0" encoding="UTF-8"?>
<svg width="16px" height="12px" viewBox="0 0 16 12" version="1.1" xmlns="http://www.w3.org/2000/svg" xmlns:xlink="http://www.w3.org/1999/xlink">
    <title>编组</title>
    <g id="-----数据建模页面优化-2.7" stroke="none" stroke-width="1" fill="none" fill-rule="evenodd">
        <g id="切图" transform="translate(-16.000000, -39.000000)">
            <g id="编组" transform="translate(16.000000, 39.000000)">
                <g id="枚举" stroke="#666666" stroke-width="0.5">
                    <g>
                        <path d="M5.93303209,3.97109489 L8.28753451,5.25666013 C8.51377847,5.39212 8.65226205,5.63644281 8.65226205,5.90013905 L8.65226205,5.90013905 L8.65226205,8.32208317 C8.65226205,8.58577941 8.51377847,8.83010223 8.28753451,8.96556209 L8.28753451,8.96556209 L6.31830455,10.1446063 C6.19969747,10.2156203 6.06636478,10.2511273 5.93303209,10.2511273 C5.7996994,10.2511273 5.66636671,10.2156203 5.54775963,10.1446063 L5.54775963,10.1446063 L3.57852967,8.96556209 C3.3522857,8.83010223 3.21380213,8.58577941 3.21380213,8.32208317 L3.21380213,8.32208317 L3.21380213,5.90013905 C3.21380213,5.63644281 3.3522857,5.39212 3.57852967,5.25666013 L3.57852967,5.25666013 L5.54775963,4.07761596 C5.66636671,4.00660191 5.7996994,3.97109489 5.93303209,3.97109489 L5.93303209,3.97109489 Z" id="多边形" fill="#EFF0F3"></path>
                        <path d="M3.22321934,5.4688092 L5.93303209,7.11111111 L8.61913384,5.4688092" id="路径-56"></path>
                        <line x1="5.93303209" y1="7.11111111" x2="5.92117659" y2="10.386017" id="路径-60"></line>
                        <line x1="3.22321934" y1="8.74856405" x2="1.96874119" y2="9.94687079" id="路径-63"></line>
                        <line x1="8.61913384" y1="8.74856405" x2="9.77623745" y2="9.84099812" id="路径-64"></line>
                        <line x1="5.92117659" y1="3.82722428" x2="5.93303209" y2="2.51113521" id="路径-65"></line>
                        <path d="M5.90255793,0.25 C6.18755347,0.25 6.44512167,0.370534144 6.63173414,0.564058184 C6.82157758,0.760932863 6.93827221,1.03311007 6.93827221,1.33333333 C6.93827221,1.6335566 6.82157758,1.9057338 6.63173414,2.10260848 C6.44512167,2.29613252 6.18755347,2.41666667 5.90255793,2.41666667 C5.61756238,2.41666667 5.35999418,2.29613252 5.17338171,2.10260848 C4.98353827,1.9057338 4.86684364,1.6335566 4.86684364,1.33333333 C4.86684364,1.03311007 4.98353827,0.760932863 5.17338171,0.564058184 C5.35999418,0.370534144 5.61756238,0.25 5.90255793,0.25 Z" id="椭圆形" fill="#EFF0F3"></path>
                        <path d="M10.7142857,9.58333333 C10.9992813,9.58333333 11.2568495,9.70386748 11.4434619,9.89739152 C11.6333054,10.0942662 11.75,10.3664434 11.75,10.6666667 C11.75,10.9668899 11.6333054,11.2390671 11.4434619,11.4359418 C11.2568495,11.6294659 10.9992813,11.75 10.7142857,11.75 C10.4292902,11.75 10.171722,11.6294659 9.9851095,11.4359418 C9.79526606,11.2390671 9.67857143,10.9668899 9.67857143,10.6666667 C9.67857143,10.3664434 9.79526606,10.0942662 9.9851095,9.89739152 C10.171722,9.70386748 10.4292902,9.58333333 10.7142857,9.58333333 Z" id="椭圆形" fill="#EFF0F3"></path>
                        <path d="M1.28571429,9.58333333 C1.57070983,9.58333333 1.82827803,9.70386748 2.0148905,9.89739152 C2.20473394,10.0942662 2.32142857,10.3664434 2.32142857,10.6666667 C2.32142857,10.9668899 2.20473394,11.2390671 2.0148905,11.4359418 C1.82827803,11.6294659 1.57070983,11.75 1.28571429,11.75 C1.00071874,11.75 0.743150537,11.6294659 0.556538069,11.4359418 C0.366694629,11.2390671 0.25,10.9668899 0.25,10.6666667 C0.25,10.3664434 0.366694629,10.0942662 0.556538069,9.89739152 C0.743150537,9.70386748 1.00071874,9.58333333 1.28571429,9.58333333 Z" id="椭圆形" fill="#EFF0F3"></path>
                    </g>
                </g>
                <path d="M13.2044541,3.15724743 L13.6345412,3.60326342 L13.8188629,3.7944118 L14.3411019,4.33600198 L14.5254237,4.52715036 L14.9555108,4.97315701 L10.6546667,9.43328892 C10.6239494,9.43328893 10.6239494,9.46514388 10.5932321,9.46514388 L10.5932321,9.46514388 L8.22776653,10.3571759 C8.16632294,10.3890308 8.10488835,10.3571759 8.04344476,10.3253116 C8.01272747,10.2616017 7.98200118,10.1978824 8.01272747,10.1341632 L8.01272747,10.1341632 L8.87289268,7.68109857 C8.87289269,7.64923429 8.90360998,7.61737934 8.90360998,7.61737934 L8.90360998,7.61737934 L13.2044541,3.15724743 Z M14.0646193,2.26522478 C14.3103846,2.01035717 14.6790281,2.01035717 14.9247935,2.26522478 L14.9247935,2.26522478 L15.815676,3.18911172 C16.0614413,3.44396999 16.0614413,3.82626675 15.815676,4.08113436 L15.815676,4.08113436 L15.1398325,4.78200863 L13.3887758,2.96609906 Z" id="形状结合" fill="#659DFF" fill-rule="nonzero"></path>
            </g>
        </g>
    </g>
</svg>