<?xml version="1.0" encoding="UTF-8"?>
<svg width="16px" height="16px" viewBox="0 0 16 16" version="1.1" xmlns="http://www.w3.org/2000/svg" xmlns:xlink="http://www.w3.org/1999/xlink">
    <title>查看</title>
    <g id="查看" stroke="none" stroke-width="1" fill="none" fill-rule="evenodd">
        <rect id="矩形" x="0" y="0" width="16" height="16"></rect>
        <path d="M12.1470238,3.00000055 C12.6382605,2.99977742 13.1094417,3.1948214 13.4567986,3.54217826 C13.8041554,3.88953512 13.9991994,4.36071631 13.9989759,4.85195305 L13.9989759,4.85195305 L13.9989759,4.85323922 L13.982699,9.67988097 C13.9800946,9.89544422 13.8044279,10.0687275 13.5888492,10.0683871 C13.3732704,10.0680467 13.1981519,9.89420954 13.1962282,9.67863914 L13.1962282,9.67863914 L13.1962282,9.67735298 L13.2128153,4.85150954 C13.2126823,4.56664503 13.1026482,4.29889989 12.901296,4.09754773 C12.7016903,3.89683193 12.430094,3.78429361 12.1470238,3.78500839 L12.1470238,3.78500839 L4.85084664,3.78500839 C4.56800247,3.78509067 4.2967827,3.89756241 4.09688567,4.0976674 C3.89698863,4.29777238 3.78479895,4.56910895 3.78501075,4.85195305 L3.78501075,4.85195305 L3.78501075,12.1481302 C3.78481071,12.4309503 3.89701125,12.7022572 4.09691211,12.9023244 C4.29681297,13.1023917 4.56802647,13.2148178 4.85084664,13.2148531 L4.85084664,13.2148531 L9.67757709,13.2148531 C9.89435087,13.2148531 10.0700807,13.3905829 10.0700807,13.6073567 C10.0700807,13.8241305 9.89435087,13.999861 9.67757709,13.999861 L9.67757709,13.999861 L4.850891,13.999861 C4.35973987,14.0002494 3.88860552,13.805255 3.54138816,13.4578796 C3.19417081,13.1105041 2.99939083,12.6392811 3.00000172,12.1481302 L3.00000172,12.1481302 L3.00000172,4.85195305 C2.99933191,4.36077144 3.19407978,3.88949808 3.54129393,3.54207593 C3.88850808,3.19465378 4.35966472,2.99962371 4.85084664,3.00000055 L4.85084664,3.00000055 Z M8.79463357,8.79463121 C9.66224389,7.9270209 11.0499677,7.86901447 11.9869567,8.66119309 C12.9239457,9.45337172 13.0975603,10.8314139 12.3863401,11.8312445 L12.3863401,11.8312445 L13.8850388,13.3299431 C14.0383236,13.4832279 14.0383236,13.7317516 13.8850388,13.8850364 C13.731754,14.0383212 13.4832303,14.0383212 13.3299455,13.8850364 L13.3299455,13.8850364 L11.8312468,12.3863378 C10.8314162,13.0975579 9.45337408,12.9239433 8.66119546,11.9869544 C7.86901683,11.0499654 7.92702326,9.66224153 8.79463357,8.79463121 Z M11.7722313,9.59204848 C11.355632,8.96853813 10.5566037,8.72613832 9.86379898,9.0130907 C9.17099422,9.30004307 8.77736807,10.0364277 8.92364593,10.7719023 C9.06992379,11.5073769 9.71536537,12.0371262 10.4652454,12.0371262 C10.8823791,12.0382528 11.2825884,11.8724837 11.5767182,11.5767602 C12.1069725,11.046524 12.1888305,10.2155588 11.7722313,9.59204848 Z M6.92965241,10.464977 C7.07073956,10.4634764 7.20175634,10.5378854 7.27273666,10.6598265 C7.34371697,10.7817676 7.34371697,10.9324397 7.27273666,11.0543808 C7.20175634,11.1763219 7.07073956,11.2507309 6.92965241,11.2492303 L6.92965241,11.2492303 L5.35817424,11.2490085 C5.14146169,11.2490085 4.96578146,11.0733283 4.96578146,10.8566158 C4.96578146,10.6399032 5.14146169,10.464223 5.35817424,10.464223 L5.35817424,10.464223 Z M7.71519191,8.10920111 C7.85541996,8.10920111 7.98499602,8.18401188 8.05511005,8.30545293 C8.12522408,8.42689399 8.12522408,8.57651554 8.05511005,8.69795659 C7.98499602,8.81939764 7.85541996,8.89420841 7.71519191,8.89420841 L7.71519191,8.89420841 L5.35795249,8.89345445 C5.21785912,8.89345446 5.0884075,8.81871554 5.01836081,8.69739112 C4.94831413,8.57606671 4.94831413,8.42658886 5.01836081,8.30526444 C5.0884075,8.18394003 5.21785912,8.10920111 5.35795249,8.10920111 L5.35795249,8.10920111 Z M5.35799683,5.74974416 L11.6439982,5.7517843 C11.8607844,5.75182864 12.0364575,5.92887661 12.0364575,6.14561846 C12.0364575,6.3623603 11.8606957,6.53918652 11.6439538,6.53918652 L11.6439538,6.53918652 L5.35795249,6.53692464 C5.1411663,6.53692463 4.96549319,6.35969925 4.96549319,6.14291306 C4.96549319,5.9260213 5.14110534,5.75008672 5.35799683,5.74974416 L5.35799683,5.74974416 Z" id="形状结合" stroke="#5F6269" stroke-width="0.2" fill="#5F6269" fill-rule="nonzero"></path>
    </g>
</svg>