<svg height="10" viewBox="0 0 10 10" width="10" xmlns="http://www.w3.org/2000/svg"><g fill="none" fill-rule="evenodd"><path d="m0 0h10v10h-10z" transform="matrix(1 0 0 -1 0 10)"/><g fill="#333"><path d="m9.7241101.2430144c.11045695 0 .2.08954305.2.2 0 .05286839-.02093302.10358612-.05822214.14106396l-1.41349012 1.41993604 1.22920698 1.18732762c-.00002159.32559839-.04878656.53888401-.1462949.63985685-.09750833.10097283-.30896215.15715165-.63436144.16853645l-1.24155064-1.19872092-1.31322214 1.32058885c-.07790747.07830175-.20454007.07862137-.28284182.0007139-.03772584-.03753588-.05893604-.08855961-.05893604-.14177786v-3.53752489c0-.11045695.08954305-.2.2-.2z" transform="matrix(-1 0 0 1 15.928508 0)"/><path d="m4.29205845.2430144c.11045695 0 .2.08954305.2.2 0 .05286839-.02093302.10358612-.05822214.14106396l-1.45766967 1.46393604 1.26027601 1.21714715c-.00002213.33375064-.05000806.55237645-.14995779.65587742-.09994973.10350098-.31669787.16108639-.65024443.17275623l-1.27307379-1.2287808-1.35422214 1.3623007c-.07790747.07830175-.20454007.07862137-.28284182.0007139-.03772584-.03753589-.05893604-.08855962-.05893604-.14177786v-3.64323674c0-.11045695.08954305-.2.2-.2z"/><path d="m4.29205845 5.67219176c.11045695 0 .2.08954305.2.2 0 .0528684-.02093302.10358612-.05822214.14106396l-1.45766967 1.46393604 1.26027601 1.21714715c-.00002213.33375065-.05000806.55237646-.14995779.65587743s-.31669787.16108638-.65024443.17275623l-1.27307379-1.22878081-1.35422214 1.3623007c-.07790747.07830175-.20454007.07862137-.28284182.0007139-.03772584-.03753588-.05893604-.08855961-.05893604-.14177786v-3.64323674c0-.11045695.08954305-.2.2-.2z" transform="matrix(1 0 0 -1 0 15.38762)"/><path d="m9.7241101 5.67219176c.11045695 0 .2.08954305.2.2 0 .0528684-.02093302.10358612-.05822214.14106396l-1.45766967 1.46393604 1.26027601 1.21714715c-.00002213.33375065-.05000806.55237646-.14995779.65587743s-.31669787.16108638-.65024443.17275623l-1.27307379-1.22878081-1.35422214 1.3623007c-.07790747.07830175-.20454007.07862137-.28284181.0007139-.03772585-.03753588-.05893605-.08855961-.05893605-.14177786v-3.64323674c0-.11045695.08954305-.2.2-.2z" transform="matrix(-1 0 0 -1 15.823328 15.38762)"/></g></g></svg>